<mxfile host="app.diagrams.net" modified="2024-05-29T12:12:57.158Z" agent="Mozilla/5.0 (Windows NT 10.0; Win64; x64) AppleWebKit/537.36 (KHTML, like Gecko) Chrome/125.0.0.0 Safari/537.36" etag="dqJtRPfRKk3WRum2IAuw" version="24.4.9" type="github">
  <diagram name="PÃ¡gina-1" id="1Hc5OPzKCjAgTqL_QGOj">
    <mxGraphModel dx="4463" dy="3658" grid="1" gridSize="10" guides="1" tooltips="1" connect="1" arrows="1" fold="1" page="1" pageScale="1" pageWidth="827" pageHeight="1169" math="0" shadow="0">
      <root>
        <mxCell id="0" />
        <mxCell id="1" parent="0" />
        <mxCell id="_mWfliPqRUCIZ1JOGKY0-1" value="" style="shape=image;verticalLabelPosition=bottom;labelBackgroundColor=default;verticalAlign=top;aspect=fixed;imageAspect=0;image=data:image/png,iVBORw0KGgoAAAANSUhEUgAABxgAAAQ7CAYAAAC8O3vwAAAAAXNSR0IArs4c6QAAAARnQU1BAACxjwv8YQUAAAAJcEhZcwAADsMAAA7DAcdvqGQAAP+lSURBVHhe7N0HmFTV+Qfgg3RsiL1g72LH3qJGRU3sEY1/ezSWxBYTG1EisfeosWvsBo01FiwoNlTEFht2sZfYC33/fpdDFnZnYWbZXXbZ932e++R8d8rOzL0zkvnN+U6bqp8kAAAAAAAAgDLMkP8XAAAAAAAAYIoEjAAAAAAAAEDZBIwAAAAAAABA2QSMAAAAAAAAQNkEjAAAAAAAAEDZBIwAAAAAAABA2QSMAAAAAAAAQNkEjAAAAAAAAEDZBIwAAAAAAABA2QSMAAAAAAAAQNnaVP0kjwEAAACA6dSYMWPSxx9/nKtq8847b2rbtm2uoGmMHj06ffLJJ7mqNt9886UZZjAvpiUaNWpU+vTTT3NVbf75509t2rTJVevw7bffpq+//jpX43Xo0CHNNddcuWp8jgeNTcAIAAAAAK3Aa6+9lpZaaqlcVXv99dfT4osvnqvyRWDZrl27XMF45Z4XTz31VFpjjTVyVS0CkTnnnDNXtCQPP/xw2mCDDXJV7ZtvvkkzzzxzrlqHv/71r+nPf/5zrsZbeeWV0zPPPJOrxvfYY4+lddddN1fVvvzyy9S1a9dcQf35KQgAAAAAULbvvvsu/elPf0onnnhi3gMpvfPOO2nrrbdOgwYNynsAmJ4JGAEAAACAsvTv3z8ts8wy6bTTTiva78HIkSOL2VrLLrtsuv3225OGeQCtg4ARAAAAAJisYcOGpU022ST17t07vf/++3kvrd2AAQPS8ssvX7SC/PHHH/NeAFoDASMAAAAAMFl77rlnuv/++3MFqZjB2qtXr2INTwBaHwEjAAAAADBZ2l5Sk3MCoHUTMAIAAAAAAABlEzACAAAAAAAAZRMwAgAAAAAAAGUTMAIAAAAAAABlEzACAAAAAAAAZWtT9ZM8BgAAAIDpzrPPPpu++OKLXI3XoUOHtN566+Wq/l5//fU0fPjwXI3XpUuXtNZaa+VqysaNG5cGDRqU7rvvvvTSSy+lV199NX311Vcpvrbr1KlTWnTRRdPyyy+fVl555bTNNtukbt265VtW5rXXXktLLbVUrqrFc1h88cVzNd4LL7yQPvvss1yldNBBB6WXX345V+Ptsssuac8998zVeDPPPHNaffXVczVlY8aMSY888kgaOnRoGjZsWLG9++67acSIEcXr0q5du9S1a9fi8S255JLF67DVVlvV+zWoyyuvvJLuueeeNGDAgOJ1+uGHH4r9c8wxR1pjjTXSuuuum3bYYYfi+U0sjls8hwmm9ryK1/y2224rztnnn3++eC1GjhyZ2rZtm2afffa00korFefBFltskZZZZpl8q6bz8MMPp9GjRxfj+N/NN9+8GE/s1FNPTausskquxltwwQXTEksskavxnnrqqeK1renTTz9Nc845Z67G/514TeI8GTJkSPGaxL6OHTumhRdeOK2zzjrF8dl4441T586d863K9+STT6bvvvsuV7WPYXx2XHjhhcVjeOedd4rLe/TokbbeeuviXJxvvvnyNacszpW77747PfHEE8XxjfNuwt+eccYZi2Maxzee02abbZZmmKHh5gfF37nrrrvSY489VryOn3/+efr222/T2LFji8+ZRRZZJC233HLFFq/l0ksvnW9Zvjg/Nthgg1xV++abbyZ574waNSrdcsst/3sscUzjtYljGp93E47pRhttVDy2hhSP5dZbby2Oe3ymvfXWW+nHH38sXut4jMsuu2zxObP22msXxyDee/Xx17/+Nf35z3/O1XhxbJ955plcVSYe97333pvuvPPONHjw4KKOYzfrrLMWn7lxzm677bZprrnmyrdIxesbr2NNX375ZfG5ClMtAkYAAAAAmF717ds3fmBfa3v99dfzNepvtdVWq3W/e++9d7508r7//vvisc0///y17qOurVOnTlW77LJL1TPPPJPvpXzDhg0reZ+lXoett9665HWntK200kr5Hibv7bffrjr44IOrunXrVvJ+Jre1b9++avvtt6968cUX873V3z//+c+qxRZbrOTfqbnFY/3rX/9aHLcJZpxxxkmuM+ecc+ZLKjN06NCqX//611UdOnSY5P4mt2244YZV//73v/M9NI1ZZ5215GOZ0nbIIYfke6j25JNPlrzup59+Wlw+atSoqrPOOquqe/fuJa9Xc5trrrmqTj/99OJ2lVh22WUnuZ855pgjX1JV9cgjj1TNM888k1w+8da2bduq3/72t1P8m59//nnVscceWzXffPOVvJ9S28ILL1x16qmnTnK+1cd7771X9X//939VnTt3Lvl36tpWWWWVqssuu6xq7Nix+Z6mbNCgQSXv65tvvikuHzlyZNVpp51W9usQr/0555xTNXr06OL2UyM+/3baaafiM7TU3yq1xWdzHLcvvvgi30v5+vXrV+v+Vl555Xxp+d5///3isyE+92reX82tS5cuVUccccT/Xu9HH3205PW+/PLL4nKYWgJGAAAAAKZrEWa1adOm1pesEe5NjVdffbXWfcYWX+pOyU033VS1wAILlLx9OVu7du2q+vTpU1GY0hwCxnHjxlWde+65xRfhpW5fyRZfuNf3GEZgUN/nGMFLhDZhagPGOH7HHHNMEVRNfD+VbBE+fPXVV/keG1dTBYwffvhh1TrrrFPy8iltq666atV///vf/FemrK6A8a233qrq2rXrJJeV2pZZZpni+nW5++67q+add96Sty1nW3rppYsAuj6uv/76qplnnrnk/Za7bbDBBlXvvPNOvsfJm1zAGO+Z1VdfveTlU9rWWGONep/jP/74Y9Uf//jHsgK6urYIGuM4VqIhAsYrrriiaqaZZqp1P1Pa4pyOYyZgpLFZgxEAAACA6Vq0UfzZz36Wq2rXXnttHtXPVVddlUfVoo1ntPerS1VVVfrjH/9YtNt8//33897KRTvBaMEXf+u///1v3tu8jRo1Km255Zbp97///f9akE6NaJPZt2/fdNxxx+U95YnWkKuttlrR8rI+osVh3P7FF1/Me+onjlu0LzzhhBOKVof1dd111xWtU6O16/Qg2lZGi9Vo71gf0W53k002KdpA1le0pY33aLQqnpKabYIndtRRRxVtZD/66KO8p3LRMnnNNddMl19+ed5Tnn/+85/p17/+ddEGdWpEG+Bo7RmPo76iHWwc02iLWx/RznTTTTct2oJW4pNPPilah5522mn/a+1bHx988EFxHI888si8p/Edc8wxxbk1cfvecsV7KNoPR/traEzWYAQAAABgunf11Ven3XbbLVfV4ovrStYMnCC+Uovgsub6iyeeeGIRKtRln332SZdeemmuaouAMsKEWK8u1v76+OOP09NPP108zrpCqBVXXLEIAWItrsmpZA3Ggw8+OA0cODBXqVinrGYoGOvkzT333LkaL9aQ69+/f64mFV+W/+Mf/8jVpOK5RkgW657Fuoft27cv1mGM9fhiXcS33347X7O2WDvtP//5T7F22pREMBvrqk383CYWa7Ctv/76RaASa2nG34/XPtbMq/k1aqwrGMcngtMJ4jWJ20zJ119/XaxVF8FLKfGcYp3FWMtzlllmKY59hAaPPvporbUwJ4i1AGNttnhcjSUC7QkhT7wesWZoTbGWX6wnOLF470WwPrG61mCMtSZLheaxNl+c67EGYrx+EUBOLjzr3bt3uuGGG3JVt1hzcOLXNM6/WHP02GOPzXvqFmuExg8Far4PQoRRp5xySq5qi/N1u+22K55vnO9xP/GaxDqGE6/rOUGbNm2KHzX83//9X95Tt3g/9OzZc5Jzc4L4nIjzKj5nZptttuI5xHs7zvNY46+uEG9CQDi5NQnrWoOxrmManzsrrLBC8RjimMb5/f333+dLa9t9993r/AypaUK4WFfIFn8zzr9VV101zTPPPMVrHteN9/rkgrk//elPkz2uE0zNGozxGRrnb13iBw5xDONxx+dk3Gf8N6Dm+yGOdbyuNVmDkQYTASMAAAAATM9iHbNSrQIPOuigfI3KPPjgg7XuK9pcfvDBB/katV155ZW1bjNhi3aQcZ91iXZ3Bx54YMlWr7Ftvvnm+Zp1q6RFak1rrrlmrdtFa89y3XrrrbVuH1usC3fGGWdUffvtt/mapb300ktFm8MZZpih5P3sscce+ZqTF+s+lrp9PI7DDz+8WCuvlOeff76slqrltkjdbLPNSt5+lllmKVrfvvvuu/matd1///1Fq8VSt19++eUrXoOwvkaMGFHyMdx33335GpP3ZB0tUifeopXu0UcfXfIcjff0NddcU7XccsuVvG28V1577bV87brVbJEa50LN1rezzz57sY5htHqNlrRzzz13sX+rrbbK9zKpyy+/fJLbT7z96le/KlqJ1iXe67GOa6nbxhqdQ4YMydes25ZbblnrtvG8LrroosmuqRjnziWXXFLr+U/Y7rjjjnzN0upqkTrxFi0/Y13DN998M9+q2nfffVd8Ti611FIlbxvv/8m9NyZW6jWILc6L3//+95O9n4EDB1attdZaJW8fWxzfKalvi9T4rKmrhfS6665b9dhjj+VrTio+u+LzrZxWsFqk0lAEjAAAAAC0CqW+tI+gYMyYMfka5dtzzz1r3dfkQr7hw4fXuX7dn/70p7Ifw1133VWEUKXuJ9Zbm5xpGTCW+rK+U6dOVU899VS+Rnluu+22ImSpeV8RiIwcOTJfq7S6wo9YZ++ZZ57J15q8Sy+9tM6QN7ZyAsYbbrih5G1jnbcXXnghX2vyYl25CLpK3c9pp52Wr9W4GjtgjJCpnHMz1uaLdRdL3cdf/vKXfK261QwYJ95irdOzzjqravTo0fna48VaovGDgMGDB+c91WL9x27dutW6rwjHzj///HytKbvqqqtKhkWxjmH8/brEjxxq3ia2W265JV9jyp544omSf3v77bfP1yhtSgFjhMGxtuWUxGu4wgorlLyPU045JV+rbhGSlrptvNfvueeefK3Ji2P+hz/8oeT9xPGNtUInp74BY8+ePWvdLrYID8sRAXRd/42YsAkYaSjWYAQAAACgVYgWnTVFG7377rsvV+X58ccf00033ZSraqXuf4JoD1mqVd3hhx9etNubXNvBicU6YHfccUfRUrGmww47rOI1yppCtFWM1p01xeONVn+V2GqrrdJOO+2Uq2rRVnHYsGG5Ki1aFtbUsWPHdOeddxatC8ux9957p7POOitXlYtzJ1os1hQtJB944IG0/PLL5z2T16lTp6Ltb5wPNR1//PFF69aWLFo/3nPPPbVa95YSbSDj/RhtZWuqqwVtuc4///x0yCGHFO00JxbtSmNd12gzWlO0Vv3iiy9yVe1vf/tbOuCAA3I1Zbvuumu68MILc1Ut3k9XXnllrmp76KGH8qhatB7eZpttcjVl0Tr0N7/5Ta6qxWdPfddPXWCBBYpjGi10p6Rbt27pxhtvzNWkpnRMY83CP/zhD7mqFq11//3vfxctkssRx/z0009Phx56aN5TLY7vEUcckauG8+CDDxYtsWuKz7xyP3eiNW48z1L/jYCGJmAEAAAAoFWI9eNibcOarr322jwqzy233FJrrav4QjzCr1Liy+i4TU0RapWzlldNsUZgnz59clXto48+Stddd12umo9Sr28ESJNbq3JydthhhzyaVM31MCf26quvlgySIySI8KUSsT7lz3/+81xVJtbQK/U4zzvvvJLrY05OBGoRNMW6kROLc/Piiy/OVcsU65TGGqfliuuWCqunFDpPTgSI++67b67K8/nnn6eLLrooV9Ui3DvwwANzVb699tqr5OdKBF91eeONN/KoWqztWqmjjz46j6rFDyFiLdf6iLUTI2QsVzzmWHOzpikd01i/sNQPLSL4jf8GVOq0004r1omsKd7L5ay3WolS506swXrBBRcUoXa5Yu3JUj9kgIYmYAQAAACg1dhjjz3yqNqtt95a0aycmDlW069//etiNlwpEfqNGjUqV9VOPPHEkrOuyhEzdOaee+5cVas0LG0K8dy7d+8+yRfkO+64Y5pppplyVZkIfkqZ3DG8/PLL86hahMKlZjqV46STTsqjypSalTXffPPVGZpOyZxzzpm23nrrXFWra/ZXSxA/Athyyy1zVb4tttgij6pF2DZu3LhcVWafffbJo/LFDwnGjBmTq2oHHXRQHlWu1EzCl156Kb3yyiu5mrKY9VdVFd0xyxdhYMz6veyyy4pZke+//34xU3illVbK1yhfjx490sYbb5yr8pU6plMKGCPIrCl+0FBqJmI5IlQt9X4fO3Zs+uc//5mrqReh6G233Zaravvvv3/q2rVrrsoXz3fGGWfMFTQOASMAAAAArcZuu+1WK9SLlnoRMpYjWk+WmgkXM43qcv311+dRtWj92KtXr1xVLr44judS02OPPTbZmXzTQsy+iccUAWAEI7fffnv63e9+ly+tXF1fmscX/nW5995786jaL37xi2J2UH1EG8JlllkmV+WJ2W2DBg3KVbX99tuvVgvOSvTu3TuPqr344osVBVDNSSWtPCe27rrr5lG1kSNHpq+++ipX5YvPiPq8P0u1To5wbcMNN8xV5aKlZ6mAqa4QecEFF8yjas8++2w69dRTc1W+Y445pvhs22CDDdL8889f0Sy6iW277bZ5VJlSxzQ+r+v6MUGEoI888kiuqsVz6NKlS64qF0HnQgstlKtqDTljPFrfjhgxIlfVSrWELke0Xd5+++1zBY1DwAgAAABAqxGzckq1tyx35l9cr2aQFW386lrDL2YNlVozLMKtqbXJJpvkUbX4e/FFdXMU6wYuu+yy6Ze//GXJVrXlivCnVNBR10y1CJki2KypPjOqJlbp7WMWWKnZbaWC4kpsuummxWtbU4TNLVGcI/VRs1XsBKNHj86j8sU6gTHDtRLxuVBq/cNYS3FqxNqBpdbafPTRR/NoUnW17z3yyCPTdtttlx5++OF6z+qsr6Y6pnWtz9hYn7fPPPNMyfd0fTz33HN5VC2ef7nrspZSKqCFhiRgBAAAAKBV2XPPPfOoWsxw++yzz3JVt1LtUUvd3wQxcy/aCta00UYb5VH9xTpbpYKlWG9wehOBSLRGjDUHIyQp1e6xrtDkhRdeKBkCTG3AWOkxLLV2XYRHpWacVSLuo9Tsqtdffz2PWpZKZ4ZOEK9DKfUJgOoTgL/zzjslWyHHbOWpVerx1HV840cUda0rGi1cYzZitAyNts7ROvi9997LlzaepZdeOo8qU+kxffnll/OoWsxcXGONNXJVfxHk1xTH+6233srV1CkVMK655ppFi9b6iv9GQGMSMAIAAADQqkQLxpotB+ML6ymtpxVBVc0ZMu3bt0+77LJLrmqrq03loosumkf1F+HiqquumqtqLTlg/PHHH4vHP2DAgHTRRRelAw88sAhLopVphBSxhmaEJJUYOnRoHlWL4x8tH6dGqdd+ckoFQhEe7L777sUsxqnZvvzyy3yP1VpqwDi1x6WmStceDEsuuWQela+u1/viiy8uecwq2e655558b9XixwsxO7eUc845Z7Jtd+PHFNG6ee+99y4C7phhePjhh6eBAwfWa8bnlDTVMS31ebvwwgvXe63bia2zzjp5NKmG+rwtNfuy0s+YmuIzM1qlQmMRMAIAAADQqkQwt/POO+eq2pTapF511VV5VC3afc4xxxy5qu3dd9/No0nFl94NYdZZZ82jah9++GEeNW9vvPFGuuSSS9Jvf/vbtP7666f55puvmG0UM9hi/btYm/Dvf/97Gjx4cMlZoOWKddlqmpr12Caoay3IupSa6RSBasyKndrt008/zfdYLWbUtUR1zVprSnPNNVcela+umWwRlpc6ZpVspdoex4zdumYfxhqh//jHP8p+LSOYO+OMM4pZvRFIxSzhWF+wrrUOK9VUx7TU5220u20IpT5rQ0N93pZaO7e+a8ROLGarQmMRMAIAAADQ6sRMuJqeeOKJ9Oabb+ZqUrG+WnzhXtPk2qOGESNG5FG1+LK90nCqLqWCslJtGpuLmHl0xRVXFDNzou3jvvvuW8zweuSRR9JHH32Ur9WwSh2DhggYK72Pb7/9No+aRqnn3RKUWl+zqdUnEPvmm2/yqOlEQF2XmFl9//33V/xjhjhPY5Zw3D7Cqb322qtk69FKNMQMwnKUOudnm222PJo6db3fG+rzttSxLNUCu1KdO3fOI2h4AkYAAAAAWp3VV1+9aAtYU12zGOOL+poB2Lzzzps233zzXJUWwWRNDflle8eOHfOoWlN9mV+pmCW11lprFYHFM888k/dWZqmllkp/+ctfKgqhSh2DutZrrESlQVh91gKcGk3991q7afF6T+lvxhp8E9YujfdepSJsjB8ErLDCCumUU07Je5uvxvy8jfd7tMSuqaHuv9SxLPX3KiVgpDEJGAEAAABolUrNPqwrYCzVHnXXXXct1tCbnFLroDVkEFFq9kyp0HFai3UQ11hjjfTkk0/mPVMWX4zHbQ499NB00003Fa0IY72zY489Nl+jPKVmozVE68dK76PUubLQQgsVbXYbY9too43yX6EplDq+ERCVOjYNtdXVtnNicf7HOo6PP/54sc5f375907rrrltReBXB3ZFHHlmsF9qcNebnbcy+LnVfDfV5W+p+GmIWcqnQFRrMT28MAAAAAGh1Pvroo6p27dpVxVdkE29DhgzJ1xjv22+/rerSpUut673yyiv5GnW74oorat0utv/+97/5GlNnnXXWqXXfW265Zb50UsOGDat13dhef/31fI26rbnmmrVud8wxx+RLJ+/dd9+tmmuuuWrdfsI2wwwzVK211lpVv/3tb6vOPvvsqnvvvbe4zbhx4/I91Fbqfq6++up86aT+9re/1bruzDPPnC+tv/fee6/W/c4555z50trWXnvtWtfv3bt3vrTlGTFiRK3nE9t9992XrzF5Tz75ZMnbf/rpp/kalXnuuedK3l8cp8lZdtlla93m1FNPzZeW75xzzql1P23btq0aO3ZsvkbzEp9rd955Z9Whhx5atfzyy9d67HVtF198cb6H2gYNGlTyNt98802+RmWeeOKJkvf32Wef5WtMavPNN6913Y033jhfOnU++OCDWvcd25VXXpmvMal+/frVuu7KK6+cL62tW7duta5//PHH50vrL/5mzfv98ssv86UwdcxgBAAAAKBVivXFevXqlatqNWcx/utf/6o1W23NNddMSy+9dK7qtthii+XRpN5+++08mjql7mfxxRfPo+bh97//ffr0009zVW2mmWZKJ5xwQho+fHgxu+rCCy9MBx98cNpkk03SggsuWGcL0tGjR+fRpKqK3LG2JZdcMo+qRevHt956K1f185///CePyrPooovmUbWPP/44j2jpSh3fmD322Wef5ap5ifffFltskc4888z0wgsvFDOEo5Xqr3/968m21TzuuOPqfK9Na6U+bxvzszY01OftMsssk0fVGmJd2visg8YiYAQAAACg1SrVJvWf//znJGv0lWqPWup2pSyxxBJ5NKlo9Tm1vv7665JfQK+88sp5NO29+OKL6fbbb89VtTnnnDM99dRT6eijj07zzz9/3lue9957L48mVde6inUFwQ899FAe1c+DDz6YR+UpFXS+9NJLWhhOJ0od3xDhXUsQa8pGK9X4gUWE/n/84x9Lri8YnznRarU5KvV5G8+lIVoil/rMjtdnxRVXzNXUiXWBa3r44YfzqH6++OKL9Oabb+YKGp6AEQAAAIBWK9Yxm2OOOXI1XnyBPmjQoGIcs3pqBlExu2ennXbK1eTFLMlZZpklV9UGDBiQR/UX91FqJlFzChjrep6nnXZayRk75YjQspS6AsZY57DULKMJx7i+Bg4cmEflWWqppfKo2ueffz7VQWeIGaJ1PX+aRsxgLLWu4Y033phH9ffVV1+lH3/8MVfli9m+77zzTq7KF5+Jp556arHuYilTG3w1llLvsVg3sdL3ail33313HlWLQHPGGWfM1dRZbbXV8qha/ABhambAPvLII812tinTBwEjAAAAAK1WBALRErCmG264ofjf6667rlZws/3225cMDeuy2Wab5VG1+LK6rlaf5brtttvyqFrHjh3rHdw1hsceeyyPqnXo0KF4Detr6NCheTSpyc0E3HbbbfOo2l133ZW+//77XFXmjTfeSM8++2yuyrPRRhuldu3a5ara1AZQEVJ27969CL4j8Ijzbf/99y+eH00nju2GG26Yq2q33HJLEXJNjZ133rkIsuabb7607rrrpl133TWdeOKJ+dJqw4YNS8ccc0zabrvtis+BLl26pBVWWKHeIVMEjKVC05g93Rytt956xXOuqdRnZSUi3L3vvvtyVW2llVbKo6lXagZjeOCBB/KoclP7IwqYEgEjAAAAAK1aqXan0dYzvpS/6aab8p5q5bZHneBXv/pVHlWLUOjiiy/OVeVef/311L9//1xVW3XVVUsGAlOrVKvEcmbMRYu+mmafffZi/bf6GDlyZLrssstyNanJPZ7evXvnUbU4Bueee26uKtO3b9+KZwzGrLAIGWuKMHtqZildcMEFadSoUcUWwee9995brGf5ySef5Gs0jlLnRGjNMynrOs8m/GChPl555ZXimMbnUcyujtD+mmuuKWan1fTll18WwWOEmtHSM4LNWIPviSeeyNeozMwzz1xsNcUPGZqjCBdjXcma4vWqq7VyOf72t7+lb775JlfV1lprrTyaerF+ZITBNcUamfURbWFrricMDU3ACAAAAECrFrNQas5E+fjjj9Odd96ZhgwZkveMt/DCC5ecpTQ5W265ZclA7a9//WsRCNRHrI9WalbU7373uzxqWKVm3o0YMSKP6tapU6c8qhbtHiMMq4/4sv2DDz7I1aQmF2xF8Lr55pvnqlocg0rXyIvwOWa21kep2bIxGyyOZ31E+HTCCSfkqlocr2j/25hKnROhnPNiehUzB0ud83F847yvVMzK3WuvvUqe2/G3alpllVVK/v0IxOsj3mulHveyyy6bR81PqZA3zslY77U+ItQ95ZRTclUtPtN33333XDWMAw88MI+qxX+DSv3QZUoiFI3WydCYBIwAAAAAtHp77LFHHlU79NBDa32xH18ot2nTJlfliVk1pdYyixBzhx12KGblVeIvf/lLyZZ/0R6z1GzJhjDrrLPmUbV33303j+o211xz5VG1aDcYM4oqFbfp06dPrmqb0usYYWLNYxctUjfZZJMiqCvHPffcU7SrrG/LyV122aVkOHPllVem8847L1fliYA5ZtOWet5x7tZcW7ShxWtZKjgv57yYXnXt2jUdfvjhuaoW7/Udd9yx4vD1jDPOKDn7MNYa3G233XJVLdoPlwrYYgZkfVptxnum5mdgHPN4zzRXEbyWWoc2Pj8idKvEd999l7bZZpuSPwSJMDCOd0OK/75Eu+Oa9tlnnzrXni0l1sg87rjjcgWNR8AIAAAAQKsXwU/N1qLRbnJiEaiUCiLLEaHD4osvnqtqAwcOTBtvvHF6//338566RZC033771TkbKWb31TWrbGrNP//8eVQtwrbXXnstV6VFgFpKBBcRupQjAo7zzz+/eO0nN0txSm1GY3ZXfFFfU8zyWWONNdKf//znOteWi+MTxzBmo0brwfqK41NXkPj73/++CI/LWa8vWs9GK8gnn3wy76kW51ncT1ModV5cfvnlRTDTWsVMuYUWWihX1WINv0033bSsWWURYMesuaOOOirvqRafQ5deemmdbUrjPC71ORDBWyUh4xVXXJEuueSSXFWLwK25tkgN0bo33mOlfghyyCGHFD/2KOc9Fp//sd7lU089lfdUm3vuuYu1LhtavK7x2VhTzCKNUPe5557Le+oWxzg+p+o7SxwqIWAEAAAAoNWL2V5TaikZrVGjRWp9xBfHsXZgzDCqKdZUi7W3jj322JLtPyOsiUAhrnPRRRflvZOKIOIXv/hFrhpeqSApgraYKRQz+iIc23fffWsFeBGCzTPPPLmq9vbbb6e11147DRgwoM4v+2N24a233ppWW221ovVrtIucnHKCm7POOistv/zyuaoW69TFF/sRDG277bbp+OOPT6effnoR1my99dbFcY/ZZBMHnKXWICwVatQU59H++++fq0lFeBx/KwLCaM1Y0/Dhw4t1I+M5RGBVU/z9CIU6d+6c9zSuBRZYII+qRQgSM+x+85vfpIMOOqgIhs8+++x86fQvXvt4v5YK+WLdxAUXXDDtuuuuafDgwXlvtTjnb7755vTzn/+8CMJKBepx7kTwVZdYy69U685YQzACznifxo8DSs18jff03XffXfzgIlqz1nzPzTjjjCUDsOYmPlsiTKxpQnDbs2fPYn3CmE1dU3w2RUvb+Gx7/vnn895q8RpEy9JSa1M2hJiZGj8kqSl+kBGtnuP9FI+xpmeffTZttdVWxbnTmgN+mlabn95U9ZvPDwAAAADTkTvuuKP4grYuV199dfq///u/XNXPv/71r7TTTjtNdgZNhDbR7rRt27bpww8/TK+++upkZ+7Fl+GnnnpqruoWsw0j+Knp9ddfLzm7cmL//ve/y1rTL0KVCCkmng161VVXTXatsmi/GrNz5p133uJ2EbLEl+XPPPNMydcpwpUePXqkCy+8MO8Zb6ONNiprhla08Iy/F8+7viIEjBlhMWt0YvEc4phNSQQ30coyzoe6xGsZzzNenzgXPvnkk/TSSy/lS0s77LDDiiC0qfzhD3+o9RqUssEGG6SHHnooV+PFzLCYOVpTBMVzzjlnrsoXYVDNtVTDe++9VzIInWC55ZZLL7/8cq7Gi/dTfdfFnCBacsZ5P7n3boSBMRsu2ihHKBTh7OTaqEZ73WiZOqVwK2biRshW83lNLIKyCKrjfyMiiJA91iOdXKvh+JFEBI91idaccaxrinCzPoFczNBdc801c1UtZitPqQVwvO7x+k+uHXO8r+I1jWMQnzXDhg0rGexPEMfprrvuKvkca4ogNn6gMLEILeNzbUrisfTq1Wuyn2fxY4j470RcN45zqR9YrL/++sXnXc22xdHytaHbu9JKRcAIAAAAAK3d6NGjq+aee+74MX6tbZZZZqn64Ycf8jWnzr///e+qOeaYo+TfqWRr06ZN1RFHHJHvdcqGDRtW8n5ef/31fI26jRo1qmrhhRcuefua2yuvvJJvVW3//fcved1Ktg4dOlT16dOneCzXXXddrctnmmmmqjFjxuS/OHlffvll1aabblrrPsrZNthgg6pPPvmk6pRTTql12YILLpj/wpTF+bbffvvVuo/6bHEunHTSSfmem87LL79c1a5du5KPaeJtnnnmybeo9uSTT5a87qeffpqvUZnnnnuu5P299957+RqlLbvssrVuc+qpp+ZLp86NN95Y1bVr11r3X59to402Ks7bcr311ltViy22WMn7qnTr2LFj1T/+8Y98z3UbNGhQydt/8803+RqVeeKJJ0re32effZavMXljx46t+sMf/lC8P0rdTyXbbLPNVvXAAw/ke56yfv361bqPlVdeOV86ZV988UXVWmutVes+yt2WX375qo8//rhqkUUWqXVZJecRTI4WqQAAAADwk5gxFq0LS4nZZg3VdjLWx4qZaLGWWX1Fi79orXryySfnPY0rZhbefvvtabbZZst76hYzLmv6+9//XrQdrbnOZbnWW2+9YnZXv379ivtYZ511arUojRlg0fqxHDF7J2YixYysUrM6S4lZdSeddFK6//7701xzzVWyZWuptph1ietecMEFxWOe3Ay7KVl66aXTvffeW7TUbGrLLLNMsebilFrDRnvHuta3nJ7FGqQvvvhiMRutvmLmX8yGi3bClcw6W2SRRYpZojvuuGNZrXvrErPkYvbp5GYhN1fxGRGtjuPxL7roonlvZWKW4957713MboxZ0k0lPmtjRmifPn1KttaenJj1Gc85ZmZCYxIwAgAAAEC25557Fl/ozzTTTJNsk2sLWB8RUN1yyy1FABBr1cXfmJJu3boVbTnvvPPONGTIkLTWWmvlS8oTX7bXfF6xlVpLsJRopxjt/SKwiDUl6/LOO+/k0aSiXWAEqxHilhNURqC7/fbbF2sNxhftEWZNEOvYRVBb87mcd955+RpTFsFBHNdoLxhh49FHH120To31JiPIidc72ifGmmcRREabwQjxJoSIpQLG+rQd3GyzzYp2rdHKMdZnLCcMitcm1tO77rrritc01l2bVuJ4Pvjgg0VLzrrOpdj/1ltv5Wq8eP1rHr/Yyj0fa6rv/UWL0Jq3qTTQmZw4n2Jdw8cff7w43+L+pyTOgQnrssb76ZhjjqkovJ4gzuF//vOfRcvhCAjnm2++fMnkxWu58cYbp/79+6dXXnmlZJvSUuIx1nwtY6tvwNlQ50i0Co3nccMNNxQhYTmPZ8kllyzWlo1gMdbUrLRtb3xG1nzcca5VIl7P+FHFf/7zn+K/E6XWs51YtG6OltTx45M49qHmY4htagJnmJg1GAEAAABgGot11yIoii+SI/CK9dDia7tY86t79+7pZz/7WbG+XHP5Ynj06NHFY33jjTfSqFGjikAmQsMVV1yxCE+nJMK5WF8tZtnEemCx7mI83/jyO0K9CDNjbbyGmjXaGGJm0QknnJCr8SJ8jUBnanz++efFrLfY3nzzzfTjjz8WgUqEE7EeYwTLMYOzU6dO+RbNR5y3EWbFOpSxNlw8xliXMs6LOLaMf6/Hezze7/G/MbMz1guM93oc45iRGoFxY80+i3MqAvt478a5FVuIYxWh2iqrrFKEm835vTe14j0W603GZ1gE33FMYmZ0vP7x2RNBfwTDzU18Rg4dOrSYsRxrssbjjuMWn5nxmRCfmcJDmpKAEQAAAACgQrvssksxg3BiMdMs2lkCwPSufvPNAQAAAABaiGgpe9NNNxXrOMZajQ0hWifWFOvVAUBrIGAEAAAAAKZrDzzwQPrVr36VVl555WKNzWjbefjhh+dLK/fRRx8V61HWJGAEoLUQMAIAAAAA07WFF144j8b7+OOP0zXXXFOsH1kf0Qq15spTsRZajx49cgUA0zcBIwAAAAAwXVt++eXzqNonn3ySLr744lyV7957701XXHFFrqr17t07zTLLLLkCgOlbm6qaP7UBAAAAAJiOxFegSy21VHr99dfznvFmm222dOutt6b1118/75m8u+66K+28887pm2++yXvGa9u2bXrhhRfSsssum/cAwPTNDEYAAAAAYLrWpk2bdMghh+Sq2pdffpk23HDDtPvuu6dbbrklff311/mSah988EHRTnWHHXZIW265Za1wMRx00EHCRQBaFTMYAQAAAIDp3tixY9Pmm2+e7rvvvryntpiJGOs1du7cubh+hIkRME7OnnvumS677LIixASA1kLACAAAAAC0CjFjMWYhDh48OO+ZOrvttluxHuMMM2gUB0Dr4r98AAAAAECrEGsuDho0KB177LGpS5cueW/l5p133nTttdemK6+8UrgIQKtkBiMAAAAA0Op8/vnn6dxzz0233357euGFF9K4cePyJaXNOOOMabXVVku/+tWv0l577ZU6deqULwGA1kfACAAAAAC0atE69eGHH04vvvhi+v7779MPP/xQzEyMEHH++edPa621VlpxxRWLNRoBAAEjAAAAAAAAUAENwgEAAAAAAICyCRgBAAAAAACAsgkYAQAAAAAAgLIJGAEAAAAAAICyCRgBAAAAAACAsgkYAQAAAAAAgLIJGAEAAAAAAICyCRgBAAAAAACAsgkYAQAAAAAAgLIJGAEAAAAAAICyCRgBAAAAAACAsgkYAQAAAAAAgLIJGAEAAAAAAICyCRgBAAAAAACAsgkYAQAAAAAAgLIJGAEAAABgGtpoo41S165dJ9lOPvnkfCnQUh199NG13tvbbrttvhSgZRMwAgAAANCqDRgwIB177LG5anrffvtt+vrrryfZRowYkS8FWqoff/yx1nv7u+++y5cCtGwCRgAAAABapeHDh6ftttsu9erVK7322mt5LwAAUyJgBAAAAKBVGTVqVDrppJPSMsssk2655Za8FwCAcgkYAQAAAGhVDjrooGJttB9++CHvAQCgEgJGAAAAAFoVwSIAwNQRMAIAAADANHT//fenzz//fJLtiCOOyJcCADQ/AkYAAAAAmIZmnXXWNPvss0+yde7cOV8KAND8CBgBAAAAAACAsgkYAQAAAAAAgLIJGAEAAAAAAICytan6SR4DAAAAwHTnu+++S99//32uUvr973+fbrzxxlyNt80226QLL7wwV+PNMMMMac4558xVtc8//zyNHTs2Vym1bds2zTHHHLlKacyYMemOO+5It99+exo+fHjq1KlTWmGFFdLWW2+d1lhjjdSmTZt8zfG++OKLNHr06FyNN9NMM6UZZ5wxV5WJv//YY4+lAQMGpJdffrl47uPGjUvdunVLq622WlpnnXXSWmutVTy/idV8XmHuuefOo8q9++676Z577kkPP/xw+vLLL9OIESNSx44d09JLL53WXnvttOGGG07yuoUff/wxffPNN7kab5ZZZpmqNSk//fTT9Pjjj6fnn38+vfjii8Vjidcjjsviiy+eVl555bT66qun5ZZbLt+icvGa//e//83VeHH84jhO8Nlnn6X+/fun++67L3377bfF2ps/+9nPivNioYUWyteavPfff794PZ988sn04YcfFvczatSo1KFDhzTffPMVzyG2eD5xvKeFkSNHpq+++ipX45U6nz/55JM0aNCg9Oijj6bXX3+9uF0ck1iDNM6NXr16Fc+pvuK41/zqe7bZZiteq/qIx1vTlO7v0EMPTWeffXauxvv5z39enAOV+uCDD/537GNc89gvu+yy/zv28Ro2tHgtn3nmmWKL99Jbb71VvKfjcyTOtfiMi/fSuuuuW5zbQCsQASMAAAAATK8OP/zwSBkq3maaaaZ8D5NacMEFJ7neQgstlC+pqho2bFjViiuuOMnlE2/zzz9/1cUXX1w1bty4fIuqqp49e9a63nHHHZcvLd8bb7xRtdNOO1XNMssste6v5rbMMstUXXfddVVjx47Nt66qWnjhhWtdr1KjR4+uOuOMM6qWWmqpWvdVc+vUqVPVQQcdVPXBBx/kW1dVnX322bWuF/vq48EHH6zaYYcdqtq1a1frPkttq622WtWVV15ZNXLkyHwP5Xv22Wdr3d/BBx+cL62q+uc//1nVtWvXWteZsK2zzjpVTzzxRL52bVdddVVxnTZt2pS8fc0tnvMWW2xRddttt01yrjWFW265pdbj6du3b760quqjjz6q2nPPPcs6LvFeuvzyy+v1HErd3x133JEvrcyPP/5Y8v7uv//+fI3SDjnkkFq3+fnPf54vLc+1115bte6661Z07DfffPPiODTEsf/yyy+rzjzzzKoll1yy5N+ruc0444xV++67b9WLL76Y7wGYXmmRCgAAAAANIGaobbTRRsXsnrrEzKNTTz211izGqVFVVZVOO+20YvbSDTfcUGsGYCmvvPJK+vWvf13MEqs526y+YnZgzGD6wx/+kIYNG5b31i1mP/3tb39LyyyzTLr77rvz3qkXMwm33377YhbcTTfdVMwuLMeQIUPS7rvvXswyjZmfDeXOO+9MO+2002Rf55hxGrMba4pZinFO7bbbbsV14liXI57zXXfdVcyO3GyzzYrzrjkYPHhwMdPuiiuuKOu4xHtpr732KmZ6Npfn0FQ++uijtMkmm6RddtmlmOVZybGP99O2225b3P69997Ll1Tu3//+dzHj+LDDDkuvvfZa3jt5MWP64osvTiuuuGLq06dP2e8/oOURMAIAAADAVIqWmxHYlROC7LHHHnk09eLv/upXv0p/+tOfihaTlYpWjWuuuWZ6++238576iUAjWjNGyFipCER/+ctfpvPOOy/vqb9HHnkk9ejRI9188815T+Wee+65tOqqq6Z//OMfeU/9vfPOO2nXXXctKxyKIG1iETBFO9sHH3ww76mfOMbLL798evbZZ/OeaePee+8t2oNGi9pKRWvQCK/rc361RNGONVqN3n///XlP/TzwwANF69Knn3467ylPtEo+8MADi/dlqdaw5Yj7OOGEE4p2yB9//HHeC0xPBIwAAAAAMJUiHCsnDIj1yhoyYDzqqKPSv/71r1zVNv/886etttrqf7MVS63NFrMNt9hii/TDDz/kPZV59dVXixl6sX5iKbGuXoQMO++8cxGGxkzLmus/RhgRa2NO7rlMSczy2nzzzesMM9q1a5c23XTT4vXff//9i8ey8MIL50snFbMrI/CLmXZTI+6jnECt5hqQMetryy23LALKUmLtv7j8N7/5TfFc4u9EUFzzdZ0gHsN2221X72M8tWJGaKm/371797TPPvukc889N51//vnp4IMPLma0lhIzhGOt1PoElC1JvBd+8YtfFGscltK1a9fi/TrxsS+1puoEMXM2ZvROvA7t5EQYHu+Rv//973lPbXHc4j3/29/+tjh+66+/fp1rxsbM4JhNHGu8AtOZnz4wAAAAAKDV2HXXXf+3XtiErXfv3vnSKau5BuPss89eNdtss02yL9ZLW2WVVYr11pZbbrn/7e/Vq1e+l2r1XYPxhhtuqHW7Cdt6661X9cgjj+RrTur222+f7DqRE29T8vXXX9e53mK3bt2qTjnllKrvv/8+X7vae++9V/Xb3/62qn379iVvO/FWzhqMsf5k/L1St19ggQWqjj/++KoPP/wwX3tSzzzzTNV2221X8raxnt3AgQPzNetWag3GJZZYota+Ll26VK2//vpVG220UdU888zzv/0XXnhhvqfxLrjggkluN2GLdRWff/75OtfW+/TTT4v18uLvlLr9WWedla/ZeEqtwVhzi3VC49wotd5lPLdYc7J79+4lbxvrC068dmhdSt22JazBGGu01rxNbPHZEedZXcf+s88+K94rsQZiqduffvrp+ZqTd/TRR5e8fXymxWsf63qOGTMmX7tavEZx3sb7rdTt11577ZK3A1ouMxgBAAAAYCrEmn8Tz6qK1oKx7tnQoUOL9pTR1jFap55xxhnpoIMOyteaOnF/NVtqhljb8aKLLipaSkaLxVKi7WG0y+zXr1/eU38x67DUeovR2vPNN98sWrd26dIl7622wAILpAsvvLBYYy9mWU6teM2/+OKLXFWLNehi9tyf//znNO+88+a9k4rWmzFz8pJLLkkdOnTIe8eLmYT77bdfGjVqVN5Tvtdffz2PUpplllmK+49ZeIMGDSpaV8b6inEcDjjggGJ258TOOeecPKoWa/HFmnjR8rKuNTznnHPOdOihhxbHf9ZZZ817qzVE29epNd988xXPO86Nmq93iOcWbWXjOrFeY03RjjdmPE6vSh37mC0Ya2qutNJKdR77OeaYo5gBGjN5Y5ZjTeUc+3g/nnzyybmqFsfpmmuuKR5DzIhu27ZtvqRazFSO90oct1g3tKbHH388XXDBBbkCpgcCRgAAAABoIMcff3zRLrVmaBahymGHHVa08GwIp59+esl2l2eddVbad999c1W3CCn69OmTjj322LynchEgXnvttbmqFiFIBBGlQo6aoh3mwIEDi3CkviJ0GzBgQK6qRbgYl80888x5z+RFy8mrrroqV9Vee+21kqFPuSKciUAx7n/isDWOQbxW0Ro0AsgJYu3FaDs7sbhdHPO6wqWaYg3JI444IlfVIkCalusYxrGIY7XooovmPXWLdr5x3bnmmivvqXbaaafVK/Rt7mK9w5deeilX43Xu3DmdeeaZZR/7OKeidXJNcdzj+E/OIYccUqzrOrEIE/v371+0WS5HvJfj/V/qBw7xeRM/yACmDwJGAAAAAGgAPXv2TEcffXSuGs+3335bzIarKdanixlMlejbt2+xPlp9ROgW68VNrH379kUYMXFgNiVLLrlkuvTSS3NVuQhKa5p77rnTzTffXHKG3OT07t27CAJrOumkk+odaB1zzDHFuVGu//znP3lUbZFFFknzzDNPrsoT50K3bt1yVe2xxx7Lo6YXQVmPHj1yNWUx0zVC85piBu8tt9ySq+lHqfB3wQUXrHP2bV1ipnSp0H5yxz7WkH3ooYdyVS3eX1tvvXWuytOxY8d0/fXX1wr3Y6b39Dz7FFobASMAAAAANID4Ur9U68CGdsMNN6Tvv/8+V+PNMMMM6cQTT8xV+WJWVIRnlRo5cmTJ2Yt77713WmKJJXJVvggw1lprrVyVL2b6lZqV9dvf/jbNNNNMuapMqTa2EYxEAFOpdu3apd/97ne5Ks/o0aPzqFrMaqw04IxZj9Gycv/99y/a8952221FgLX77rvnazStxRZbLO2xxx65Kl+0B11qqaVyVe3KK6/Mo+lHtOSt6eOPPy7eb5WY0K40jn3MfL311luLY1+qrfIE8blSUwSF0X64PiIc3nbbbXNVLX6AAEwfBIwAAAAAMJUi4Ntiiy1y1bjuuOOOPKoW7Qij3Wh9rLHGGkVLzUrETKhSax6W0561LrEWYaVuuummPKoWsygjXKmv5ZdfvuRreeONN+ZR+SI0LTWLcHJi9mVN8VrXp53tCSeckP7+978X7Xlj7bzllluuCJ+mhQhaI3CtVLy3aq5RGaK1bqlAriUrdey//vrrkrN0pyTWWI1j/4c//KEI8Cd37ON1jBCyppjRG+t61lfcvqZXXnmlVhtYoGUSMAIAAADAVIo2n7FmXFMYOnRoHlXbeOON86h+NtpoozwqT6nHEM8/1n+rr0ofQ7jzzjvzqFoEvZW2lKxp++23z6Nq9ZnBuPbaa+dR+VZeeeWS61eecsopac899yzWhGyJ6nN8J/jZz36WR9ViVt/LL7+cq+nDCiusUDKQjlmIMfN02LBheU/DevLJJ0uujbjPPvvkUf3EOqil2iXX570END8CRgAAAACYShEwNoVol/jhhx/mqtrUBoyV3r5UwBhrOUbL1fqab7750tJLL52r8kSL1JpiptbUKnUfse7fjz/+mKvy1Oe8iDa7v/jFL3I1qX/84x9Fu9AIco888sj0wAMPVNw+c1qI8DlmhtbXmmuuWXL23bPPPptH04eYrfnLX/4yV5O66qqrivfHiiuuWBz7COlGjBiRL506pd5HYWrfSzGbuFTL5Ndffz2PgJasTdVP8hgAAAAApnu77bZbuvrqq3M1XrTyK7UGWSkLLbRQGj58eK7GizaEMcuoPlZbbbX09NNP52q84447LvXt2zdX1e6666605ZZb5qpaBA2xXlp9ffPNN2nWWWfNVbW6vjqM4KxmSHDyySenI444Ilf1E2vEXXHFFbka7+yzz04HH3xwrqrFjKs55pgjV9WiFeg666yTq/p566230kUXXZSrai+88ELJoOy5554rZh7W9PDDD6f11lsvV+WLvx9/54cffsh76ta5c+e0/vrrp80337yYvVmfNTAbUrTarLn23jbbbJNuueWWXNVPhIwx025icV7E+VFKqbA72gvXFd5OTry/4nWuKUK+yYXzhx56aK3H9/Of/zzdd999uartnXfeKY79d999l/fUbeJjH1t9f+hw1FFHFe/fiUXQXZ91XWuK93PNAHPTTTdNAwYMyBXQUgkYAQAAAGhVGiNgPOOMM4p17uqjkoDx3HPPTQcddFCuxot17UaPHp2r+omvCCNQqPlVYV1fHcZ1x40bl6vxzjvvvHTggQfmqn4OOeSQdM455+RqvLoCxgibInRqShGSRVhWU10B45tvvpkWXXTRXFUm1nzcddddK56huPjiixdhU4R80Vp0amaV1kepgDHWX4xzd2pEu82arTVjbcFSaweGlhowhptvvjn9+te/rvjYL7bYYsWxj3M0ZhTHjMhy/OpXvyq5nmljicf5xhtv5ApoqbRIBQAAAICp1KFDhzxqXKVadHbp0iWP6i/CmFItKEsZNWpUrXAxNMTjqOQ+vvzyyzxqOuXMKJzY1JwXEfpEgDX33HPnPeWJ4CbCvFjzcOGFF05HH310eu+99/Kl00apcK5Spc6NSlvWthTbbbddGjhwYJpnnnnynvJEoB1Bf4SY8UOImJlY88cQpTT1e6nS9xHQPAkYAQAAAGAqlTtTaGqNGTMmjxpezIQsR3N4DGFqZ23WR6V/c2rPi3XXXbcIDE877bRiZmKlIlw66aSTitvGLNtppSECxlLnRmOei9Pa2muvXRz7OG71aXv7/vvvF21P47annnpq3ltaU7+XpsV7F2h4AkYAAAAAaCHat2+fR9UaahZXufdT6jGEhngclcxsqiu8W3DBBdMiiyzSKNtMM82U/0rTib95+OGHp9dee61orRnrVMZzrETMOo37iLabpWafNraGCAKjTWlN5c66balmnHHGovXysGHDitmse++9dzEzsRJx7GNt1GgDPXbs2Lx3UqXeS/G3S70HGmKr9DkAzZOAEQAAAABaiLnmmiuPqsVsoKkNcCq5jwgYZ5tttlxVa4iAsZL7qCtcuueee9Jbb73VKNv222+f/0rTiza20frysssuS++++256/fXX0wUXXFA8pm7duuVrTd7111+fTjjhhFw1ncY6NyIEq0Rda4pOybSecRfHPtZ6vPTSS9M777xTzGy88MIL0w477FD2se/fv386/vjjczWpUu+lDTbYoOR7oCG2mmvOAi2TgBEAAAAAWogll1wyjyb16quv5lH9RGBRiVItG1955ZU8qr9KHkdds/g+/vjjPJq+RdvT/fbbL910003ps88+S08++WTq169fWm+99VLbtm3ztWqLgPG///1vrprGt99+m0f1V+q4LrfccnlUnvoG8SNHjsyj5mGxxRZLv/3tb9ONN95YHPunnnoq/fWvf53isY+WqZ9++mmuqpV6L7WW9xFQfwJGAAAAAGghllpqqTya1EMPPZRH9fPggw/mUXlKPY6pfQwxS+yxxx7L1ZRFq8VS7VqjlWhrEy0uV1999dSnT5/08MMPF69BBFAx862mCMvuvffeXDWNIUOG5FH9fP755yVD9NVWWy2PaivV9rO+AePbb7+dR81PPM94HY455pji2MfM1v3337/k8492qQMGDMhVtVI/XIiZhg3R2haYfgkYAQAAAKCFiHaIyy67bK6qDRo0KI/qp9JwMGZK1fTmm2+mDz74IFeVi1lY33//fa6mrF27dkXIWNPNN9+cR9OH+rT1XHTRRYsWmuecc07eM6kHHnggj5rGf/7zn/TVV1/lqnKPPPJIydehZ8+eeVRbnB811Tcwq3SGb0Opz7GP98Tf//73dO655+Y9kyp17EsFjHG8Kv3hAdC6CBgBAAAAoAXZbrvt8qjawIEDKwrnJvbDDz9UHDhts802JWdI3X777XlUuTvuuCOPyhfrxNUUr8XUtgA9/fTT00ILLZR+9rOfpb322qtoP3nttdcWr1Vjivu/9dZb04knnph23XXXIkCbeeaZ6z2D7oADDijCxppKtclsTOPGjatodmpNMTOvpmjrWWpN0glKzW6t7/NuiPa/UxJrTMaxP+mkk9Juu+32v2Nf33AzZrCWamUcLVVrWnvttUsGstGCdWpEoBvh5QorrFB8Zhx66KFF8PnEE0/kawAtmYARAAAAgFalVDBWn5lC08oOO+yQR9W++OKLdN555+WqMvGFf9y+EnPOOWfJcO+UU04p2jBWKkKP888/P1fl6927dx5Vi1DjyiuvzFXl4vYx+2/48OHFzNArrrgi/fnPf06/+93vUocOHfK1Gkf87e23375od3nNNdekoUOHFsFxzOCrj1iPr1TIVCpMamz1PSbfffdduvrqq3NVbdttt82j0maaaaY8qhZtP+tjaoLzco0dO7Z4bx999NHF822sY19qjcbZZ589/fznP89VtVjfc2pmnt5yyy1Fy9aYwXrbbbels88+Ox100EHpnnvuydcAWjIBIwAAAACtSqkv2EeMGJFHzd+KK66YNttss1xVO/nkk4s2pZWI2VExY6o+/vSnP+VRtXfffbeY7VepmNkUQVKlYobh3HPPnatqf/nLX9LHH3+cq8rE7MFSr+MvfvGLRg/mZplllrTccsvlqloEtzELsD7ef//9PKq28MIL51HTibAqgqZKRZvXUjNS99133zwqrdRzvP/++/OofBGGPf/887lqPBGILr/88rmqduqppxbhY31Ucux32mmnPKr25ZdfFoFnfXz99dfpsMMOy9WkphQOAy2DgBEAAACAVqVLly55VO2TTz7Jo5ahVIgXM4023XTT9N577+U9kxfX22KLLYogoD569eqV1l133VxV69evX7EGXDli5mgEGNF+tD4iLD7yyCNzVe2bb75JO++8c8XBcQRJpV7bCBb/8Ic/5KpxxQzGml5++eV03XXX5ap8d911V3rppZdyVS3aVTa1ONbR9vXbb7/Ne6Zs8ODB6fjjj89VtS233LLkWqQTi7acNcXreOmll+ZqyoYNG5b+7//+L1eNr9Sxf/XVV0vO4JySAQMGpBdeeCFX1eo69hEwLrbYYrmqFrN5+/fvn6vyRbhYKuCMz434kQTQ8gkYAQAAAGhV5p9//jyqFu0Io5VfSxHrs0VYU1O0gIz11KKtZ12znmImXMwmW2WVVab6OZ9xxhklZ/VFO9F99tmnaDNal3feeacIO+o7g3KC+Fs9evTIVbWHHnqomOlZboAaYcxWW22VRo8enfdU++Mf/5hWWmmlXDWuQw45JHXt2jVX1fbff/+K1sqM1z7aUdY0zzzzlAyGm0IEuL/85S/LWi802tPGdWu23I1QOWaoTkmEkKUcfvjhxft9SmKdwAjsp3Y9z0rE8erWrVuuqsU5ft999+VqyiLY+/3vf5+ratHaeP3118/VpDp27FjMFq0pguFddtml+EwpR1z/2GOPTZdffnneUy1maV500UW5Alo6ASMAAAAArUqpgDHWvotgrk+fPuniiy8u1gOMdfea89qMsebi4osvnqtqES7stddeaZlllilm9914441Fm8eYhRSzwRZZZJH0q1/9Kn3++ef5FvW3+uqrlwx74nWLmWKxBlzMALvggguKxxDrsEXwEDMnY7ZUOWvbtWnTJo9Ki4AzQotS6yM+/PDDxWsU7VzffvvtvHdSH330UdFedo011igZiC611FLpuOOOy1Xjm3XWWYuWsTVFC9kITOOYlpqVOEG0tbzqqquKELpUq9eYYVpqHdKmEsFhvKaXXHJJyRA8zsuY1RprApYK904//fS06qqr5qpu0dJ2gQUWyFW1CJzXWWed4v39yiuv5L3j/fjjj8V5GoFaXGfi8yGC2cYWLXJLzZSNQHbzzTcvzuMXX3wx760tZjHHbMd4fUr9eCDe/5Nr8xuhbF3rmsZnSgTTMZO21Dqr8cOFxx57LG288cbFOVZK/JhgwQUXzBXQ0rX56T/2LWcFawAAAACYSkOGDCmCsXJEwNC9e/dcjbfQQgvVCqIikDzggANyVZnVVlstPf3007kaLwKtvn375qpuEZBsuOGGU9XiNWYuRQh42WWX5T3jxUyxCBamJL5e3GOPPYpQa2pES9MIdyIgm9i5555bzOCakuuvv754HnWtVRihWrxWsQbdzDPPnEaOHJmeeeaZ9NRTT9UZJLdv3z4NHDhwijP+nnvuubTyyivnqtoHH3yQ5ptvvlyVL4KumGlW87yYWDyPDTbYoAil4ljFbeJxxG3qmr0aIdWdd945xdB2atx6660l19iLv1nzdY71MyPYj/dUhFYxizQef12tbWPdxUpmwEUIX2om38Qi8JpjjjmKvx+hXJwXNcXrHOt91gzTY03HCNTqEkHx2WefnavxIjid3GzEeO7xt5588sm8p7Z4vSYc+wgM49jH7ND4bKvr2G+yySZF29QpHfv4+xFkRzhfl7nmmqt4HjHTNt4jEQrHc/r000/zNWqLxxvvpWkZbgMNLAJGAAAAAGgtxo0bV7XMMstE0jHF7d577823qrbgggvWut7555+fL61cz549a93fcccdly+dsuHDh1etssoqte6jnG2eeeapeuSRR6quuOKKWpd17Ngx/4Xy9OvXr6pNmza17qec7ZBDDqkaPXp01ayzzlrrsgsvvDD/hSm77rrrqrp06VLrPuqzzTbbbFUPPvhgvufJe/bZZ0vexwcffJCvUbkPP/ywarHFFit5v/XZttxyy6qvv/4633vjueWWW2r97fbt21eddNJJtfZXsm2xxRZVo0aNyn+lPGPHjq365S9/WfL+yt023njjqm+//bbq+OOPr3XZ/fffn/9SaXFe17zNz3/+83xp3T7++OOqJZZYotZt67ttvvnmVV999VW+9yn77rvvqnr16lXyvuqzbb311lXff/99vndgeuHnAgAAAAC0KjGD59prry1m/0zJq6++mkfNV8ywfPTRR9MxxxxTcu2+UuI1iPUPYwZfzM4rNespZiZVItrLxgypaDVarpiJdcMNN6SzzjqrmIlV6nFMrqVjTTELMmZyTe0ag9EeM2aDxUyyaWXeeectZrFFq8+pETPGoq1qtKMt55xvLPEYYpZrp06d8p7yzDjjjMX58e9//7viczKe+80331ysuzilmXulRLvQmPEZawc2pZjZGWtAxpqgUyOef6wfGq9dtN4tV7zmd999d9HaeGqee+fOndMJJ5xQHIMuXbrkvcD0QsAIAAAAQKsT7SwfeeSRtN566+U9pbWEgDHEF/l//etfi9atf/vb39J2221Xa62zaKO50korFa1c//Of/6RbbrmlCLFCqVao9QkWog1jBCMPPfRQ2n///Yv2rzXXRoy17Lbeeut05ZVXpjfeeGOSNd8a4nHEmouxzt9NN92UevXqVXZLxggyI1CMYCUC21gjclqbffbZ0x133JEefPDBom1lJQFbtIHdb7/9inM41r5rDq0pd91116IFapwnUzLbbLOlffbZJ7322mvpkEMOqVdAGOK4nnbaacX7PcLacl6HCMnjNY/wO1oITwvdunUr1iyNcznO41JrjNYljn20k3355ZfTqaeeWu9jP+H8OfbYY2u1ip6caKEa7WHfeuutYj3N5nDuAQ3PGowAAAAAtGpvvvlmGjp0aLGeYaxlFiFOzPTq0aNH6tmzZ5pzzjnzNceLdfVqBmERBNV3ps/HH39ca923mIlYyYyjunzzzTfpu+++K8YR2EQQWUqptepiFl8EbVNr9OjR6Ysvvij+N/5+vFalxNeUEaLUfG1jJmEch/p6//330+OPP55eeumlYvvss8/+91hiplbMooz15GJ9xvrO8Iv7+/DDD3NVbYEFFiiC3Ybyww8/FAFuhE6xXmHUcc7GzM8IwuK5RHi+yiqrpFVXXbXO492YSq3BGO+pWONwYhF+xZp8cWziGMXamfEeihB8yy23LNZmbMjXboL33nuvCMBj7c14DPH6xXkXa2XGzNfYVlhhhXztal9//XX66quvcjVezDSc3IzMWE803oMTi2MSAVyl4nEOHjy4WBsxZunWPPbxg4I47nH849g39IzBOD7x9+Nvx/so1quMxxDBb7yPItSMtW033XTT4vWrbyAMtBwCRgAAAABo5f70pz8Vs7wmtscee6QrrrgiV40vArr5558/V9Ui1GmIsJWmUW7ACEDLZm4yAAAAALQgMYMyZhCNGDEi75l60aq0piWWWCKPSov1AT/99NNcTb1SjyFmjwoXAaD5ETACAAAAQAty1113Fe1bowVitEXcaKONijX26itakkbLyJqmFDDG340WkREARmvGHXfcsVgDsr7uu+++PKo2pccAAEwbAkYAAAAAaEFirbgQKx/FenIPPvhgOv300+vdgvKiiy4q1oqrafnll8+j0iY8jlhj7tlnn0033nhjyZCwHLFG4yWXXJKralN6DADAtCFgBAAAAIAWpFToFgHdpZdemqvyvfPOO+nII4/MVbU111wzLb300rkqrdTjiKBz7NixuSrfQQcdlD755JNcVdtzzz3zCABoTgSMAAAAANCCRFvUpZZaKlfV/vKXv6SXX345V1MWsx+32mqr9N133+U91Q4//PA8qtsmm2ySR9VeffXV4nGUK2ZhxvWvvfbavKfauuuum9ZYY41cAQDNiYARAAAAAFqYmPFX06effppWW221dPzxx6eXXnop760tLjv11FOLGYj/+c9/8t5q6623Xtp+++1zVbfddtstzTbbbLmq1q9fvyJ8vPvuu9MPP/yQ907qq6++SrfddlvaYIMNUt++ffPeau3atUunnXZargCA5qZNVfxMCAAAAABoMWK9xZ/97Gdp8ODBeU9t888/f1pllVXSjDPOWLQt/f7779PTTz9dBJF1WWmlldLAgQNLBoelXH311UXQWJeOHTsWsxDnmmuu1L59+zRixIiiLevzzz+fxo0bl681qbZt26brr78+/epXv8p7aEluvfXWtO222+ZqvDj29V0jFIDmScAIAAAAAC3Qxx9/XMwAfO211/KeqbPCCisU4eLss8+e95Tn2GOPLWYtNoQIFyO03HnnnfMeWhoBI0DroEUqAAAAALRA88wzTxoyZEjafffdU5s2bfLeys0wwwzpwAMPTA8//HDF4WKIlqw33XRTMUtxavTo0SM99NBDwkUAaAEEjAAAAADQQs0yyyzpH//4R3rhhRfSLrvsUtTl6tq1axFOvvjii+m8885Ls846a76kcrFm49tvv53OOuustNRSS+W9UxYzFnv27FnMWnz22WfTuuuumy8BAJozLVIBAAAAYDoRay0OHTq0mAn43HPPFesu/vDDD8VlnTt3LmY9rrnmmmmttdZKSy+99FTNfJycDz/8sHgMjzzySLHmYzyGaJEZazLONNNMacUVVywew+qrr17UTD9GjhyZvvrqq1yNF+fZ1M5wBaB5ETACAAAAAAAAZdMiFQAAAAAAACibgBEAAAAAAAAom4ARAAAAAAAAKJuAEQAAAAAAACibgBEAAAAAAAAom4ARAAAAAAAAKJuAEQAAAAAAACibgBEAAAAAAAAom4ARAAAAAAAAKJuAEQAAAAAAACibgBEAAAAAAAAom4ARAAAAAAAAKJuAEQAAAAAAACibgBEAAAAAAAAom4ARAAAAAAAAKJuAEQAAAAAAACibgBEAAAAAAAAom4ARAAAAAAAAKJuAEQAAAAAAACibgBEAAAAAAAAom4ARAAAAAAAAKJuAEQAAAAAAACibgBEAAAAAAAAom4ARAAAAAAAAKJuAEQAAAAAAACibgBEAAAAAAAAom4ARAAAAAAAAKJuAEQAAAAAAACibgBEAAAAAAAAom4ARAAAAAAAAKFubqp/kMQAAAADQwi211FJp9OjRuQJaokMOOSQddNBBuQJofgSMk/H555+nt956K1cpLbzwwmmuuebKVcN67rnn0qhRo4pxhw4d0korrVSMAQAAAKAS7du3T2PGjMkV0BL17ds3HXfccbkCaH5abMD48MMPp0GDBuWq2m9+85s077zz5qr+4ldea6+9dnr66aeLunPnzmnYsGGpe/fuRd3QDj300HT22WfnKqUbb7wx7bDDDrkCAAAAgPIIGKHlEzACzV2LXYPxgQceSMcee2yt7f3338/XmDrx4T0hXAx/+MMfKg4XH3vssTyasvh7c8wxR65S2nfffRvsuQAAAAAAAEBDabEBY2OKmZGnnHJKrlIxI/LII4/M1ZS98soraeONN04HHnhg3jNlXbt2Tccff3yuUvryyy/TbrvtlsaNG5f3AAAAAAAAwLQnYKzh+++/rxXs/fWvf00zzjhjruoWtz3iiCPSiiuumAYOHJj3li9mLfbo0SNXKT344IPpb3/7W64AAAAAAABg2hMw1nDGGWek4cOH5yqllVdeOe2xxx65qlu0Q1166aXTqaeeWqzfWB9t27ZNZ511Vq7G+8tf/pK++OKLXAEAAAAAAMC0JWCcyCeffJJOO+20XI0XrVJnmGHKL9NDDz3UIGsm/vznP0+bb755rlL66quvihmUAAAAAAAA0BwIGCfSt2/f9N133+UqpbXWWittsskmuWo6xx57bB6Nd/7556e33347VwAAAAAAADDttKn6SR63KMcdd1w6/vjjc1XtqaeeSquttlquyvfqq6+m5ZdfPo0ZMybvSemuu+6aZDbh5JxwwgmpT58+uRov1mJ87rnnclWZmMn4wAMP5CqlnXbaKV1//fW5AgAAAIDS2rdvP8l3XKW0a9cuzT777LkCmsqoUaPSl19+mau6xWSY+A4coLkSMGbbbLNNuu2223KV0iqrrJKGDh2aqylr6IDxwQcfTBtttFGufjpQbdqkJ598sl7PDQAAAIDWo5yAsWfPnmnIkCG5AprKgAEDUq9evXJVNwEj0NxpkfqTRx55ZJJwMRx88MF5NG1suOGGadlll81VSpED//GPf8wVAAAAAAAATBsCxp/UDO7mmGOO1Lt371xNO7/97W/zaLxBgwalO+64I1cAAAAAAADQ9Fp9wPjoo48WrUcntt1226WOHTvmatrZcccd0wwzTHqIzjjjjDwCAAAAAACAptfqA8bLLrssj6r96le/yqO6PfTQQ2mXXXb533bjjTfmS6oNHz58kutM2L766qt8jcmbZ5550jrrrJOr8WIW4xtvvJErAAAAAAAAaFqtOmD89ttvawWDc845Z7H+4ZREyHfdddf9b3v++efzJdW+/PLLSa4zYfvhhx/yNaasVNh5xRVX5BEAAAAAAAA0rVYdMPbv3z99//33uRpv2223TW3bts3VtLf99tunNm3a5Gq8f/zjH2ncuHG5AgAAAAAAgKbT6gPGmjbddNM8ah7mm2++tNxyy+VqvA8//DA9/vjjuQIAAAAAAICm02oDxlgH8cEHH8xVtfXXXz+PJm/NNddMZ5xxxv+2zTffPF9SLcLBia8zYZt11lnzNcpT6jHdfPPNeQQAAAAAAABNp9UGjP/+97/T6NGjczXe4osvXqzBWI4ePXqkww477H/bOuusky+pFvc18XUmbDPOOGO+RnlK3beAEQAAAAAAgGmh1QaMgwcPzqNqa6yxRh41L6uvvnoeVXv33XfTRx99lCsAAAAAAABoGq02YHzxxRfzqNpqq62WR81LzKzs1q1brqqVeg4AAAAAAADQmFptwPjSSy/lUbUI8pqrUo9NwAgAAAAAAEBTa5UBY7QW/e9//5urat27d8+j5qfUYxMwAgAAAAAA0NRaZcBYVzC34IIL5lHzU+qxlZqFCQAAAAAAAI1JwJjNNNNMqWvXrrlqfkrNYHz55ZdTVVVVrgAAAAAAAKDxtcqAcdiwYXlUrTm3Rw2lZjB+++236cMPP8wVAAAAAAAANL5WGTB+9913eVRtrrnmyqPmae65586jSZV6LgAAAAAAANBYWmXAOHLkyDyq1qFDhzxqntq3b59Hkyr1XAAAAAAAAKCxCBizugK85qKuAHTEiBF5BAAAAAAAAI2vVQaM48aNy6NqpfY1J3U9vqqqqjwCAAAAAACAxtcqA8ZSsxVHjRqVR81TXY+vXbt2eQQAAAAAAACNr1UGjLPOOmseVWvuaxnW9fi6du2aRwAAAAAAAND4WmXAOO+88+ZRtR9++CGPmqe6Hl+p5wIAAAAAAACNRcCYvfXWW3nUPL3xxht5VG2WWWZJXbp0yRUAAAAAAAA0vlYZMM4///x5VO3rr79OH330Ua6an1dffTWPqpm9CAAAAAAAQFNrlQFjjx498mhSpUK8crVp0yaPGkepx7b88svnEQAAAAAAADSNVhkwLrnkkqlr1665qjY1AeMMM9R+KUePHp1HU6/UY1tjjTXyCAAAAAAAAJpGqwwYY7bh6quvnqtqUxMwtm/fPo+q/fDDD3k0db755puS7VsFjAAAAAAAADS1VhkwhlLh3NQEjHPOOWceVXv33XfTJ598kqv6K/W42rVrl1ZdddVcAQAAAAAAQNNotQFjqRmML730Uh5VboEFFsijalVVVWmvvfZK77//ft6T0tdff53Gjh2bq/K8/PLLeVRtueWWS126dMkVAAAAAAAANI02VZGCtUDHHXdcOv7443NV7amnnkqrrbZarur2+eefp3nmmadW2PfCCy+k5ZdfPlfle/3114u1HevSuXPnInAcMWJEGjp0aFpllVXyJVO24447phtvvDFX4x1wwAHp/PPPzxUAAAAAjBdL+YwZMyZXpfXs2TMNGTIkV5Qrvt97/vnnc9V6zTzzzGmxxRbLFZUYMGBA6tWrV67q1rdv3+I7cIDmqtUGjGGzzTZL9957b67Gi/v885//nKvyxcu46KKLpnfeeSfvqdu1116bfv3rX+dq8kaOHFm0X/3222/znvEeeeSRtO666+YKAAAAAMYTMDaemDwQEwlauw033DANHDgwV1RCwAhML1pti9Sw22675VG1W2+9NY8q06ZNm3TCCSfkavIqWevxgQceqBUuRpApXAQAAAAAAGBaaNUB47bbbltM55/YM888k957771cVSZmJZ599tnFr8Qmp5KAsVTgueuuu+YRAAAAAAAANK0WGzCuueaa6fe//32tbe65587XmLIuXbqknXfeOVfVbrvttjyq3MEHH5xeeumldPjhh6f1118/zTbbbEXg2KlTpzT77LOnddZZp2hBUY5ou3rHHXfkary2bdumPfbYI1cAAAAAAADQtFrsGowNJcLAHj165Gq8jTfeON1///25mnYGDx6c1l577VyNt91226V//etfuQIAAACASVmDsfFYg3E8azDWnzUYgelFq26RGpZbbrm0ySab5Gq8QYMGpf/+97+5mnZuvvnmPKp2yCGH5BEAAAAAAAA0vVYfMIZDDz00j8aLX3idf/75uZo2vvvuu3TZZZflarxVVlklrbfeerkCAAAAAACAptfqW6ROsO6666bHHnssVynNMccc6d133y3WaZwWzjjjjGIdx4ndfffdZU2fBwAAAKD10iK18UypRepOO+2Utt9++1y1bMccc0x67bXXcjUpLVLrT4tUYHohYMyefvrptPrqq6eJX45zzjknHXTQQblqOqNGjUqLLrpo+uCDD/KelDbffPN011135QoAAAAAShMwNp4pBYz9+vVLffr0yVXLtvbaa6fBgwfnalICxvoTMALTCy1Ss/hH1a677pqr8WIW4ZT+MdYYrrnmmknCxXbt2qUzzzwzVwAAAAAAADDtCBgnctJJJ6UZZ5wxVykNHz48XX/99blqGuPGjUunnXZarsbbf//909JLL50rAAAAAAAAmHYEjBOZb7750pFHHpmr8U499dRJ2qY2tttuuy29+uqruUqpW7duxXR4AAAAAAAAaA4EjDUcfvjhacEFF8xVSi+++GK64447ctX4Tj755DwaL/psR8gIAAAAAAAAzYGAsYZOnTqlc889N1fj/fGPf0yjRo3KVeO59tpr01NPPZWrlFZeeeV0wAEH5AoAAAAAAACmPQFjCVtttVX6/e9/n6uUXnvttXTmmWfmqnF8++23RZA5wcwzz5z69++f2rVrl/cAAAAAAADAtCdgrMPpp5+eVl111Vyl9Ne//jW9//77uWp4sc7iRx99lKuULrnkkrT44ovnCgAAAAAAAJoHAWMdOnTokAYMGJCefvrpYhs0aFDq2LFjvrTh7b777v/7Wy+88ELq3bt3vgQAAAAAAACaDwHjZMw+++zFLMYJ25xzzpkvaXgrrLDC//7O8ssvn/cCAAAAAABA8yJgBAAAAAAAAMomYAQAAAAAAADKJmBsZsaNG5fOP//8NHz48LwHAAAAAAAAmg8BYzMzwwwzpC5duqRFFlkkbbXVVunuu+9OY8eOzZcCAAAAAADAtCVgbIZ23333tOqqq6Y77rgjbbHFFmnxxRdPJ598cvr000/zNQAAAAAAAGDaEDA2QzGL8W9/+1uuUnrnnXfSUUcdlRZYYIG08847p0GDBqWqqqp8KQAAAAAAADQdAWMzteaaa6Zdd901V+ONHj063XDDDelnP/tZWm655YoQ8quvvsqXAgAAAAAAQOMTMDZj0RZ1xhlnzNWkXnnllXTwwQen+eefP/3mN79JTz/9dL4EAAAAAAAAGo+AsRmbb7750jHHHJOr0n744Yd02WWXpdVWW63YYvz999/nSwEAAAAAAKBhCRibuUMPPTQtuuiiuZq8mMUYsxljVuNBBx2UXn755XwJAAAAAAAANAwBYzPXqVOndOaZZ+aqPF9//XU699xzi3UaN9hgg2LdxlGjRuVLAQAAAAAAoP4EjC3AVlttlTbZZJNcVebhhx9OO++8c+revXs66qij0ttvv50vAQAAAAAAgMoJGFuANm3apLPPPju1bds276ncp59+mk4++eS02GKLpS222CLdcccdaezYsflSAAAAAAAAKE+bqp/kcaN7880304cffpgrKvW3v/0t3XTTTbmaejGrcd9990177713mnfeefNeAAAAAFqy9u3bpzFjxuSqtJ49e6YhQ4bkinKNGDEide7cOVe19evXL/Xp0ydXLdvaa6+dBg8enKtJbbjhhmngwIG5ohIDBgxIvXr1ylXd+vbtm4477rhcATQ/TRowHnDAAemCCy7IFc1Fu3bt0jbbbJP233//4h8HMWMSAAAAgJZJwNh4BIzjCRjrT8AITC+0SKX4B2fMjNx4443T0ksvnc4666z0xRdf5EsBAAAAAACgmoCRSbz22mvpsMMOS/PPP3/aY4890pNPPpmacJIrAAAAAAAAzZyAkZKi3cOVV16Z1lxzzbTLLrukH374IV8CAAAAAABAayZgpKRYl3HHHXdMDz74YLr22mtTly5d8iUAAAAAAAC0ZgJGJrHgggumE044Ib333nvpn//8Z/rZz36W2rRpky8FAAAAAACgtRMwUgSIW265ZbrjjjvSW2+9lY4++ug0zzzz5EsBAAAAAACgWpuqn+Rxo3vllVfS8OHDc0WlLr300nTTTTflaurNNddc6Te/+U3aZ5990sILL5z3AgAAANCStW/fPo0ZMyZXpfXs2TMNGTIkV5RrxIgRqXPnzrmqrV+/fqlPnz65atnWXnvtNHjw4FxNasMNN0wDBw7MFZUYMGBA6tWrV67q1rdv33TcccflCqD5adKAkfp77bXXUo8ePdLo0aPznvqLtqf77bdf2nbbbVOHDh3yXgAAAACmBwLGxiNgHE/AWH8CRmB6oUVqC3HYYYdNVbg466yzpoMPPji9/PLL6cEHH0y9e/cWLgIAAAAAAFAxAWMLcPfdd6c777wzV5VZbbXV0uWXX54+/PDDdPbZZ6dlllkmXwIAAAAAAACVEzA2c6NGjUqHHHJIrsrTpUuXYm3Fp59+Oj311FNpzz33LPYBAAAAAADA1BIwNnPnnntusf5iOZZddtni+h988EG65JJL0qqrrpovAQAAAAAAgIYhYGzGPvnkk3T88cfnqrRYtHvnnXdOgwYNSi+++GL63e9+l7p27ZovBQAAAAAAgIYlYGzGjjnmmPTNN9/kalKLLLJIOvnkk9P777+frrvuurT++uunNm3a5EsBAAAAAACgcQgYm6mhQ4emyy+/PFfjzTDDDGmrrbZKd999d3rjjTfSEUcckeaaa658KQAAAAAAADQ+AWMzVFVVlQ466KDif8M888yT/vznP6e333473XbbbalXr15F2AgAAAAAAABNTUrVDF1//fXp8ccfTxtvvHG66aab0vDhw4u1GBdccMF8DQAAAAAAAJg2BIzNzLhx49Inn3yShg0blu6///60/fbbp/bt2+dLAQAAAAAAYNoSMDYz0fr00EMPTUsuuWTeAwAAAAAAAM2HgBEAAAAAAAAom4ARAAAAAAAAKJuAEQAAAAAAACibgBEAAAAAAAAom4ARAAAAAAAAKJuAEQAAAAAAACibgBEAAAAAAAAom4ARAAAAAAAAKFubqp/kMUCL8eabb6Znn302vf/+++m///1vGjduXOrSpUuad95505JLLplWXXXV1Llz53xtAMo1evTo4vP1lVdeSR999FH67rvvUps2bVLXrl3T/PPPn1ZYYYW0zDLLFPsAmDrxf8dffvnl9MILL6QPPvggff3118W+mWeeufh3bXzerrTSSql9+/b5FgDlic+NMWPG5Kq0nj17piFDhuSKco0YMWKy3zf069cv9enTJ1ct29prr50GDx6cq0ltuOGGaeDAgbmiEgMGDEi9evXKVd369u2bjjvuuFwBND8CRqDFeOCBB9LFF1+cHnroofTpp5/mvaW1a9curbjiimnHHXdMv/nNb1K3bt3yJQDU9P3336err746XXPNNWno0KHFlyaTM+uss6Z11lmn+HzdaqutUtu2bfMlAEzJ2LFj06233pouu+yy9Pjjjxeh4uR06tSpCAH+7//+L+26667Fj+oApkTA2HgEjOMJGOtPwAhML7RIBZq1+D9EF154YVpuueXSz3/+89S/f/8phoshbhdfkh9xxBFpgQUWSHvvvXcaNmxYvhSAELNlDj300GJm4v77758ee+yxKYaLIb4Mv+uuu9J2222XFl100XTyyScXISUAdYsZ4SeeeGJaZJFF0g477JDuvvvuKYaLIT6XH3300bTffvsVn9eHHXZY+vDDD/OlAAAA04aAEWi2XnrppbTmmmsWX3pH66j6+vHHH9Pll19etJc6/fTTi3aqAK3dlVdemXr06JHOPvvssr7grsvw4cPTUUcdVcwajy/AAaht0KBBRYvpY445Jr333nt5b+W++uqrdNZZZxWf3zHrHAAAYFoRMALN0mmnnVasoxizEBtK/Pr7j3/8Y1p//fXT22+/nfcCtC6ff/552nrrrdMee+xRfFHdUGJt3A022CD94Q9/KNZxBGD8uraHHHJI0UauIf/9+eWXXxbtUrfddttiPXIAAICmJmAEmp34EuZPf/pTGjlyZN7TsKIF4HrrrZfeeOONvAegdfjss8/SRhttlG6//fa8p2HFDPEzzzwz7bTTTkJGoNWLz8FohXrOOeekqqqqvLdhxVqO8bkuZAQAAJqagBFoViJcjC9hGlusO/azn/1MyAi0GhEubrzxxuk///lP3tN4br75ZiEj0KpNCBcb6wcdE3vhhReEjAAAQJMTMALNRr9+/ZokXJwgQsZoV+XLGGB6N2rUqNSrV68mCRcniJBxn332yRVA67LXXns1Sbg4QYSMm222mR92AAAATUbACDQLsdbi8ccfn6um8/7776ff/e53uQKYPv3lL39JzzzzTK6azpVXXpluueWWXAG0DjfddFO65pprctV0ptW/pwEAgNZJwAhMc7HW4u67757GjBmT9zStG264If3rX//KFcD0ZciQIemUU07JVdPbb7/90ueff54rgOnbp59+mvbff/9cNb2TTz45Pf3007kCAABoPAJGYJo788wz00svvZSraeOAAw5IP/74Y64Aph/77rtvGjt2bK6aXnzZfuSRR+YKYPp2xBFHTNMfVcQP9rSnBgAAmoKAEZim4kuQ8847L1fTTnwBfv311+cKYPrw4IMPpueeey5X0861115rFiMw3Yt/T1533XW5mnbic3/QoEG5AgAAaBwCRmCauvnmm9OHH36Yq2mrOQSdAA2puXyujRgxIl166aW5Apg+XXzxxWnUqFG5mrb8uxYAAGhsAkZgmrrgggvyaNp79tln0xNPPJErgJYtfrxx22235Wrai8/7qqqqXAFMX+Lz7aKLLsrVtHfrrbemjz76KFcAAAANr81P/0eoyb7p+fe//52efPLJXAGt3ejRo9Npp52Wxo0bl/dMextssEFab731cgXQcr344ovFF8zNyf77759mn332XAFMP6IN9IUXXpir5mGbbbZJPXr0yBXQ2px44olT/P/aPXv2TEOGDMkV5YruHJ07d85Vbf369Ut9+vTJVcu29tprp8GDB+dqUhtuuGEaOHBgrqjEgAEDUq9evXI1edPLuQRMO/HfpcbSpAHjAQcc0KxmKwEAAABAayRgrB8B43gCxvqrJGAEmFqNGQFqkQoAAAAAAACUTcAIAAAAAAAAlE3ACAAAAAAAAJRNwAgAAAAAAACUTcAIAAAAAAAAlE3ACAAAAAAAAJRNwAgAAAAAAACUTcAIAAAAAAAAlK1N1U/yuNENGzYsvf/++7kCWrtx48alrbfeOv344495z7R34IEHpm233TZXAC3X4MGD05///OdcNQ/9+/dP3bp1yxXA9OOzzz5LO++8c66ahxNOOCGtscYauQJam8022yyNHTs2V6X17NkzDRkyJFeUa8SIEalz5865qq1fv36pT58+uWrZ1l577eL/V5Sy4YYbpoEDB+aKSgwYMCD16tUrV3Vbb7310nHHHZcrgPrZeOON86jhNWnACFDTr3/963T99dfnatqaYYYZ0uuvv54WXXTRvAeg5fruu+/S/PPPn7755pu8Z9paffXV05NPPpkrgOlPfFE/dOjQXE1bs846a/rggw/SjDPOmPcArU379u3TmDFjclWagLF+BIzjCRjrr9yAsW/fvgJGoFnTIhWYpmLGYHOxxRZbCBeB6cZMM82Udt9991xNe7/73e/yCGD61Jz+XbvHHnsIFwEAgEYlYASmqXXWWSetvPLKuZq2fPkNTG/ic61Nmza5mnbmmmuutOOOO+YKYPoULVJnn332XE078bnfnMJOAABg+iRgBKa5I444Io+mnQg5N91001wBTB+WXHLJZrGu7MEHH5w6duyYK4DpU6dOnYrPu2ltu+22S0sssUSuAAAAGoeAEZjmevfunbbZZptcNb0OHTqkf/zjH81ilg9AQzv//PNTt27dctX0VllllfSnP/0pVwDTtyOPPDKtuOKKuWp6MYMyPvcBAAAam4ARaBYuuuiiNMccc+SqacWC2SussEKuAKYv88wzTzrvvPNy1bRi1uJVV12V2rVrl/cATN/at2+frrzyyuJ/p4UIF+eee+5cAQAANB4BI9AsxPpcV1xxRZN/Cb3xxhs3ixatAI0p1gXbc889c9V0zjzzzLTccsvlCqB1iBmMp59+eq6azl577VV0BgEAAGgKAkag2fjFL36RbrjhhiYLGTfaaKN0++23p7Zt2+Y9ANOvSy+9NO2yyy65anxnnHFGOuCAA3IF0LocdNBB6ZRTTslV49t1113TJZdckisAAIDGJ2AEmpXtt9++SULGDTfcMN1xxx2pS5cueQ/A9G2GGWYo2pU2RcgY4eJhhx2WK4DWKdafPfXUU3PVeCJcjPXE43MeAACgqfh/IECzEyHjI488kpZaaqm8p+HEbMWjjjoq3XPPPcJFoNWJL5+vvvrqdNZZZ6XOnTvnvQ1n3nnnLWaGCxcBxvvjH/+YbrvttkZZFzH+LXvOOecUaz4KFwEAgKbm/4UAzdKaa66Znn322XTooYc22BcmyyyzTHr88cfTiSeemDp06JD3ArQubdq0SYccckh67rnn0lprrZX3Tr1f//rX6cUXX0y//OUv8x4AwlZbbZVeeumltNNOO+U9U2/ttdcuPsejFWt8rgMAADQ1ASPQbMXsmjPPPLP4QubAAw9MM888c76kMvEF+rXXXlt8CbP66qvnvQCt25JLLpkeffTRYsbhpptuWq8vqDt27Fi05nvyySeLz9lu3brlSwCY2Oyzz56uv/769MQTTxStquvzY7f4nO7Vq1fR5j+6fSyxxBL5EgAAgKYnYASavaWXXjqdd9556YMPPkgXXnhhWnDBBfMlk7f//vunp59+upi1GDNrzFoEmFTMEI8ZhwMGDEivvvpqOvbYY9MCi/dM7TvW3UK680zd0rKrbFiss/jee+8V6zr68QZAedZYY410zTXXFJ+fp59+euratWu+pG7xWX3cccelYcOGpbvvvjv94he/0BIVAACY5tpU/SSPAVqE3r17p/79++eqbsOHD0/du3fPFQDl2O+kR9O4cePSD9/8N33/7edpzKgfi/0dOs2cZpx1jtR5xtnSwvPNnI7aY8ViPwD117NnzzR06NBclRY/khs5cmSuAMrTvn37NGbMmFyVFp9BQ4YMyRXlGjFixGTXM+/Xr1/q06dPrlq2aMk9ePDgXE1qww03TAMHDswVlYgfeEZXginp27dv8SMjgObKzx4BAJhEmzYzpBlnnTPNtcAyab5FVym2OeZboggXAQAAAEDACAAAAAAAAJRNwAgAAAAAAACUTcAIAAAAAAAAlE3ACAAAAAAAAJRNwAgAAAAAAACUTcAIAAAAAAAAlE3ACAAAAAAAAJRNwAgAAAAAAACUTcAIAAAAAAAAlE3ACAAAAAAAAJRNwAgAAAAAAACUTcAIAAAAAAAAlE3ACAAAAAAAAJRNwAgAAAAAAACUTcAIAAAAAAAAlE3ACAAAAAAAAJRNwAgAAAAAAACUTcAIAAAAAAAAlE3ACAAAAAAAAJRNwAgAAAAAAACUTcAIAAAAAAAAlE3ACAAAAAAAAJRNwAgAAAAAAACUTcAIAAAAAAAAlK1N1U/yGKBF6N27d+rfv3+u6jZ8+PDUvXv3XAFQjv1OejRN6V+HC883czpqjxVzBUB99ezZMw0dOjRXpXXo0CGNHDkyVwDlad++fRozZkyuSovPoCFDhuSqefjxxx/T119/navmKT6TF1544VzV1q9fv9SnT59ctWxrr712Gjx4cK4m1a5duzTLLLPkqvm5//7708orr5yr5mXAgAGpV69euapb375903HHHZcrgOZHwAi0OAJGgMYjYARoOgJGoLG01IDxiiuuSHvttVeuWqbWEjA2d08++WRaffXVc9W8CBiB6YUWqQAAAAAAAEDZBIwAAAAAAABA2QSMAAAAAAAAQNkEjAAAAAAAAEDZBIwAAAAAAABA2dpU/SSPAVqE3r17p/79++eqbsOHD0/du3fPFQDl2O+kR9OU/nW48Hwzp6P2WDFXANRXz54909ChQ3NVWocOHdLIkSNzBVCe9u3bpzFjxuSqtPgMGjJkSK6ahyuuuCLttddeuWqZ+vXrl/r06ZOrlu30009Pb775Zq5aliOPPDIttNBCuWpeBgwYkHr16pWruvXt2zcdd9xxuQJofgSMQIsjYARoPAJGgKYjYAQaS0sNGF955ZV0//3356plWmuttYrXFuoiYASmFwJGoMURMAI0HgEjQNMRMAKNpaUGjNAaCBiB6YU1GAEAAAAAAICyCRgBAAAAAACAsgkYAQAAAAAAgLIJGAEAAAAAAICyCRgBAAAAAACAsgkYAQAAAAAAgLIJGAEAAAAAAICyCRgBAAAAAACAsgkYAQAAAAAAgLIJGAEAAAAAAICyCRgBAAAAAACAsgkYAQAAAAAAgLIJGAEAAAAAAICyCRgBAAAAAACAsgkYAQAAAAAAgLIJGAEAAAAAAICyCRgBAAAAAACAsgkYAQAAAAAAgLIJGAEAAAAAAICyCRgBAAAAAACAsgkYAQAAAAAAgLIJGAEAAAAAAICyCRgBAAAAAACAsgkYAQAAAAAAgLIJGAEAAAAAAICyCRgBAAAAAACAsgkYAQAAAAAAgLIJGAEAAAAAAICyCRgBAAAAAACAsgkYAQAAAAAAgLIJGAEAAAAAAICyCRgBAAAAAACAsgkYAQAAAAAAgLIJGAEAAAAAAICyCRgBAAAAAACAsgkYAQAAAAAAgLIJGAEAAAAAAICyCRgBAAAAAACAsgkYAQAAAAAAgLIJGAEAAAAAAICyCRgBAAAAAACAsgkYAQAAAAAAgLIJGAEAAAAAAICyCRgBAAAAAACAsgkYAQAAAAAAgLIJGAEAAAAAAICyCRgBAAAAAACAsgkYAQAAAAAAgLIJGAEAAAAAAICyCRgBAAAAAACAsgkYAQAAAAAAgLIJGAEAAAAAAICyCRgBAAAAAACAsgkYAQAAAAAAgLIJGAEAAAAAAICyCRgBAAAAAACAsrWp+kkeA7QIvXv3Tv37989V3YYPH566d++eKwDKsd9Jj6Yp/etw4flmTkftsWKuAKivnj17pqFDh+aqtA4dOqSRI0fmCqA87du3T2PGjMlVaT169Ej//Oc/cwU0lcceeyztu+++uapb375903HHHZcrgOZHwAi0OAJGgMYjYARoOgJGoLGUEzACzZuAEWjutEgFAAAAAAAAyiZgBAAAAAAAAMomYAQAAAAAAADKJmAEAAAAAAAAyiZgBAAAAAAAAMomYAQAAAAAAADKJmAEAAAAAAAAyiZgBAAAAAAAAMrWpuoneQzQIvTu3Tv1798/V3UbPnx46t69e64AKMd+Jz2apvSvw4XnmzkdtceKuQKgvnr27JmGDh2aq9I6dOiQRo4cmSuA8uy3335pzJgxuQJaoq233jr98pe/zBVA8yNgBFocASNA4xEwAjQdASMAANBSaZEKAAAAAAAAlE3ACAAAAAAAAJRNwAgAAAAAAACUTcAIAAAAAAAAlE3ACAAAAAAAAJRNwAgAAAAAAACUTcAIAAAAAAAAlE3ACABAYdTocXkEAAAAAHUTMAIAkD754sd00j+eS1VVeQcAAAAA1EHACADQyj3z6ufpxMufSx9+9kPeAwAAAAB1EzACALRS48ZVpRsfeDtddPOracSosXkvAAAAAEyegBEAoBX6+rtR6cxr/5Puf/KDvAcAAAAAyiNgBABoZV4f/nX662XPpdff+ybvqczc3TrnEQAAAACtkYARAKAVufeJ99OZ172Yvvl+VN5TvjY/bZuv3T3t+cslx+8AAACaxMiRI9NXX31V5wYATU3ACADQCowYOTZd+K9X0r8GvlOsvVipLp3apQN2XDZt87OFUptIGgEAgCZz6qmnptlmm63OLQJIAGhKAkYAgOnch5/9kE684rn07LD/5j2V6T73TOmYvVZKKyzeLe8BAAAAoDUTMAIATMeefPGzdNI/nkuffPFj3lOZdVacOx2x+wppjq6d8h4AAAAAWjsBIwDAdGjM2Kp03T1vpstvH5ZGjR6X95avfbsZ0m5bLlFsMQYAAACACXxbBAAwnfnym5Hp9KtfSIOe+SjvqUzMVvzTbisUsxcBAAAAoCYBIwDAdOSVt79Kf738ufT2h9/mPZVZfvFuxXqLC84zU94DAAAAAJMSMAIATAeqftrufPS9dM4NL6bvfhg9fmcF2rRJaesNFkoH7rhs6tKpXd4LAAAAALW1qfpJHgO0CL179079+/fPVd2GDx+eunfvniuA6dcPI8aky24bll5888u8pzIzdWmffrP1UmmZRbrmPQA0hZ49e6ahQ4fmqrQOHTqkkSNH5gqA1uqJJ55Ijz76aK5qO/TQQ1Pbtm1zBQCNT8AItDgCRoBqwz/+Ll1086vp869G5D2VWWS+mdNvt1s6zTZLx7wHgKYiYAQAAFoqLVIBAFqoR5/7OJ161Qv1Dhd/tuq86fBdVxAuAgAAAFARASMAQAszesy4dNWdr6er73qjGFeqQ/sZ0l5bLZV23myx1K5tm7wXAAAAAMojYAQAaEFituIpVz6fHnv+k7ynMnN365yO2mOltEaPOfMeAAAAAKiMgBEAoIV44Y0v0gmXP5fe++T7vKcyKy81ezp6z5XSfHN2yXsAAAAAoHICRgCAZm5cVVW69aF30t/7v5x+GDEm7y3fDDO0SdtvvEjab/tlUqeObfNeAAAAAKgfASMAQDP27Q+j0znXv5Tufvz9VJX3VWKWGTukw37dI226xvx5DwAAAABMHQEjAEAz9dYH36YTLnsuvfrOV3lPZZboPkv6829WSkssOGveAwAAAABTT8AIANAMPfj0h+n0q19IX347Mu+pzCZrzJ8O22X5YgYjAAAAADQkASMAQDMycvTYdOltw9IN976Vxo6rvClqpw5t02+3WzrtsPEixdqLAAAAANDQBIwAAM3EJ//9MZ38j+fTkJc+y3sqM9+cXdLRe62UVll6jrwHAAAAABqegBEAoBl45tXP04lXPJc+/OyHvKcyqy83ZzpyjxXT3N065z0AAAAA0DgEjAAA09C4cVXpxvvfThfd/GoaMWps3lu+dm3bpJ03WyztvfVSqWP7tnkvAAAAADSeNlU/yWOAFqF3796pf//+uarb8OHDU/fu3XMF0Px8/d2odPEtr6Y33vsm76nMbDN3TPtut3RadP6Z8x4AWpKePXumoUOH5qq0Dh06pJEjR+YKgNbqscceSw8//HCuavvTn/6U2rb1g0MAmo6AEWhxBIzA9OD14V+ni28Zlr75flTeU5llFumafrP1UmmmLu3zHgBaGgEjAOXq169fOvbYY3NV24gRI1LHjh1zBQCNT4tUAIAmdu8T76czr3uxXuFim5+2Ldbpng7eqYdwEQAAAIBpQsAIANBERowcmy781yvpXwPfKdZerFSXTu3SgTsum7beYKHUJpJGAAAAAJgGBIwAAE3gg0+/Tydc8Vx6dth/857KdJ97pnTMXiul5RfvlvcAAAAAwLQhYAQAaGRPvvhpOvnK59OnX/yY91RmnRXnTkfsvkKao2unvAcAAAAAph0BIwBAIxkztipde88b6fLbX0ujRo/Le8vXvt0Mabctlyi2GAMAAABAc+CbKgCARvDlNyPTaVe/kB5+5uO8pzIxWzFmLcbsRQAAAABoTgSMAAAN7OW3v0p/vfy59M6H3+Y9lVlh8W7Feoux7iIAAAAANDcCRgCABvTIcx+nv93wYvruh9F5T2W6zdIx7bnVkqlLp3Z5DwAAAAA0LwJGAIAGtNoyc6bVl5srV5X74puRqd+lz6bX3/sm7wEAAACA5kXACADQgDp1bJv22mrJtPfWSxXj+oiQ8YxrXki3DXo3jRtXlfcCAAAAQPMgYAQAaASrLzdnOvY3K6fFFpgl76lMVVVKdz32Xjr1qhfSZ1+OyHsBAAAAYNoTMAIANJLZZ+2UDt91+fTL9RdMM7Rpk/dW5u0Pv01/vezZ9PgLn+Q9AAAAADBttan6SR4DtAi9e/dO/fv3z1Xdhg8fnrp3754rgGnrrQ++TZfdNix9/lX9ZyP2XGaOtMvmi6cundrlPQC0ZD179kxDhw7NVWkdOnRII0eOzBUArdVdd92VbrvttlzVdv7556d27fz/BACajoARaHEEjEBLNWLk2HTdgDfTky9+mvdUrtssHdNeWy+Vluhev9arADQfAkYAAKCl0iIVAKCJdOrYNu211ZJp762XKsb18cU3I9MZ17yQbhv0bho3zu/EAFqi9957Lw0cOHCK4WIYNWpUGjBgQHrttdeS3wcDAADNhRmMQItjBiMwPfjv1yPSZbe9lt58/5u8p3KLzDdzEVbOOVunvAeA5mbEiBFFkDh48OBie+KJJ9KHH36YL61Mt27d0hprrJHWXHPNtNZaaxXjWWYxox0AAGh6AkagxREwAtOLcT/9M+yux95Ldz7yXjGuj04d2qbemy6a1l5h7rwHgGlt3Lhx6e677y7Ww7r//vvT6NGj8yUNa4YZZkirr7562n///Yt/I3fs2DFfAgAA0LgEjECLI2AEpjdvffBtuuy2Yenzr0bkPZXrucwcaZfNF09dOrXLewBoal999VW67LLL0gUXXJDefPPNvLdpzDnnnGmfffYpwsYFFlgg7wUAAGgc1mAEAJjGFp1/5vTnvVdOa/SYK++p3NOvfJ76Xfpsev29+rdcBaB+/vOf/6R99903zT///Onwww9v8nAxfPbZZ+nEE09MCy+8cNphhx3SQw89lC8BAABoeAJGAIBmoFPHtmmvrZYs1lTs3LF+sxC/+GZkOuOaF9Jtg95N48ZpUgHQ2N599920+eabpxVWWCFdcskl6YcffsiXTDtjx45N//rXv9KGG26YVllllWL9RwAAgIYmYAQAaEZWX27O9OffrJQWW2CWvKcy0fw+1nU89aoX0mdf1r/lKgCTd+mll6bll18+3XPPPXlP8/Pss8+mNddcMx177LGNtg4kAADQOgkYAQCamdln7ZQO33X59Mv1F0wztGmT91bm7Q+/TX+97Nn0+Auf5D0ANIQPPvggbbHFFsV6h99++23e23yNGTMm9evXL62++urphRdeyHsBAACmjoARAKAZimDxF+sumP642wppjq6d8t7KjBg1Nl3579fTJbe8mn4YMSbvBaC+rr766tSjR49099135z0tx3PPPZdWW221dMIJJxRtVAEAAKaGgBEAoBlbdP6Z05/3Xjmt0WOuvKdyT7/yeep36bPp9eFf5z0AVOLrr79O22yzTdptt93SV199lfe2PKNGjUp9+vRJa621Vnr77bfzXgAAgMq1qfpJHgO0CL179079+/fPVd2GDx+eunfvniuAlu+plz5L193zZvpxZP1mI0a31c3X7p5+ud6CaYYZ6td6FaC1iXBxs802S08++WTeM/X+n737gI6q6vowvlNIoffeO1JDBxFQiiKCYAOVIs2KFbEhqCAqKpYXVJTQURQFRQEFVFBAQGrovffeU0jC574cvoQwk8ydFDIzz2+tLO8+E0MymUwm93/3PsWKFbNCvjp16kjx4sWlaNGiUrhwYQkODv7vudrPCgKPHTtmjWM9ePCgREREyJIlS2Tbtm3mI6Sevk5esGCBlC1b1qwAAAAAgOsIGAF4HAJGAL7sxJkoGTNjq+zYf9as2FemaA7pdXclKZDHvdGrAOAr0ipcDAkJsV7Dtm3b1goWNVR0x4kTJ2Tp0qUyb948mTBhQqq7KQkZAQAAALiLgBGAxyFgBODr4v97+TZ78T6ZtXCfdeyOkKAA6dS6rDSuUcisAAASS4twsWTJkvLEE09I7969JX/+/GY1bVy8eFEmT54sn332maxdu9as2kfICACeYdOmTbJhwwZTXe+ee+4Rf392wwIAZBwCRgAeh4ARAK7YeeCcjJmxRY6fjjIr9tWtkl8eblNesoYEmhUAQGrDxebNm8szzzwj7du3l4CAALOafv7++28ZOXKkTJs2TeLj482q6wgZASDzGzJkiAwaNMhU14uKirJGbQMAkFG4rAUAAMBDlS2WQwb2CpMG1QqaFftWbDouQ8JXy7a9Z8wKAPi21ISLefPmlSlTpsj8+fOlY8eOGRIuqqZNm1oX4GlIWK5cObPqun379lmh6M6dO80KAAAAACSPgBEAAMCDhQQHSM/2Fa09FUOD3etCPHk2WoZ/vU5m/LVH4uMZbgHAd+mAn/vuu8+tcLFdu3bW6LrOnTublYx3yy23SEREhDz11FPi5+dnVl2jIWOrVq3k/PnzZgUAAAAAnCNgBAAA8AL1qxaQgb1rSbniOc2KPTo0X/d1fH/iWjl2yv2RqwDgyT7//HP5/fffTeWaXLlyyfjx4+Xnn3+WwoULm9UbJ1u2bNa41Hnz5kmpUqXMqmu0g7F///6mAgAAAADnCBgBAAC8RL5cIfJi1+rSrmlJ8bfZuXLVroPn5O0xq+WftUfMCgD4hh07dsjLL79sKtfoOFLtGOzevbtZyTxatGgha9eutcan2jFq1CgrnAQAAACA5BAwAgAAeBENFu9qUlL6d6sh+XOHmFV7omLiZMLMbTL6x81yMSrWrAKA94qPj5dHHnlELly4YFZSpuGi7nlot0swI+XMmVNmz55tO2Ts1auXtRclAAAAADhDwAgAAOCFyhbLIQN7hUmDagXNin0rNh2XIeGrZdteTjID8G6ffPKJLFq0yFQpuxouFi9e3KxkXjoy1W7IqPsxPv/886YCAAAAgOsRMAIAAHipkOAA6dm+ovS+u5KEBgeaVXtOno2W4V+vkxl/7ZH4+MtmFQC8x+bNm2XAgAGmSpknhYtXuRMyjhs3TmbNmmUqAAAAALgWASMAAICXq1e1gAzsXUvKFc9pVuy5fFlk9uJ9MmziWjl2KsqsAoDnu/zfE5yORo2Kcu25rWDBgh4XLl51NWQMCwszKynr06cPo1IBAAAAOETACAAA4APy5QqRF7tWl3ZNS1r7NLpj98FzMmTMavln7RGzAgCebe7cubJs2TJTpWzUqFEeGS5epSHjxIkTJSgoyKwk79ChQxIeHm4qAAAAAEhAwAgAAOAjNFi8q0lJ6d+thuTPHWJW7YmOiZMJM7fJ6B83y8WoWLMKAJ5p5MiR5ihlDz/8sHTs2NFUnqtatWry1ltvmSplX3zxhcTHx5sKAAAAAK4gYAQAAPAxZYvlkIG9wqRBtYJmxb4Vm47LkPDVsm0vo/MAeKZdu3ZZI0NdUbRoURkxYoSpPF///v2lQYMGpkrejh075NdffzUVAAAAAFxBwAgAAOCDQoIDpGf7itL77koSGhxoVu05eTZahn+9Tmb8tUfi4y+bVQDwDJ999pnLnXmjR4+WPHnymMrzBQQEyIQJEyQ0NNSsJM+bwlUAAAAAacPvsu5qDwAepFOnTjJ16lRTObd3714pUaKEqQAAzpw4EyVjZmyVHfvPmhX7ShfNYYWVBfK4N3oVADJSZGSkFCtWTE6dOmVWnHvggQfku+++M5V3GTJkiAwaNMhUzvn5+cmWLVukQoUKZgUAkNEmT54sY8eONdX15syZI1myZDEVAADpj4ARgMchYASAtBf/30vC2Yv3yayF+6xjdwQHBUjn1mWlcY1CZgUAMqfw8HDp06ePqZK3ZMkSadiwoam8y/Hjx63Xy1FRUWbFuWeffVY++eQTUwEAAADwdYxIBQAAgPj7+cldTUpK/241JH9u97oQo2PiZMLMbTL6x81yMSrWrAJA5jNy5EhzlLy6det6bbio8ufPb12854rx48fLhQsXTAUAAADA1xEwAgAA4P+VLZZDBvYKkwbVCpoV+1ZsOi5DwlfLtr1nzAoAZB7bt2+XiIgIUyXvqaeeMkfe6+mnnzZHyTtz5ozMmzfPVAAAAAB8HQEjAAAArhESHCA921e09lQMDQ40q/acPBstw79eJzP+2iPx8UzkB5B56MhTV2h3X+fOnU3lverUqeNyl6ar9x0AAAAA70fACAAAAIfqVS0gA3vXknLFc5oVe3QrR93XcdjEtXLsVMr7ewFARnA1JOvdu7eEhLg3MtrT9O3b1xwlj4ARAAAAwFUEjAAAAHAqX64QebFrdWnXtKS1T6M7dh88J0PGrJZ/1h4xKwBw47gakt13333myPt16NBBAgICTOXcihUrJDaWPXYBAAAAEDACAAAgBRos3tWkpPTvVkPy53avmyc6Jk4mzNwmo3/cLBejODkN4Ma4cOGCrFu3zlTOhYaGSs2aNU3l/bJlyybVq1c3lXORkZEu718JAAAAwLsRMAIAAMAlZYvlkIG9w6RhtYJmxb4Vm47LkPDVsm3vGbMCABln+fLlEhcXZyrn6tatK4GB7u1B66kaNWpkjpLHmFQAAAAAioARAAAALgsJCpAe7StK77srSWiweyffT56NluFfr5MZf+2R+PjLZhUA0t/GjRvNUfJcDdu8iatfs6v3IQAAAADvRsAIAAAA2+pVLSADe9eScsVzmhV7Ll8Wmb14nwybuFaOnYoyqwCQvg4ePGiOkle/fn1z5Dtc/ZpdvQ8BAAAAeDcCRgAAALglX64QebFrdWnXtKS1T6M7dh88J0PGrJZ/1h4xKwCQflwNx0qWLGmOfIerXzMBIwAAAABFwAgAAAC3abB4V5OS0r9bDcmfO8Ss2hMdEycTZm6T0T9ulotRsWYVANKeq+FY0aJFzZHvCA0Nldy5c5vKOQJGAAAAAIqAEQAAAKlWtlgOGdg7TBpWK2hW7Fux6bgMCV8t2/aeMSsAkLZOnTpljpzz8/OTwoULm8q3uBKsunIfAgAAAPB+BIwAAABIEyFBAdKjfUXpfXclCQ0ONKv2nDwbLcO/Xicz/toj8fGXzSoApI1Lly6ZI+eCgoIkICDAVL5FuxhT4sp9CABIe0ePHpWIiAinb5d1k3MAADIQASMAAADSVL2qBaxuxvIlcpoVe/TcyOzF+2TYxLVy7FSUWQWA1HPl5Ku/v+/+mezK1x4fH2+OAAAZ6csvv5RatWo5fYuJiTHvCQBAxiBgBAAAQJrLlytY+nWpLu2alrT2aXTH7oPnZMiY1fLP2iNmBQBSJzAw5e7q2Fjf3QvWla89S5Ys5ggAAACALyNgBAAAQLrQYPGuJiWlf7cakj93iFm1JzomTibM3Cajf9wsF6N896Q/gLTh6gjQc+fOmcq3nDhxwhw5FxLi3vM5AAAAAO9CwAgAAIB0VbZYDmtkasNqBc2KfSs2HZch4atl294zZgUA7CtUqJA5St7BgwfNke/Q8bGHDx82lXOFCxc2RwAAAAB8GQEjAAAA0l1IUID0aF9Ret9dSUKDUx5R6MjJs9Ey/Ot1MuOvPRIfn/I+agCQVNGiRc1R8nwxYNTuRVf273L1PgQAAADg3QgYAQAAkGHqVS1gdTOWL5HTrNhz+bLI7MX7ZNjEtXLsVJRZBQDXuBqObdy40Rz5jg0bNpij5BEwAgAAAFAEjAAAAMhQ+XIFS78u1aV901Li7+9nVu3ZffCcDBmzWv5Ze8SsAEDKSpYsaY6St2TJEnPkO1z9mkuUKGGOAAAAAPgyAkYA1zl16pTs3LnTuop59erVsm7dOjlyhBO4AIC04+/nJ22blJD+XWtI/twhZtWe6Jg4mTBzm4z+cbNcjIo1qwDgXN26dc1R8ggYnatXr545AgAAAODLCBgByIEDB+Sbb76Rxx57TCpVqiR58+aVcuXKSbVq1aR27dpSo0YNKVy4sOTMmVPCwsLkmWeekd9//10uXbpkPgIAAO4pWyyHNTK1YbWCZsW+FZuOy5Dw1bJt7xmzAgCOVahQQfLnz28q5/Riu6NHj5rKN7gaMDZq1Mgcebfp06fL0qVLTQUAAAAgKQJGwEdFR0fLZ599ZgWKxYsXl4cffli++uor2bp1q3mP6507d07WrFkjI0aMkFatWln7r7z33nty4cIF8x4AANgXEhQgPdpXlN53V5LQ4ECzas/Js9Ey/Ot18tOCPRIff9msAsD1GjZsaI6St2DBAnPk/TZt2iTHjh0zlXOlS5e2Ljz0drt375ZHHnlEmjRpIgMHDuTCSgAAAMABAkbAx8THx0t4eLiULVtW+vbtm2ygmJLjx4/Lq6++ap1omDRpklkFAMA99aoWsLoZy5fIaVbsuXxZ5Nd/9smwiWvl2KkoswoA13K1A08vvvMVX375pTlKni90L+rfS926dbMuroyLi5O3337b+ro1hAUAAACQgIAR8CGHDx+WFi1aSJ8+feTgwYNmNfU0aNQ/wvUtMjLSrAIAYF++XMHSr0t1ad+0lPj7+5lVe3YfPCdDxqyWf9ayfzCA67kakv3xxx8+ESrpNJLx48ebKnm+EDB++OGHsnDhQlNdsXLlSmvriE8//VQu69UsAAAAAAgYAV/xzz//WPsnujLqSfdfvO222+Suu+6SDh06SOvWraVq1armVue0i1H/n6goukYAAO7z9/OTtk1KSP+uNSR/7hCzak90TJxMmLlNRv+4WS5GxZpVABCpX7++hIaGmip5I0eONEfea+LEiXLmjGt72DZr1swceae1a9daI1Ed0b9xnnvuOetvo/3795tVAAAAwHf5XebyO8DrLVu2TFq2bCnnz583K9cKDg6W5s2bS5s2beTOO++UChUqmFuutXfvXvn555+tt99//93p1bsaMk6fPl2yZMliVtJWp06dZOrUqaZyTj/fEiVKmAoA4ImiYuJkym87ZOn6o2bFvrw5g6Vn+4pSoWQuswLA1+lED902ICXZs2eXAwcOSM6c7o1u9gTVqlWTDRs2mMo53btyyZIlpvI+ukd9vXr1ZN26dWbFudy5c8vo0aPlvvvuMysAkP7+97//yQcffGCq6+3YsUOCgoJMBQBA+qODEfByGzdulDvuuMNpuKhh4LZt2+S3336TZ5991mm4qEqWLGnt2zh37lxrZJTuvejIzJkzrb1KAABIrZCgAOnRvqL0vruShAYHmlV7Tp6NluFfr5OfFuyR+HiurQMg1mtaV+hr6AkTJpjK+8yfP9+lcFG5ep95qtdff92lcFGdPn1aLl26ZCoAyBjPPPOM7Nu3z+kb4SIAIKPRwQh4Mb0KV0dA6aifpPSFp1799thjj5kV+06cOGGNUF20aJFZSRAYGCj//vuvNZY1rdHBCAC+6cSZaBn78xbZvu+sWbGvdNEcVlhZII97o1cBeI9bbrnF4evYpIoVK2aFcLlyeVcXdHx8vDRt2lQWL15sVpwrVKiQ9draW09e//XXX9YWEXqfuKJz584yZcoUUwEAAAC+iQ5GwIvp/iGOwkUN/+bNm5eqcFHly5dPZs2aZZ10SSo2NlaeeuopUwEAkHr5cgVLvy7VpX3TUuLv72dW7dl98JwMGbNa/ll7xKwA8FWuduTpiFTde8/bfPzxxy6Fi0pHynpruHj27Fnp3r27y+Gi/u3z+eefmwoAAADwXQSMgJfavn27ddLAkaFDh1pXK6cF3Y9mxIgRprqW7tHi6kkLAABc4e/nJ22blJD+XWtI/tzudSFGx8TJhJnbZPSPm+ViVKxZBeBr7rnnHilatKipkjd+/Hj55ZdfTOX5Nm3aZI0EdYVenPj444+byvvoyME9e/aYKnl+//0O0sdCnjx5zAoAAADguwgYAS/11ltvWV2ESel+jP379zdV2ujYsaP15sjw4cPNEQAAaadssRwysHeYNKxW0KzYt2LTcRkSvlq27T1jVgD4kixZstia6PHoo4/KyZMnTeW54uLi5JFHHpGoqCizkjx9ne9oYok3mD59uq09NrXrtWXLlqYCAAAAfBt7MAJeSDf3LlOmjHXyILEcOXJYnY0FC7p/MtaZ/fv3W/9m0lBTr3g+duyY5M6d26ykHnswAgASW77xmHz96w6JjHavG9HPT+SORiWkfdOSbo9eBeCZjhw5IqVKlbL2LnfFgw8+KN98842pPNM777wjAwYMMFXK/v77b2u/Sm9z+PBhqV69uhw/ftysJK9y5cqyatUqCQ0NNSsAAACAb6ODEfBCX3/99XXhotITIukRLqrixYtL69atTSWSLVs26+peHb0UExNjVgEASHv1bipgdTOWL5HTrNijl9v9+s8+GTZxrRw75VpHDwDvUKhQIXnzzTdNlbIpU6bIsGHDTOV5ZsyYYevrffjhh70yXFS9evVyOVzUbtfJkycTLgIAAACJ0MEIeCG9Enf9+vWmSqB7IjZs2NBUae+vv/6S1atXS5MmTaRWrVpW92J6oIMRAOBI/H8va39dvF9mLtor8fHuvcQNDgqQzq3LSuMahcwKAG+nF+bdfPPNsmzZMrOSsvfee09efvllU3kGDRfvv/9+uXTpkllJnu5PqX9TeON+g19++aWtfSUHDx4sAwcONBUAAAAARcAIeJmDBw863COlSJEicuDAAfHTOXAejoARAJCcibO2yeKII6ayLyQoQF7sWl1KFMpuVgB4uy1btkhYWJhERkaalZR5UshoN1xUs2bNkjvvvNNU3kO3jNCLIS9cuGBWktegQQNZvHixBAQEmBUAAAAAihGpgJdZuXKlObrWHXfc4RXhIgAAzpy7eElGfLchVeFimaI5rHGrhIuAb6lUqZIMHTrUVK555ZVXPGJcqjvhYs+ePb0yXNRu1a5du7ocLuq2D5MmTSJcBAAAABwgYAS8zKpVq8zRtapVq2aOAADwPht3nZbBo1fL+h2nzIo9eg1Om8bF5aVuNSR/7hCzCsCXPPvss7b3G9SQsV+/fhIdHW1WMg8dVjRixAjb4WLJkiXl448/NpV3effdd2Xp0qWmStmHH34oFSpUMBUAAACAxAgYAS/jrIOxSpUq5ggAAO8RG3dZvv9jl/xvyno5eyHGrNqTO0eQPP9QdenQvLT4+9PtD/gqf39/GT9+vNW1ZsdHH31kjVddvny5Wbnxdu/eLS1atJBnnnnGVrioE0/GjBkjOXPmNCveQ/9O0r0UXdWmTRtb+zQCAAAAvoaAEfAyGzZsMEfXqly5sjkCAMA7HDkRKe+Nj5Dflx0QdzcVD6uUTwb1ri2VSuUyKwB8WdmyZWX06NFW2GjHpk2bpHHjxvL6669LTIx7Fzukla+++kpq1Kgh8+fPNyuuGzBggLRs2dJU3iMqKsoajepq2JovXz4ZO3asqQAAAAA4QsAIeJlz586ZowRBQUFSqlQpUwEA4PkWrTksQ8eukX1HzpsVe7IE+svDbcrL4/dWkWyhgWYVAEQefPBBq5PRbsgYGxtr7eNYr149WbhwoVnNOBpy6r7rjz32mMO/CVLy6quvypAhQ0zlXV5++WXr/nHVl19+KYULFzYVAGQO+nvm4sWLTt8AAMhoBIyAl9Grc5MKDQ21fYIEAIDM6GJUrHw5fbNMmr1doi/FmVV7ihfMJgN61pKmYZw8BuCYdru5EzKqtWvXStOmTa2xqTpuNDIy0tyS9uLi4uTHH3+0xqHedNNNMmfOHHOLPRouvvPOO6byLr///ru1F6Wr9Ht/7733mgoAMg/dR1bHeDt7y4z7AQMAvBuJA+BlHL2g1A5GAAA83bZ9Z2Vw+GpZtfm4WbHvtnpF5dUeNaVI/qxmBQAcS03IqNasWSO9e/eW4sWLS//+/WXXrl3mltQ7fvy4vPfee9ZI13vuuUf+/PNPc4t93hwunj59Wnr06CGXL7s2SLtkyZIycuRIUwEAAABIDgEj4GUCAgLMUQK9shkAAE8VH39ZZvy1Rz6avE5OnXXvyuwc2bLI052qSqdWZSUwgJfAAFyT2pBRnTx5Uj788EMpV66cVKtWTfr06WPt76cjO10Nvvbs2SPffvutPPvss1K/fn0pWrSoFQzu3bvXvId7vDlcVE8++aTs37/fVMnz8/OTCRMmSM6cOc0KAAAAgOT4/fcHjWt/0QDwCHnz5pVTp06Z6godlXH+vHt7VGVGnTp1kqlTp5rKOT3hUqJECVMBADzRiTNREv7TFtl5wP5+YldVLZtHHmlXQXJmo6MfgHsmTZpkdcKl9YV7+jpdw0J90z3/dPKIhpmXLl2So0ePyoEDB+TgwYNy5swZ83+knddee83aM9Jbfffdd9K5c2dTpeyFF16Q4cOHmwoAMh/dJ3fQoEGmup5umRMcHGwqAADSHwEj4GV0BJOeiEhMuxr1hWZgYKBZ8WwEjADgG5ZvOCZf/7ZDIqNjzYo9gQF+0rF5aWnRoJj4mTUAcNe///4r3bt3l82bN5sVz1SoUCEZNWqUdOjQwax4Hw1ltVs06YWXzuj7rlixghPzADI1AkYAQGbDfCjAy1SoUMEcJdArrbdu3WoqAAAyt+iYOBn3y1YJn7HF7XCxUL5QeeWRmtKScBFAGtHRpKtXr5Z+/fqlamTqjfTAAw/I+vXrvTpc1GuotdvU1XBRu0a1Q5WT8gAAAIA9BIyAl6lbt645utaGDRvMEQAAmdfuQ+fl7TGrZem6o2bFvptrFpIBPWtJiULZzQoApI2QkBBrP8W///5bypcvb1Yzv3z58lkjQ/Utf/78ZtU7ffbZZzJ37lxTpeytt96SWrVqmQoAAACAqwgYAS9Tp04dc3QtAkYAQGamQ/t/W7Jf3p8QIUdPRZlVe7KGBMpj91SWbm0rSHCWALMKAGnv5ptvloiICOnbt6/4+WXuPum7777b+ltAuxe93ZYtW+Sll14yVcqaNGli6/0BAAAAJCBgBLyMs4BRRyFlhO+//16WLVtmjWUFAMAVp8/HyCdT1suP83dLXLx724NXKJlLBvUOk9qVvbszB0DmkTVrVhkxYoQsXLjQGjmq+55nJrfccotMnz5dfvrpJ2vfRW8XGxsrXbp0kcjISLOSvBw5csjEiRM9dtwtAAAAcKPxShrwMjqqKWfOnKZKsHTpUms/kvSkoWLv3r2lYcOGkidPHmnbtq188MEHsmLFCvMeAABcK2LrCRk8epVs3n3arNjj7+8n7ZuWkn4PV5c8Odk/C0DG027GH3/8UXbs2CEvv/yyNY70RtHQs0+fPlZ3pY5x7dixo7nF+w0ZMsTW3x0ff/yxlClTxlQAAAAA7CJgBLyMjmhq0KCBqRIcOHDAOsmQnvQP+rNnz1rH586dk9mzZ1sjhzp37mytAQBw1aXYePnmtx3y+Q+b5EJkrFm1J3/uEOnftYa0bVLiv99/ZhEAbpBSpUrJe++9J/v375dx48ZJ7dq1zS3pr2zZstbekPpvf/XVV1KjRg1zi2/QCSrvvPOOqVLWvn176dWrl6kAAAAAuIOAEfBCOhrIkQkTJpij9DFp0iRzdK02bdqYIwAARA4cvSDvjFsjf606ZFbsq1e1gAzsFSZli+UwKwCQOYSEhMgjjzwiK1eulCVLlsiAAQOkRYsW1kjOtBIcHCyNGjWSF154wbqob9u2bdKvXz9rioivuXjxonTt2tUakeqKggULyujRo00FAAAAwF1+l9N7ZiKADKd/ZBcpUuT/uwmv0pMde/fulQIFCpiVtLNv3z5rPGtMTIxZSaAnV9LyCu5OnTrJ1KlTTeWcfq0lSpQwFQAgM5i/4qBM+3O31cHojuCgAHno9nLSsHpBswIAniE+Pt7aF11DR33bvn27HDx4UA4dOiRRUVHmva4VGBgohQsXlqJFi1rjPHVSiQaLYWFhVsgIkSeffFK++OILU6VsxowZVgcjAHgaHQU9aNAgU11Pf5fwuwEAkJEIGAEv1bdvX/nss89MleDxxx+39Qe4qx577DFrHFNS9evXt0YWpSUCRgDwPOcuXpIJM7fJuu0nzYp9pYtkl14dKkvBPCFmBQC8w8mTJ62LA7ULT/9E12AxW7Zs1oWBugUCHPvtt99sTUvRsajh4eGmAgDPQsAIAMhsCBgBL6Vjkm666SaHo4J0JFDv3r1NlXrLly+Xm2++WS5dumRWEowfP166d+9uqrRBwAgAnmXTrtMy9uetcvbC9V3urtBz67c3LC7tm5WSAH9OtAMARE6cOCHVq1e3OkBdoftURkRESPbs2c0KAHgWPb/j6LzLVaGhoeYIAICMwR6MgJeqUKGCNS7IkaeeekoWL15sqtQ5cuSIdOzY0eGL3Fq1ajndDxIA4P3i4i/LtD92yadT1rsdLubOHiTPPVhNOt5amnARAPD/dDKLq+Giv7+/tR894SIAT6bd7RoiOnsDACCjETACXuytt95yuN+i7pOooeC8efPMint2794tzZs3lwMHDpiVBDrK6fPPP5eAgACzAgDwJUdORsqw8REyd9kBcXdcRs2K+WRQn9pSuXRuswIAgMikSZPkhx9+MFXK+vfvL02aNDEVAAAAgLRAwAh4sdy5c1tX6uoVu0kdO3ZMWrduLX369JGjR4+aVdfEx8fL2LFjpU6dOrJ582azei3dA7JRo0amAgD4ksURR2TomDWy5/B5s2JPlkB/eeiOcvLkfVUkW2igWQUA4Mo2CE8//bSpUqZTVQYPHmwqAAAAAGmFgBHwcm3atLE2AncmPDxcypcvbwWCM2fOlAsXLphbrrdnzx4ZMWKEFSz26tVLTp48aW65lv6bH3/8sakAAL7iYlSsjP5xs0yctU2iL8WZVXuKFcwmr/WoJc1qFzErAABccfnyZXnkkUfkzJkzZiV5wcHBMnnyZAkKCjIrAAAAANKK338v0N2dWgXAg7z22mvy7rvvmso5/eP75ptvlpIlS0q2bNkkOjpazp8/b3UqRkREmPdyrm7dujJ//vx03d+kU6dOMnXqVFM5p1c3lyhRwlQAgPS0fd9ZGTNji5w8G21W7Lu1blG597bSVgcjAABJffTRR9KvXz9TpezDDz+09f4AAAAAXEfACPgQ7T584YUXJDY21qykLd3XUfdD0WAyPREwAkDmEf/fS8lZC/fJ7MX7rGN35MiaRbrfVUGql89rVgAAuNaGDRusSSp6AaQrbr31Vvnjjz+sveEBAAAApD0uDwd8iO5V8s8//0jNmjXNStrIkyePFV5Onz493cNFAEDmceJMtHw4aZ3MXLTX7XCxSpncMqhPGOEiAMCpmJgY6dKli8vhYq5cuWT8+PGEiwAAAEA6ImAEfEy9evVk5cqV8u2331qjUFNDx6C++uqrsnPnTmsPRwCA71ix8bgMCV8tO/afNSv2BPj7yb0tysizD1aTnNnYGwsA4Nwbb7wha9asMVXK/ve//1lbPgAAAABIP4xIBXzc+vXrZe7cubJgwQJZsmSJHD9+3NxyPb0CWEeONm3aVO699165/fbbJTQ01NyacRiRCgA3TnRMnHw7d6f8s/aIWbGvUN5Q6dWhkpQqnH779QIAvMPixYutvz/i4+PNSvLuu+8++f77700FAAAAIL0QMAK4xoULF2Tfvn1y8OBBawSRPkVkyZJFihQpIuXLl5eQkBDznjcOASMA3Bh7Dp2X8Blb5OjJSLNi3801C0mn1mUlOEuAWQEAwLHz589b2zvoxBRXFC5c2LqAMl++fGYFAAAAQHohYATgcQgYASBj6YvFuUv3y4wFeyQu3r2XjllDAuXhNuWlbpX8ZgUAgOT17t1bxowZY6qUzZ49W9q0aWMqAAAAAOmJPRgBAADg1JnzMfLJN+tl+p+73Q4Xy5fIKQN7hxEuAgBc9vPPP9sKFx9//HHCRQAAACADETACAADAobXbTsrg8NWyefdps2KPv5+ftLulpPTrUl3y5gw2qwAAJO/YsWPSp08fU6WsQoUKMnz4cFMBAAAAyAgEjAAAALjGpdh4mTJnh3z2/UY5f/GSWbUnX65gebFrdbnrlpJW0AgAgKs0XDx69KipkhcQECCTJk2SrFmzmhUA8E6ffvqpFCtWzOlbTEyMeU8AADIGASMAAAD+38FjF+WdcWtkwcpDZsW+ujflt0ailiue06wAAOCasWPHyowZM0yVstdee00aNGhgKgDwXmfPnpWDBw86fbt82b3tDAAAcBcBIwAAACzzVxyywkUNGd0RHBQg3e+qIH06VJbQ4ECzCgCAa3bt2iXPPfecqVJWt25dGTRokKkAAAAAZCQCRgAAAB+nY1B1HOq3c3dY41HdUapIdnm9Zy1pXKOQWQEAwHXx8fHSrVs3OXfunFlJXmhoqDUaNTCQC1oAAACAG4GAEQAAwIdt2nVaBoevlrXbTpoVe3R3xdYNi8vL3WtKwbyhVxYBALDpgw8+kEWLFpkqZcOGDZPKlSubCgAAAEBGI2AEAADwQXHxl2Xan7vl0ynr5cz5GLNqT67sQfLsg9Xk3ttKS4C/Ro0AANgXERFha9Rpq1atpG/fvqYCAAAAcCMQMAIAAPiYoycjZdiECJm7dL9cNmt21aiQVwb1DpMqZXKbFQAA7IuOjpYuXbpITIxrF7vkyZNHxo0bJ35+XNgCAAAA3EgEjAAAAD7kn7VH5O2xa2TPofNmxZ4sgf7y4O3l5Kn7b5LsWbOYVQAA3DNgwABZv369qVL2+eefS7FixUwFAAAA4EYhYAQAAPABkdGxMvqnzTJh5jaJjokzq/YULZBVXutRS5rXKWJWAABw34IFC+Tjjz82Vco6d+5svQEAAAC48QgYAQAAvNyO/WdlSPhqWbHxuFmxT0NFDRc1ZAQAILXOnj0r3bt3l/j4eLOSvOLFi1vdiwAAAAAyBwJGAAAALxV/+bLMXLhXPpy0Tk6ciTar9ugYVB2HqmNRdTwqAABp4emnn5a9e/eaKnm636Luu6j7LwIAAADIHDhLBAAA4IVOno2W4ZPXyS8L91pBozsql84tA3uHSY0Kec0KAACpN23aNJk4caKpUta3b19p2bKlqQAAAABkBgSMAAAAXmbFpuPWSNTt+86aFXsC/P3knttKy3MPVZPc2YPMKgAAqXf48GF57LHHTJWyKlWqyLBhw0wFAAAAILMgYAQAAPAS0ZfiZOKsbTL6x81yMSrWrNpTMG+ovNy9ptzesLj4mTUAANJKr1695MSJE6ZKXpYsWWTSpEkSGhpqVgAAAABkFn6X/2OOAZ/x7bffyqVLl0wFT9OtWzdzlLyhQ4dKiRIlTAVP07BhQ6lQoYKpAKRk7+HzEv7TFjlyMtKs2Ne4RiHp3LqsBAcFmJUb48KFC/Lpp5+aKvX8/f0lMDBQgoKCpEiRIlKmTBkpXbq05M+f37wHACAjjBo1Sp544glTpWzw4MEycOBAUyGz2rVrl+zZs0eaN29uVgCkh6NHj1pd4M5Ur17d2rMWAICMQsAIn5QjRw45f/68qQBkRl988YU8/vjjpgLgjL6Qm7fsgMxYsFti49x7WRcaHChd2pSXujdljsDt0KFDUrRoUVOlH309ULduXbn//vulS5cuVg0ASB/bt2+XWrVqWReRuEIvNlu0aJEEBNzYi17gWFxcnMyePdt6zT5//nxZt26dlC9f3twKAAAAX8CIVAAAAA919kKMfDplvUz7Y5fb4WK54jllYO+wTBMuZqRz585ZJ0WffPJJKVmypISHh5tbAABpScOorl27uhwuZsuWTSZOnEi4mAlp99Tbb79tTQNo3769/Prrr/Lss88SLgIAAPggAkYAAAAPtHb7SRk8erVs2nXarNjj7+cndzUpKS92rS75cgWbVd91+vRp6dOnj7zyyivCgA8ASFvvvPOOLF261FQp+/DDDxmVn4no78U///zT6vjXLSh0bO2+ffus23T0+IABA6xjAAAA+BYCRgAAAA9yKTZevp27Qz6bulHOXXRvP+G8OYOlX5fq0q5pSStoRIJhw4YxnhkA0tDKlSutvRRddeedd/I8nEmcPHlSPv74Y6lcubK0aNFCfvjhB4mNjTW3XvHee+8xYhwAAMBHsQcjfBJ7MAKZH3swAtc7eOyihM/YIgeOujZizpE6VfJb+y1mDQk0K5mPsz0YW7duLS+88IKpXBcfHy+RkZFy6tQpayTqnDlz5Pjx4+ZWx6ZPny4dO3Y0FQDAHfrcW6dOHdm0aZNZSV6+fPlk/fr1UrhwYbOCjKaniP7991/rtfh3330nUVFR5pbr1a9fX5YsWSL+/ly7DgAA4IsIGOGTCBiBzI+AEbjWX6sOyfe/77I6GN0RnCVAOrUuKzfXLGRWMi9nAWOPHj1k7NixpnKfBo4rVqywRrr9/vvvZvVapUuXls2bN0twMONjAcBdzzzzjIwYMcJUKZs2bZrcc889pkJG0r+Pv/nmGxk1apSsXr3arCZPx942aNDAVAAAAPA1XGYGAACQiV2IjJXPf9gk3/y2w+1wsWTh7DKgVy2PCBczgnZaaNeFdjL27dvXrF5r9+7d1olWAIB79AKOkSNHmipl3bp1I1y8AbRj9KmnnrIu7HnsscdcDhe7d+9OuAgAAODjCBgBAAAyqc27T8vg0askYusJs2KP7q7YqkExebl7TSmUN/TKIv6fBo3aWdOmTRuzcq1ff/3VHAEA7NCR1I888og1btMVpUqVstXpiNSJjo6Wr7/+Wpo0aSLVq1eXzz//XM6dO2duTVn27Nnl3XffNRUAAAB8FQEjAABAJhMXf1mmz98tn0xZL6fPx5hVe3JmC5JnH6wm97UoI4EBGjXCmZdeeskcXUu7b+Li4kwFAHDVk08+KQcOHDBV8vRijwkTJkjOnDnNCtLLjh07rN95xYsXly5dusjixYvNLfa8/vrrUqRIEVMBAADAV7EHI3zSmDFjJCbGvRO2ADJGs2bN5KabbjIV4DuOnoqSMT9tlt2H3N8ruHr5vNL9rgqSI2sWs+JZ0nsPRkdq1aolERERpkqwatUqCQsLMxUAICXffvutPPjgg6ZKWb9+/eTDDz80FdJabGyszJw509pbUUeDp1a5cuVkw4YN7FEMAAAAAkYAAIDMYsm6ozJlzg6JjnGvay5LoL/ce1tpubXu9eGcJ7kRAaN2cui4uKTmzZsnLVu2NBUAIDnatagjN3VEqiuqVasmK1asIKxKB/q9CA8Pl9GjR7vcTeqKGTNmSPv27U0FAAAAX8aIVAAAgBssMjpWwmdskfG/bHU7XCySP6u8+khNjw8Xb5TQUMd7VDLxAABco9cu676LroaLQUFBMnnyZMLFNBQfH29dGHPvvfda+1q++eabaRoutm7dWtq1a2cqAAAA+DoCRgAAgBto54FzMiR8jSzfcMys2NesdhEZ0LOWFCuYzazAroMHD5qja+XIkcMcAQCSM3LkSGvvWlcNHjxYatasaSqkxokTJ2T48OFSqVIlKwScPn16mu8hHBAQIJ988on4+bGvMwAAAK5gRCoAAMANEP/fS7DZi/fJrEX7JD7evZdj2UIDpXvbClKzYj6z4h0yekRqdHS05M2bVy5evGhWEhw7dkzy589vKgCAI5s3b5batWtLZGSkWUlekyZN5K+//hJ/f655dpeeylmyZIm1t+LUqVOt32Xp6dlnn7UCRgA3zsSJE63Rx8788ccfkiWLZ+7BDgDwTASMAAAAGezU2WgZM2OLbNt31qzYV7l0bunRvqLkzh5kVrxHRgeMOqKva9eupkpQsmRJ2bNnj6kAAI5cunRJGjVqJCtXrjQrydPO8IiICClTpoxZgR3nzp2z9gz+4osvZO3atWY1femFNtu2bZPcuXObFQA3wpAhQ2TQoEGmul5UVBRjpwEAGYrLBQEAADLQqs3HZXD4arfDxQB/P+l4a2l57sFqXhkuZrQjR45I//79TXWthx56yBwBAJzRE96uhovq448/Jlx0g4ayTzzxhHUBjv43o8JFNXToUMJFAAAAXIeAEQAAIANEX4qTibO2yZfTN8vFqFizak/BPCHyUveackej4sIWSKmnI/2aNWsmhw8fNisJgoKCpHfv3qYCADiybNkyeeedd0yVsrvvvlt69eplKqREu5EmTZokjRs3llq1alnjUM+fP29uzRj67/I9AwAAgCMEjAAAAOls35HzMnTsGlkcccSs2NewekF5vVeYlC6S3azAXfv27bM6burXry9btmwxq9d6+eWXpVy5cqYCACR14cIFa7x0XFycWUlewYIFZfTo0aZCcnQc6YsvvijFihWTbt26WXst3ihr1qyRwMBA8fPzs/YldsemTZus/9+dt9Rc7PPoo486/JiuvG3YsMF8FHv058LRx3PlrXXr1uaj2Pf22287/JiuvP3666/mo9iXL18+hx8zpbfKlSubj2Cf7kPo6GO68vbll1+aj2JfWFiYw4+Z0lvWrFnNR7BP96pN/LGSG48KAMCNQMAIAACQTnSj63nLDsh74yPkyInIK4s2hQQHSO+7K0mPdhUlOCjArPomHQf37rvv2nrTE25vvvmmPPbYY9aJuwoVKlh7K+oJGt3HypGbb75ZBgwYYCoAgCMagGkQ5ioNFwsUKGAqJKV7WU6fPl1atWolFStWlOHDh8vJkyfNrZnD5cv6ysY+d/8/5Wn/ry99rYr7KWU36vMFACAj+P33y4rfVgAAAGns7IVLMv6XrbJh5ymzYl/ZYjmk192VJH/uELPiGw4dOmTtMXUjNGnSRH755Rf2mgKAZGjH05133mmqlOmIzfDwcFMhsf3791vhq77p77/MTPct1k5UuzZu3ChVq1Y1lT09e/aUMWPGmMqePn36uP24W7dunVSrVs1UrtMRtjly5DCVPS1btpR58+aZyh6dzOBud9usWbNs/TwnljdvXjl1yv5rXQ3RnU2RSMmECRPkkUceMZU9X3zxhTz++OOmskfHBeteqHaFhIRIZKR7FxouWLBAbr31VlOlTMcqBwcHmwoAgPRHByMAAEAaW7/jlAwOX+V2uOjnJ9K2SQnp37WGz4WLN4ruuTh06FDrRA7hIgA4d+LECSv0cVXZsmXlk08+MRWu0u7PDh06SKlSpWTw4MGZPlwEAAAAkiJgBAAASEMz/tojI77bIOcuXDIr9mQJ9JcXHq4u7ZuWEn9/P7OK9JIrVy7p16+fbN26VV577TUJCPDtMbQAkBIdOX348GFTJc/f39/aLy17dvYPTkpHdus4bu3ECg0NNasAAACA5yBgBAAASEONaxSS0kXcP5F6KTZe5izZ73ZAieRpd2LDhg2lf//+MnfuXKtj5MMPP7Q6SAAAydOwcNq0aaZK2UsvvWTtawvH6tWrZ43/PHDggHz66adSuXJlcwsAAACQ+REwAgAApKECeULkpe415Y5Gxa1Rp+5I7YhVb1W3bl0ZNmyY0zcdcfrKK69Iu3btnHaDFChQQJ555hnr/Vu1akXXCAC4aO/evfL000+bKmW6X5mO/kTK8uTJY/1u0r0KdVR3p06dJEuWLOZWAAAAIHPyu/wfcwwAAIA0tGXPGRn78xY5fS7GrNij+eRt9YrKPbeVlsAA37kuTLsKixYtaqoEPXr0kLFjx5oqeefOnbM6E99//32JiooyqwmaN28uU6dOtQJHAEDy9LTBbbfdZoVfrggODpaVK1dK1apVzQrsOnLkiPU778svv5Q9e/aY1YynHajNmjWzjnWUeLZs2axjO44dO+b2Ppx6cVHHjh1NZc9PP/0ky5cvN5U9zz77rBQsWNBUrouJiZG33nrLVPaUL1/eeq3jDv3ZnDdvnqns6d69u1SsWNFU9ujFXRcvXjSV6/T113PPPWcqe1avXi0//PCDqey5++67pX79+qayZ+TIkW7tlaoXC7z55pumsmfXrl0SHh5uqpTpRR2M+wcAZCQCRgAAgHR0ITJWJs7aJmu2njAr9pUolE16d6gshfP5RrddWgSMV61atUruuecehydnS5cuLX/++aeUKVPGrAAAHBk+fLi8+OKLpkqZvv8LL7xgKqRGXFyczJkzR7744guZNWuWFfZmJA2LtbOybNmyZgUAAAC4goARAAAgA/y96rBM/X2ntceiO4Ky+Mv9LctK07DCZsV7pWXAqLZs2WLtu3j69GmzkqBEiRKybNkyKVKkiFkBACS2fv16q4ssOjrarCTv1ltvlT/++EP83J0TDqf0YpnRo0dbHU3a4ZhRtINw+vTppgIAAACuYA9GAACADNC0dmEZ0LOWFC9of7SYirkUL1//ul1GTdtkdUXCdZUqVZLvv/9e/P2vf+m7b98+68SpqyfOAcCX6LjHrl27uvwcmStXLhk/fjzhYjopVaqUvP3229bvLh3zrWNrM8KPP/5ohcYAAABAYnQwwie98847nEgEMrl27dpZV8sD3iY2Ll6m/blb/lx+0KzYlydHsPRsX1EqlsplVrxLWncwXjVo0CAZMmSIqa7VrVs3mTBhgqkAAOqVV16RYcOGmSplEydOtAJJZBzt0td9GjXYPXXqlFlNe9WqVbP2vgsMDDQrAAAA8HUEjPBJOXLkkPPnz5sKQGak+8w8/vjjpgK8z/odp2T8zK1y7sIls2KPNofc0aiEtG9aUvz9vatTJL0CRt3HqmnTpvLPP/+YlWvxvAMACRYtWiTNmjWT+HjXRnvfd999Vrc4bozIyEirq1F/l+no7/QwYsQI6du3r6kAAADg6xiRCgAAcANUK5dHBvWuLVXL5jEr9uglYr/+s0/en7hWjp+OMqtITkBAgEyaNEmyZXM8pvbFF1+UnTt3mgoAfNe5c+eszm5Xw0Xdx3bUqFGmwo0QGhoq3bt3l6VLl8qqVavk0Ucfdfr7zl06CeDEiROmAgAAgK8jYAQAALhBcmbLIk93rir3tygjgQHudSHuOnhOhoSvlmXrj5oVJKds2bLWqHRHLly4YJ2QBQBf99xzz8muXbtMlTLtLs+XL5+pcKOFhYVZY1MPHjwon332mTXeNC3oCNaBAweaCgAAAL6OgBEAAOAG0lixZYNi8sojtaRwvtArizZFxcTJ2J+3/ve2RaKi48wqnHn66aetUamO/PHHH9Y+VgDgq37++Wdb46h1tPQdd9xhKmQmOXPmlCeffFLWrl1rjbzt0qWLBAUFmVvdo8GlfjwAAACAgBEAACATKFEomwzoGSa31CpsVuxbtv6YDBmz2upqhHN+fn4yZswYa5ycI/369ZNjx46ZCgB8x9GjR6VPnz6mSlmFChVk+PDhpkJmpb/3br75ZmtM+IEDB+T999+XcuXKmVvt0bG5zz77rFzWWe0AAADwaQSMAAAAmURQFn/pcmd5eeyeypI1JNCs2qP7Meq+jLMX77P2aYRj5cuXlzfffNNU1zp58qQ1HhAAfI2GixoyuuLqvrZZs2Y1K/AE+fPnl/79+8vWrVtlzpw50rFjR+t7aceCBQtk2rRppgIAAICvImAEAADIZGpXzi+D+oRJxZK5zIo98fGXZcZfe+Sjr9fJqXPRZhVJaaei7lPlyDfffCO//fabqQDA+2lnt45HddVrr70mDRo0MBU8jb+/v7Ru3VqmT58ue/bssS66KVq0qLk1ZS+++KJERkaaCgAAAL6IgBEAACATypMjWF54uLrc3ayU+PvrTo32bd17RgaPXi2rt5wwK0hMOzbCw8Oddm7ovmIXLlwwFQB4r507d9rq3K5bt64MGjTIVPB0xYoVkzfeeMMKGjVw1OAxJfq+H3zwgakAAADgiwgYAQAAMik/P5E7by4h/bvWkPy5Q8yqPRejYmXUtE0yefZ2ibkUb1ZxVe3atZ2eVNeTpwMHDjQVAHgn3VOvW7ducv78ebOSPN2/dvLkyRIY6N4ob2Re+j3Vkak6OnXbtm3WKNV8+fKZW6/33nvvyb59+0wFAAAAX+N3mZ254YPmz58vsbGxpoKn6dSpk5w6dcpUzumYpxIlSpgKnqZKlSpSvHhxUwGIio6Tb+Zsl2Xrj5kV+wrnC5XeHSpLiULZzErmdOjQIYdj2nr06CFjx441Vdq5ePGiVKtWTXbt2mVWEmh349KlS61uHQDwRhoSvfrqq6ZK2f/+9z95+umnTQVvFxUVZe23+MUXX8jixYvNaoLOnTvLlClTTAUAAABfQsAIwONowDh16lRTObd3714CRgBeZ+n6ozLltx0SFRNnVuwJDPCTjreWlhb1i4l7g1fTX0YHjGrevHlOR8LVqlVLli9fTrcOAK+zZs0aax/FmJgYs5I8fZ7U/Wn9tMUePmfdunUyatQomTRpkpw7d86sivz9999yyy23mAoAAAC+ghGpAAAAHqRhtYIysHeYlCmaw6zYExt3Wb7/fZeM+HaDnL1wyayiVatW0rVrV1NdS0/Af/TRR6YCAO8QHR0tXbp0cTlczJMnj4wbN45w0YdVr15dPvvsMzl48KB8+eWX1gU46plnnpG4OPcufAIAAIDnImAEAADwMLof40vdakibxiWsfRrdsWHnKRkcvkrW70h55LSv0BAxf/78prrWm2++KTt27DAVAHi+1157TTZs2GCqlOmITEfd5fA92bNnl0cffVRWrVpljRHXoPGbb74xtwIAAMBXMCIVgMdhRCoAJNi654yM/XmrnDoXbVbs0XzytnpF5Z7bSktgQOa49uzs2bMO9wNr3LixPPzww6ZKH7/++qvMnDnTVNdq0qSJPPjgg6YCAM+le9K3aNFCXD0doM99BEhIzqVLlyRLliymAgAAgC8gYATgcQgYAeBaFyJjZdLsbbJ6ywmzYl/xgtmkd4dKUiR/VrMCAPBGZ86ckRo1alivlV1RvHhxWbt2rTUiFQAAAACuYkQqAACAh8sWGiiP31tFurQpL0FZ3Ht5t//oBRk6do38veqwWQEAeKOnn37a5XBR91vUfRcJFwEAAAAkRcAIAADgJW4JKyyv9ahldSO641JsvHz923YZNW2T1RUJAPAuP/zwg0yaNMlUKdMwsmXLlqYCAAAAgAQEjAAAAF5ER5y+2qOmtKhf1Npf0R06anVw+CrZsueMWQEAeLrDhw/L448/bqqUValSRd577z1TAQAAAMC1CBgBAAC8TGCAvzzQsqz07VRVcmTLYlbtOX0uRj7+Zp38OH+3xMezZTcAeLqePXvKiROu7dWbJUsWq9MxNDTUrAAAAADAtQgYAQAAvFS1cnlkUO/aUrWse3tnXb4s8tuS/TJs4lo5dirKrAIAPM0XX3whv/76q6lSNmjQIKlTp46pAAAAAOB6BIwAAABeLGe2LPJ056pWR6N2Nrpj98Fz8vaY1bJ03VGzAgDwFNu2bZMXX3zRVClr2LChvPrqq6YCAAAAAMcIGAEAALyc7sWoezK+8khNKZzPvXF3UTFxMu6XrTJmxhaJio4zqwCAzCwuLk66du0qFy9eNCvJy5YtmzUaNSAgwKwAAAAAgGMEjAAAAD6iRKFsMqBnmNwSVtis2PfvhmMyZMxq2XngnFkBAGRWQ4cOlWXLlpkqZcOHD5fy5cubCgAAAACc87v8H3MMAB6hU6dOMnXqVFM5t3fvXilRooSpAACJrd5yQibN3iYXImPNij3+/n5yV5OScufNJcRPWyQBAJnKihUrpFGjRhIb69rz/J133imzZs0yFQBf0b17d1m7dq2prnj00UfliSeeMBV8wdy5c+Xll1821RVZs2aVxYsXmwoAgOvRwQgAAOCDwirlk4G9w6RiqVxmxZ74+Mvy8997ZPjX6+TU2WizCgDIDCIjI63RqK6Gi/nz55cxY8aYCoAv2bJli6xZs+aat4MHD5pbkVGio6Pl7bfflqNHb8ye56dOnbrucRAREWFuBQDAMQJGAAAAH5UnR7C88FB16dC8lNWR6I5te8/I4PDVsmrzcbMCALjRXnrpJdm8ebOpUvbll19K4cLuj88GALhvzpw5Ur16dRk4cKDExMSYVQAAMj8CRgAAAB+m403bNC4hL3WrIflzh5hVey5GxcqX0zfLxFnbJPpSnFkFANwI8+bNk88++8xUKevWrZvcc889pgIAZJR9+/bJvffeK3fccYds27bNrAIA4DkIGAEAACBliuawRqY2qFbQrNi3OOKIDB27RvYdOW9WAAAZSUfc9ejRQy5fvmxWkleqVCkZMWKEqQAAGWXXrl1SuXJlmT59ulkBAMDzEDACAADAEhIUID3bV7TeQoIDzKo9R05EynvjI2TesgPi2ultAEBaeeKJJ+TAgQOmSp6/v79MmDBBcubMaVYAABnl7NmzcvHiRVMBAOCZCBgBAABwDe1iHNgrTMoWy2FW7ImNuyw//LFL/jdlvZy9wD4yAJARpkyZIt99952pUvb8889Ls2bNTAUA8GWtW7eW5cuXX/O2cOFCcysAAI4RMAIAAOA6uh9j/6415M6bS1j7NLpj467TMnj0alm/45RZAQCkh/3798tTTz1lqpRVr15dhg4daioAgK/LkyeP1K1b95q3sLAwcysAAI4RMAIAAMAhf38/ubtZKXnh4eqSJ0ewWbXn3MVLMuK7DfLt3J0SGxdvVgEAaUX3W9R9F3X/RVcEBQXJpEmTJDjYved1AAAAAFAEjAAAAEhWxZK5ZFCfMKldOb9ZsW/+ioPy7rgIOXScvWYAIC2NGDFCfv/9d1OlbPDgwVKzZk1TAQAAAIB7CBgBAACQoqwhgfLYPZWly53lJSiLey8h9x+9IEPHrpG/Vh0yKwCA1Ni0aZO88sorpkrZLbfcIv379zcVAAAAALjP77LOUwEAD9KpUyeZOnWqqZzbu3evlChRwlQAgLRy+ESkhP+0WfYduWBW7KtZMZ90b1tBsoUGmhUAgB2XLl2SRo0aycqVK81K8nLkyCERERFSpkwZswIgJRcvXpSlS5fK4sWLrb1OY2NjJWvWrFK8eHFp3bq11KpVS/zc3aw6k2jYsKEsW7bMVFe8/vrrMmTIEFO57ty5c9bHWr58uRw/ftyq4+LiJDQ0VEqXLi1Vq1a13kqWLGn+j7S3Z88e67lO3w4cOCAxMTGSJUsWKVKkiPX9ql27drr++67Sz08/n6T27dtnPb7SwunTp+WXX36Rf/75x/o+FC5cWO644w7re+7vn/49J9HR0fL3339bbydPnpSoqChrPHelSpWkcePG1h6PgYHp/7fA1q1bZc6cObJ9+3brZ1oVLFhQGjRoYP0eLVCggLWW3g4fPixr1qyx3vR8ld4/AQEB1r+vkwX0/qhQoYJ57/Szbds2+emnn6z7Re9//X60b99eypYta94jZfpztmTJEtmwYYOcPXtWzp8/b30t+lqjcuXKctNNN0m1atUkV65c5v8A4K0IGAF4HAJGALjxYuMuy4/zd8sf/x4Qd19M5s4eJD3aV5TKpXObFQCAqwYOHChvv/22qVI2ZswY6dmzp6kA36Y/P8OHDzfVFRrEtGjRwjo+dOiQvPHGGzJhwgQroHJGQ6s2bdpYncR2gwEN4Zo1a2aqBBpk5s2b11Su0xBHw6OkTpw4YQV8zqRFwKh/n48fP17mzZtnhbAp0fvq4Ycflt69e0uxYsXMqvs03Pj666/liy++sIK7lNStW1eeeuop6dy5s4SEhJjV9HXkyJFrLvDQ07EauCWln0/S0HrkyJHXPX+PGjVKXnjhBVNdMWXKFLn77rutY33Of/75562QNykN1/r06WM9brNnz26tTZs2Tbp27WodX6W3HT161FSumzFjhnz11VeyYMGC/w/0HNHAU7vqH3/8cSu4V19++aX1eSf23nvvyTPPPGMq1xw8eND6/2bNmiU7d+40q9fT+/q+++6TQYMGWYHYVTlz5rzmsayhrwZydunzxw8//GA9NhctWmRWndNw7sknn5Tu3btbn4Ndbdu2lfnz55vqCv350EBZvxd6P+pjw5Hq1avLa6+9Zv1cOKKB9eeffy7ffPONFSymRP/N5s2byyOPPCIPPPAAez8DXooRqQAAALAtMMBP7m9ZRp7uXFVyZstiVu05fT5GPpmyXqbP3y1x8VzzBgCu0o6qd99911Qp0xPOhItAAj3pHxkZec2bdnip3377zeroGT16dLLhotIgcuzYsdaJ+aFDh1qhkav030v6Oeibu30Aaf3xXKFdTLfeeqt1EfCvv/7qUriotIPqzTfflHLlyskHH3wg8fHx5hb7pk+fbgV3GlK5Ei6qFStWSI8ePazvswazGUG/D4m/L47CRaXrid9P37RjPSldS/p+V+9/DSQ1vHUULioNDfXxqkHgVfr/Jv14yYWDjmiIetddd0mHDh1k9uzZKf7/2tHXr18/K1RbtWqVtebo63L09SdHw1f9mLpHcXLhotLvy/fffy81atSQAQMG/P/Pi37uST8PuxYuXGg9xjRMdyVcVJs3b7ZCQO0m1Me2XY4eP/o16c+Yfl+chYtq3bp1VrCpFyUk9fPPP0uVKlWs+8iVcFHpv/nnn39Kt27drI5G7QQH4H0IGAEAAOC2qmXzyKDetaVauTxmxR79G37Okv3y/oQIOXrK8YkWAPB2ehJYu5Z2794tu3btskbknTp1ytx6rQsXLlhdJlfDkJRop4oGJQBSpp14OirQWTDjjI461K4/DVdSCiW9hYaE9evXt7rU3KX320svvSQtW7a0HeBokKIh4b333muNY3WHTj3SgFQ7Wr2FdqNqaJcS7Y675557TJV6q1evtka+asegXfo7T/cIdidQS0x/Lz700EPyxBNP2P4Z1hDunXfesR5Pdh+LSenH0k5A7d7T3+vu0JBPPxcNiu0GrI689dZbVodxSvT5L1++fKa6QrtKNZzUQNhdGvQ2bdpUPvzwQ7MCwFsQMAIAACBVcmTLIn07VZUHWpWVwAD3Xl7uPnRe3h6zWpassz+GCQA8gZ5w1Kv+tXtAR9PpiceKFSta+xXpiV4d7a9dONq1oPuD6YhEHWuoazfffLN06dLF6sbQkYq6j5SrwsPDM2x/KcCT6VhBDSeSnszPnz+/FcRoEPbcc89ZgZSzsZratdW3b19TeS+9AELHsTobn6l7HtapU8cKDvX9NFjQ5zpn9L63c79piNuxY0drLKsz+n3Tff7039fnzTx5HF8Mp11WOm766aefNiueS0NXHW/pSsit75fc6Fw7tHNRg6nkAigdh6rjeHU8raPHgnYMaifsH3/8YVbse/XVV60xsc7oiE4NQXXfRWf7Df7444/W71t36e96/R2vUwacdebq73y9L26//Xa57bbbrPvGGX3NcP/997vcHeyI7pXo6kj1pNMOtDNZxwnr1+WI/lxpOKxfS6tWraw9Tp3t76n3hz6Papc4AO9BwAgAAIBU051iWtQrKq/2qClF8l/ZQ8Wu6Jg4Gf/LVgmfsUUio93/IxoAMgsdw6djAPXEm56E0/2dtBtBQ7+//vrL6gDSvZGc0ZPF2v3wzz//WPuL6di0lStXmltTpv9Wu3btTAUgOcOGDbumM1hDEF3T7mLdn06PP/74Y2vk344dO6zuOUcn0rVjWPef82Y6XtPR6El9vtH7R/dq0+c/7ZjSgEKf77Qj6/fff7eCKEd01KyOaHRFr169nIYUGiZqyHTgwAFrJKP++9plefLkSavLTsMjR983HSv6/vvvmyrt6YUeep9dfdMw2hF9vk/8fvqmwbcrPvnkk+s65jTs1QtVdA/BxNJqbLYG8rqHof6cJBUYGCiPPvqodVGMjhPWoEv3HtXHh36dSfcM1RDtp59+MpU9+j3XcbuO6Ahj/bhnz561HgP6b+vPsAbkgwcPlly5cpn3vEI7KV2dEpCU7uXobAyphm/63KD7Q+p9oY9hDVT1vtH9HTXIc7RPoY6ytbsHZWK6p2XSsFNDTh1RnHi/V32M6OuVq/R7q59T0vtCL7DQ1zb686o/1zpmWL+WuXPnWq9RNHDW/WsT7zl6lQaVrnTYAvAcBIwAAABIM8ULZpMBPWtJ0zDnV+KmZPmGYzIkfI3sPGBvtBEAZAbaOTJp0iRp0KCB1KtXzxpLpifdzpw5Y94jY2h3hoYhAFyTuENH903TvdC028bRCf+iRYtagZiGREFBQWY1gXbDbdy40VTeRS+K+Pzzz02V4MUXX7T2adMOz6xZr7/YTIOuFi1aWGGJjqJ0ZNy4cebIOe0wmzx5sqkSZMuWTX755RcrTNTuPEffF+1e0+dnDR0TBytX6ahUvfAjPQQEBFiBy9U3fQw5crWbPfFbct2fiWmoe5V2cOpoSw17NKTUMaQaumrApaM39XdUWtA9+RztL1ihQgWra18/Bw2yEtOAV7sI9fugAVvSgM8uDQs1dE7Kz8/PCl3XrFlj7UWc9DGhoa9+z3U0ubPg2w4N1xw9tjVo1ftdb9fuRn2sJqX3l4bcGn6WKlXKrCb44osv3B5HnPhxod/3OXPmWMGgBr86XlhDV/0+ahdx4vD9hx9+sO6bxPTnWC8ieOONN6yLpvQ+Tkofe7rvot7v2r2clD436ihfAN6BgBEAAABpKkugvzzcprw8cV8VyRYaaFbtOXEmSj6YuFZmLtor8U5G8gBAZqInbnUPNj05rCfW/v33X3PLjaEn0bNnz24qAK4qVqyY1XnnLABKTLt9HI3p1AsN3nvvPVN5F+0KTLpHnQYiro5gVDrKUjsNk9JObWdjJZXu2ahBZlI66lNDE90D0xWtW7e2whrt4kpMv286BtfTacCjv4O0ezDxaFh9TGvApcFRWtAOQA3FktLfgxoc6hjwlOiIUP3eOQrdXKWhnqN9E/Uim2effdbpyM6r9D76/vvv5c477zQr7tF/K+njV//tb775xrrfXaFdjvozlrTjVOnHd7ezUmnH6MKFC63Hv4aeSgNCDd715/fll1+21q5ytGej7m+p4bAr9OdLX4s4ukhD1wF4BwJGAAAApItaFfPJoN61pVIp965K1mDxl7/3ykeT18nJs9FmFQAyFz2Jq/sjlS5d2hob6GxPsoymYad28wCwR7vjNCBx1YMPPuhwhKWObMwszwdpadWqVeYogXYtOgoRkqPPl0np/aWdo86MGjXK6sZLSsfS6l61dujYTEfhmHalaheZJ9MOU+18TG+fffbZdcGeBlZTp0619TOkXXWOvheu0A5NR2GVdrFqIOcq7W789ttvbX3eiWlnrgaDSekUA32NYIde5KBhe9LuwLVr18p3331nKns0RNUOYe1AdJWjn/U2bdqYI9fontIadCelY5MBeAcCRgAAAKSb3DmC5PmHqkuH5qXF3//6ETqu2LbvrAwJXy0rNx03KwBw4+lJVd3XSK/k124Q3TsqM5k/f7418k33xjp27JhZBZAc7Uhs3ry5qVyn+64l7ZLS5wTtXPI22kWYlDtBauPGja1gqUOHDtaebDoCUjumNJBwRkOXpPTiDg153aH7MTrqFNOgyVOVL1/edqDlDu3UczTSVsevNmzY0FSu085/DX3tmjhxorVXYGIaojkbw5scHUWrI1Pd4eixqV2ZOi7ZHTpa1FGnoLuPTd1zs3Bhe1tY6D7QSbnzs64/4/qY0J833btRA2Fn+1QC8DwEjAAAAEhXevFtm8bF5eVuNaRAnhCzas/FqFj56sfNMnHWNom+5P5oIABIC0uXLpWwsDBrb6fkxvllBtOmTZOqVavK9OnTzQoAZ3TPRXfono2ORn56Yxdx4pGbV/32228Ou7eSo91Z+lyqeyp++OGH8vjjj0vLli2djnbes2ePLF++3FQJdGRjSiMwndHPwVEYp8+biffk9CTt2rUzR+lLvxe6r2NS7gZq+j2003F4laPfbToq190Ozh49ekju3LlN5Rq94Eg7X5PS0DQ1+0t26tTJHCXQPZ3Pnj1rKte5s8eko31Khw0bZu3DaoeOwV2yZIkVLOrejRo01q9f39wKwNMRMAIAACBDlC6aQ17vFSYNqxc0K/YtjjgiQ8eskb2H7f1hCwBpQTt3XnnlFWnSpIls2bLFrGZ+2sGoXSU6xvHkyZNmFUBiuo+f/my7y1HAuHr1anPkPW655RZzlEAvtNBQRzva0qub21FYq51qvXr1MpV7HAWMBw8etMZReiLtfMsIK1asMEcJsmbN6vL+fI5owGyHPtbWrFljqgQtWrQwR/bp3oR2u5j//PNPuXDhgqkSaPidGo4em/o6RCcU2KFfkzvfF0c/6xs3brT2cLzR+0wDyDwIGAEAAJBhQoICpEe7itLr7koSEhxgVu05cjJShk2IkLnLDohnXlsOwBOtXLlS6tSpY129HxfnmZ3UuidctWrVZObMmWYFwFV6Al73YXOXo1Di1KlTsnv3blN5B+3eLlq0qKkSnD592hrDWKRIEasLTEc5puV45g0bNpijBDpONV++fKZyT82aNc3RtTzpIpLEKlasaI7Sl/5OTEoDKTt7/CVVqlQpKVeunKlSpmGXozGeqQkYld3/39FjU+8HnR6QGvqzVLDg9Rdm2n1sajenO9+Xtm3bmqNraTeijjfWkbYDBgywAs+YmBhzKwBfQ8AIAACADFe/agEZ2CtMyhbLYVbsiY27LNP+2CWfTlkvZy/wBy2A9KXBnO4f5OgkYmoEBwdbJ/5uvvnm/+8wfPjhh62uBQ0rKlSoYO3hlJYOHTpkjdDTMWUAEriz92Ji+hyhIzeT8rYuRv0ahwwZYqrrHT9+XMaPH2/ti1ioUCErkNTO77///jtV3Y3btm0zRwk0NPn+++9T9TZr1iyHz7OO/r3MTseM2gnoUmPVqlXmKEFquhevctQ154yjz0HHm1auXNlU7rHzOShHjxXdz1FH7Tp6zNl5067QpOw+NvW1hDu0G1a7FZ1Zv369tdeljkDV0clt2rSRTz/91CN/dgC4z++ypw4VB+CzdA791KlTTeXc3r17pUSJEqYCAGRG8fGXZeaivTJ78T5x91VpjqxZpNtdFaRG+ev3CQGA1NJwsWvXrqnuWtST8rpPm56A1SBC/6vdDa7sHbZjxw6rY0D3K9P/6ui+tBhDOHDgQBk8eLCpAN/x8ssvy/vvv2+qKyZPnmwF/KmhQdXFixdNdYV2PTva21F/nh0FMhrQudOVp11EeqI/KR3d6CikuEqfj5YtW2aqK15//fVkQ0Slz4t6n9mh+9G1atVK7rzzTmtPODtfZ+nSpa19GDPKI488Yo18TS8RERFSq1YtUyXQfQ2LFy9uKudGjBghzzzzjKmuKFy4sHURiTu+++476dy5s6mu0Mezs/32dKRw0u7Bjz76SJ5//nlTuadfv37Wx0lM9+jU9aReffVVee+990x1hXa1pvZxot8D/TiJ6ffE0Z6T6tZbb5UFCxaYKv3pxRDOxqRq96WObE1M9zf94osvTGXP/v37raBx165dZsU15cuXtwJH7YLUz0nHtALwTnQwAgAA4Ibx9/eT9k1LSb+Hq0uenMFm1Z5zFy/JZ1M3yrdzd8il2HizCgCplxbhonZT6AlXvaJ/06ZNMnbsWHn00Uet0WKuhItKO1K6dOkiI0eOtMbSHThwQN5++22XTkInRwOEQYMGmQrwbRqYpJajjxEZGWmOvMvEiROt8YiOujadOXPmjPzwww//P0q1Q4cO8tNPP1l7OKYkLcetuuLcuXPmyHNoV3xG0F4VR6NJkwuyXWXnYyQN81VGfw4qox+bZ8+eNUeuSc3jQl9n6AUIjRs3Niuu2b59uxWC33HHHVKsWDF57rnnZN26deZWAN6EgBEAAAA3XIWSuWRQ7zCpXTm/WbFv/opD8u74CDl47PqTDQBgV2rDRQ0QR40aZV39r90YaTm2Tvdk0hP72lGgI9SaNWtmbrGPkBG4Ii0CRkcn8i9dumSOvIsGi3qhw/Lly+W+++6zvceb3i8zZsyQjh07WnvDpjRKNqPvR0/8vrl60UpqOdtvLyDAvf3VE7PzOHL0eWT056Ay+2MztY+LAgUKWCOOdfSxo67blBw9etQanar7nWqXuCeG9wCcI2AEAABAppA1JFAeu6eydGtbQYKyuPcy9cDRC/LOuDWyYKV746EAQKUmXNQT5TqeTMeYPvbYY2m+h2JiOnJMT+zraDb991q2bGlusYeQEdCx7amfguCoqyujuspulDp16lgXOugWJUOHDrVqu4GGdnfrXrT63OuMnU7JtMCOUs45G3eZFt26dj6Go88joz+HG+FGPDY1uO3evbt1IYB2NPbp08f2FAX9vL/55hupX7++7Ny506wC8HQEjAAAAMhUbq5ZSF7vGSYlCmU3K/bomNQpc3bI599vlAuRqd+jDIBv0RPl7oSLevLtlVdesUaY6n5MGU07JufOnSufffaZW6GmhoxvvfWWqQDfk17BRFp0RroiLfZlTQ3d/++1116TFStWWCMjdRSq7v2me7G5Qu87DTD+/fdfs3KtoKAgc5TgnXfesUKL9Hj7+eefzb+CpPT3nY7/Tiqjw738+a+ffJLRn4NydBGBjkJ39LhKi7cbPWpUA8KvvvrK2pNy8+bN1vh27UR29JhwRP+fu+++W6Kjo80KAE9GwAgAAIBMp1C+UHnlkZrSskExcfd69YhtJ2Xw6FWyefdpswIAydu9e7e1N5jdcLFSpUqyaNEieffddx2eBM8o2uHz5JNPSkREhNxyyy1m1XUaMM6fP99UgG+5cOGCOXKP7gfnqIOxcuXK5sg17gaFzsZW3gh58+aVe++9V7744gtr/1l9bv3yyy+tteRCCB39+PTTT5vqWo66pQ4fPmyOkNEqVKhgjhLo2O7U0tDKVY4+Bw23z58/byr32PkclC8/NvX1z1NPPSXTp0+X48ePy9KlS63XEtqR7KzTVa1fv966IAqA5yNgBAAAQKYUGOAn97coI888WE1yZnPvhP3p8zHyyZT1Mv3P3RIXz6grAM5pV0CPHj1sn5h85plnrJFhDRs2NCs3nu73qGNTde/H5E7wJaX3gQas7I8EX7RmzRpz5J5//vnH+hlKqm7duuboWs5GfrobMO7Zs8ccZT6lSpWyOrq0q1EDIB2Fql3XjmgH44EDB0yVoGLFiuYoQVoEWnCPBktJ6e+d1NCfn7/++stUKXP0OejPz+LFi03lHrsX2vDYvEI7Wxs0aGCNXNeLrg4dOiRvvPGG5MqVy7zHtTSUBOD5CBgBAACQqd1UJrcM6hMm1cvnNSv26Lm+OUv3y7AJEXL0ZOrHJgHwTjriy+7J0bfffls+/fTTDBuBaIfugfb888/Lt99+aytk1E6jF1980VSA7/j777/NkXsc/f/a2aSjQx3JkiWLObqWuwHj9u3bzVHmps9HnTt3tsZJ33HHHWb1WvPmzTNHCRyFOH/88UeqO0/hHkcX1ejoyyNHjpjKPt1L+MSJE6ZKme55nD379Vsq2AkpHUmLgFHHmPp6AK4jbN98801ZtWqV5MyZ06wm0G5HLmgCPB8BIwAAADK9HFmzSN8HbpJOrcpKYIB7L2H3HDovb49dI/+sdf/EBwDvpCP8dP9EOzRcHDBggKkyLx1JaDdk1L2V5syZYyrAN+ho4bNnz5rKvoULF5qjBM66F5Wzn0k7AUtiW7duNUfpR8M8DQXGjRsnL730ktx1113SuHFjc6s9GrDqBRqOOjkddTA2atTIHCXQsbSzZs0ylXsOHjxo7SnXqVMn6/eAPv9pwKmdlnBO99xz9L1Lze+O3377zRy5Rvc+vPPOO02VwO7HSezMmTOyZMkSU7nG0WNTTZ061Ry5R0cuN2nSRO655x7rwh8dKfrrr7/K/v37zXukH+0+1H2d9Wf0sccek6ZNm7q9T3PZsmWt54ukdBx9agJpAJkDASMAAAA8xm31isqrPWpKkfxZzYo90TFxMmHmNgn/aYtERrvXIQDAu8THx8sjjzxinah2laeEi1e5EzL27t3bOtEK+Ao92a0jPN2hFyk4ChgdhR9XZc3q+LWMO11PkZGRqe7acoV2aWqYoqOUP/jgAyvc0zDG7p51V2nnV548eUyVwFFwpfdljhw5TJVgwoQJ5sg9Y8aMkeXLl1th0LBhw6wwpXXr1taIx/SkXeaOOBqzmxkVLVrUYRfje++9Z/1etUt/B3/88cemcp3+fktKx5ZrEOeODz/8UKKjo03lmrCwMIf7QU6aNMmt++Kq77//3hr3+uOPP8rw4cOlb9++1s9BaoNLV2jYfvvtt8tzzz1nhe76/KaBo7s0xHfE2ahoAJ6DgBEAAAAepXjBbDKgZy1pVruIWbFv+cZjMiR8tezY736nAgDvoPsU6t5prvK0cPEquyGjdkg8++yzpgJ8wzvvvOPWiNIhQ4ZYAWViGoY9+OCDprpeiRIlHJ5cdxRUpmT06NG29491h4aLjj5nDWXcoR1ajj5vDa+SCgkJkfbt25sqwezZs90OkzTM1VAxKR17reFKetL96hyxG27dSDqGO6lNmzZZnXZ2aXecO91s2klZunRpUyXQjjk7Fw4pvVDgk08+MZU92gGb1IYNG2TUqFGmsuf06dNOJytoR2N6u/nmm81RAn2tZOf1UmKOOrP19UjBggVNBcBTETACAADA42QJ9JeH7ignT95XRbKFut6Rk9iJM9Hy4aR1MnPhXon3kKvFAaSto0ePysCBA02VsgceeMAjw8WrNGQcNGiQqVKmnUHunkwEPNGOHTts/4xrd9HkyZNNlUA74RztD3eVjncsV66cqRKEh4fb6mLUn1G7I57dlTt3bofBw5dffunW2Eb9/2JiYkx1hXb2Oev8fOGFFxx2/j366KPWqFM7tFOwV69eDvdw1A5uZx2macXZ3r0nT540R5nffffdJ7Vq1TJVAv0+TZ8+3VQp0y7S999/31T26KhdR7/X1q9fb31+SR9fzhw+fNga+etuUP/4449LtmzZTJXg1VdftfZjtEs7Bx09ptu1a+cwUE1rGrA7uiDp9ddfN0f2/O9//zNHCXTsqqOuZACehYARAAAAHqtmxXwyqE9tqVw6t1mxR4PFXxbuleGT18nJs55zxTiAtKFjv7SDxhWFChWSzz//3FSeS092JrcvXFKOTgoC3kyDDu1sdoV2znXp0uW6sZYaNDjacywpR11yGnjp2GZHwVdSOsZTu/p0RGpGcXRRhnbdaVeVnXBsy5YtMnToUFMl0ADTWVdT7dq1rTAxKQ03NazQgNgV2m369NNPy/z5881KgpIlS1qdrOmtSBHHkzhmzpxpjjI/7WbVUblJu1q1C7hz585Wx39ygZ0+xrULUgPd1OjWrZvUrFnTVAn051PH3a5atcqsOPbHH39Yj63U7GNarFgxhz8buq/rbbfdZo3hdZV21Toa/ZszZ84Mex1SqlQp635NSn9m7IaM2sXpaF/LjOjEBJD+CBgBAADg0XJnD5LnHqwmHW8tLQH+7u3jsX3fWWtk6opNx80KAG+nJ0DtjC7TTpt8+fKZynNpR4KeuNTuKVdoF8qhQ4dMBfiGfv36WSe/N2/ebFauderUKXnttdesjqekYxg1bBk/frwUKFDArDjnKCxTutdhgwYN5LfffpNLly6Z1St0T7d///3XCiGbNWt2zejBjOgG0sDGURejBiga0vzyyy/Jdo3pbTquuXHjxnLs2DGzmuCNN94wR45pKOkonNNwsV69etK/f3/ZuXOnWb1eRESENG/e3OkYT32uT67zNK3oyNe8efOaKoGGmxq66f6W8+bNk++++876nDOrli1byjPPPGOqBPq41cCtTJkyViClYZ+GymvXrrVCKg14dRSuKyNJHY3lTUzHzX799dcOu051b9I6depYo1THjRsna9assX6uly1bZl1kpI9Z/RpS+j2X0uegtHOzevXqpkpw/Phx6zGnXY769Tujj2H9PJ11JGvwWLx4cVOlP/3+aYdoUvozqJ+ndokmR3++9bH8xBNPmJUEGuT36NHDVAA8md9lT9k9GAAMnW3vyqbWe/futfa1AAD4jt2HzsuYnzbL0VOudSQ50rhGIel8e1kJzuJ4bxwA3uH777+3Rp66omvXrjJx4kRTeQft0nr55ZdNlTwdP6f7YwHeQh/7roxk1OBCu49078H8+fPLuXPnrCBNO5702JHBgwfbGr18xx13yJw5c0x1Pe1a0jBOuyK140vDRUedgg899JAVfCbdj1D/n+TGfTZs2NAKWxLTQEj3lXRGQ5omTZo47bLUgE5Dm/r161v/tp561E427WJasGCB073xtJNN95NMif77Gq5qd5gjGgZpd6iGtLly5bL+/X379lnhZ3Jdjhn9XK+fn34/U6KBd9J9LkeMGHFdsKdhXnLhanI0yNSuw8T0MefKyFC9YEfH2mogmhrahaqhVdLH98cff2yNDE3JtGnTrK/BnX1Ur9KLb/RnPunPkXb07d6921TO6eNMf16TGxmsAX2LFi2sx6Y+VnVcu3auJhfY6eNdg9mUgk79uH/++aeprtCQz9Wu7KS0CzW55zO9X9q2bWv9V8f+6gUE+vX8/vvvsnr16uu6u5V+Dfqc16pVK7MCwJMRMALwOASMAABnIqNjZcLMbbJ6S8LV/HaVK55T+nSoJHlyutbdA8Az6ck67RJKiXZYbNiwwdp7zJtoF5QGBI7GliVVuHBh67W1o04GwBM5Chi1+00DxaVLl5oV+9wJqPRnS8cWO+rmc5V2W06ZMkU6dOiQIQGj+umnn+T+++9PVZiTmO6Xp/eds70Jk9LPWTtItTssLej3Tve/DAoKMivpT0MfDQ9Tol+nhqOJZaaAUWmw9NRTT1n3oTt01O+kSZOkbNmy13TlKv1a+/bta6rkafivFw+5s5elTinQ7lp9Dkgaqul+qdu3bzdV8jTE1vDMzl6qydGPpRdFaSCZkrQOGFX37t3TLHjX1xFffPGFtf8pAO/AiFQAAAB4hZ0HzlljTt0NF/WC4DtvLiEvdq1OuAh4uXXr1rkULirdR83bwkXl7++fYoBw1eHDh+WHH34wFeCdNNjSrpt7773XrLhOgxgduenOSXgdFfjPP/9IrVq1zIo9eqJeL8DNyGBMaZg5d+5c6wKE1NBuJu361K/B1XBRafefdnzp55Ea2rE2fPhw63uX0ffhk08+aV3okRJno3ozE73vtPt0zJgxti701p8dHbmpgbV26+r+mEnZubhFAzbtCtVQNqVuv8S0e3LlypVW521qPwcNI3WsrbMRyK7SCx505O/s2bNdChfTi4581kkG+rohNXRvVQ0/CRcB70LACAAAAI+m8zhmL94nH0xaKyfORJtVe3LnCJIXHqoudzcrJf42TkYA8EwjR440R8nTMX+6z5m30hOxVapUMVXyXL3PAE+mYYd2CmlY6Mqeq7qPnj5HbN261QqL3FW+fHmra0r333M1sNOuRw1EtWNMg4gb4dZbb7XCLx2j6Mqek4npfaddg3rBh3aL2QmDripUqJD8+OOPMmPGDGskqp0ARLs6tStOu81077wbQe8DHY3ZpUuXZL9+7YRLbl/LzKRnz57WfaqhVJs2bazRwknp90n3KtTQas+ePdZ+ple/fkcdsXaCZ6UBn3Z86mPrsccek6pVqzp8bOhjVrt/9YIj3atRx3yqtPgcdD9U3c9TP65259oJr/V99TGxceNGq9Na906+kfR7o2PS9f7UUcx2Px/dN1JDZH2edCVQB+BZGJEKwOMwIhUAcNXpczEy5uctsnXPGbNiX82K+aR72wqSLfTG/vEOIGPo3l96UtHZHmCJPf7449YoL2+mQYqro+f05GK1atVMBXguRyNStYNJw4Cr9DlC93RbuHChNY5TR3FqkKedRLrHmnZIaUif3PhRd1y6dMkac7po0SKrE+tquKRhVIUKFawT9DriWd+S0p/RpOMl9etKLnhbtWrVdXsZli5d2nqzQ8cu696IV8MaHScZGRlpvSkNaCpWrCi1a9eWsLAwa5+7PHnyWLelFT0HMGvWLGustXY3angVHR1tBSIaHufNm9e633TkpO6Dl9Edi8nR+0u/5/r90Mea3p96n2nopfeX7nGYuIvuwIEDsm3bNlNdoe+vnZ3u0BG9er8lpo/3W265xVTu070LtRNeH9v6OVauXNm6gMcRvT0q6tq91PVnMLXBlI4K1jBcH4/681CkSBFrpKwjr776qrz33numukI7m1PTya/fUw09165da93PGsLq56L3sT42rz6v6GNTH6O65g7tnNS9WBPT82IauqYV3X9Wu67153zx4sXWY0e/Fv2+6WNUv5YaNWpYj1sdPa3fuxt1EQSA9EfACMDjEDACAFTEtpMyYeZWuRDp3t4/WQL95b4WZaR5nSJmBYAvWLBggdV14wo9Qa2dD95M99cqVqzYdQGDI3b2wQIyM1cCRgAZS8NxRx2PGk5qt2pG0c7ayZMnm+qKV155Rd59911TAQCuYkQqAAAAPMql2HiZMmeHfP79RrfDxSL5s8qrj9QkXAR80JIlS8xR8jSE9PZwUWkXSffu3U2VPFfvOwCA9zty5Ig5Shva1ZeUjhpNLlzUbj3tUk1Ljj4P7R4GAFyPgBEAAAAe49Dxi/Lu+AhZsPKQWbHvlrDCMqBnLSlW0L3RQwA8m6shme7b5Ctc/VoJGAEAV2nophep6DhMHSGqncGpCR0ddRCnFOx9/PHH1phiHSWrI4v199nPP/9sbrVPx3/qmNqkCBgBwDECRgAAAHiEhasPyzvj1siBoxfMij1ZQwLlsXsqS5c25a3xqAB809KlS81R8po3b26OvJ92auq+lCnRveDSumMFAOCZ9PeG7m2oe39Onz7dGjs8d+5cc6s9un/f6NGjTZXgpptuMkeO6eeg+1XqFjl//vmnfPXVV/LWW2+ZW+3TzyFpR6Sfn5+1byQA4HqcWQEAAECmdjEqVr6cvlkm/7pdYi7Fm1V7ypfIKQN7h0ntytfv6wLAd+jYs2PHjpnKuTJlymTofk+ZQcOGDc1R8lwNaAEA3q169ermKMGnn35qjuwZOHCgbNu2zVQJunTpYo4cc/Q5aAfiwoULTeW67du3y+uvv26qBLfffrtLF+EAgC8iYAQAAECmtX3fWRkSvlpWbT5uVuzx9/OTu5qUlH5dqkvenMFmFYCvWr58uTlKnqthmzdx9Wv+999/zREAwJc1bdrUHCVYuXKljBo1ylSumTx5sjXqNCntXmzdurWpHKtTp45ky3b9tgcvvPCCNe7UVYcOHZL77rtPIiMjzUqC5557zhwBAJIiYAQAAECmc/myyMxFe2X45HVy8uy1Y4pclSdHsLzwcDVp17SkFTQCwJ49e8xR8ho1amSOfIerX7OOoQMAoGfPng7DvSeeeMK6bfPmzWblepf/e7Gvo1W7d+8uXbt2lbi4OHNLgmHDhlnjSZOTI0cO62MktWLFCqldu7b89NNPDkPDq06cOCFjx46VsLAwiYiIMKsJdF9H7WAEADjm998T+mVzDAAeoVOnTjJ16lRTOacnP0qUKGEqAICnOHUuWsbO2Cpb954xK/bVqphPurWtINlCA80KAFzpQnBlfNsff/wht912m6l8g46OLViwoKmc05Otv//+u6kAz/Tyyy9b+8Ulpt1Yf/31l6kAuGL48OHy4osvmup6xYsXt36f6u+XoKAga69FvdhHf9aOH3c+oUR/Pvv372+q5B04cMDqZHS2R3BwcLA0adJEatSoISEhIRIbGytnz56VJUuWWCGns1Pj+v66r2O+fPnMCgAgKQJGAB6HgBEAvNearSdk4qxtciEy1qzYkyXQX+5vWUaa1S5iVgAgwQMPPCDff/+9qZzbtGmTVK5c2VS+QU8N6EnYS5cumRXHqlSpIhs3bjQV4JkIGIG0o92K48aNM1XqDR06VF577TVTueaff/6xxqleuHDBrKRO1apVZf78+ey9CAApYEQqAAAAbrhLsfHyzW875IsfNrkdLhYtkFVe61GLcBGAU4cPHzZHyStatKg58h06hq5w4cKmcs7V+xAA4BvGjBljdTLqRSqpoWHexIkTbYeLqnHjxrJs2TKpWbOmWXFfly5dZMGCBYSLAOACAkYAAADcUAePXZR3xq2Rv1YdMiv2Na1d2AoXNWQEAGeS24fpqixZskjOnDlN5Vvy589vjpxz5T4EAPgOvUDlhRdekO3bt8uzzz4r2bNnN7e4RkeQvvnmm7J161ZrP0Z3adfhypUr5euvv7bGm9rh7+8vbdu2tTohJ02a5NLvQwAAI1IBeCBGpAKA9/h71WGZ+vtOq4PRHVlDAq29FsMqsTcKgJSFhYXJmjVrTOVYaGioXLx40VS+pX79+rJ8+XJTORYQEGDtXwV4sn379ln7tiWmFxbcdNNNpgLgLh21rb9LtAtw4cKF1t6I+ns1JibG6nLMli2b1WnYqFEj601Hb2vAl9b0nJB+Dvq2YcMG63PQN/239He97g959XPQ33++enERAKQGASMAj0PACACe72JUrLXX4uotJ8yKfRVK5JRed1eSPDlTN44JgO+oXbu2rF692lSO6cnPqKgoU/mWunXrWt0fydEOTz1JDAAAAMC3MSIVAAAAGWrbvrMyOHy12+Giv5+ftLulpLzQpTrhIgBbNBxLiYZncXFxpvItrgSrrtyHAAAAALwfASMAAAAyRPzly/LLwr3y0eR1cupstFm1J2/OYOnXpbrcdUtJK2gEADvy5MljjpzTIT86zs0XHTx40Bw558p9CAAAAMD7ETACAAAg3WmgqMHizIV7raDRHbrP4sDeYVK+BPujAHBP0aJFzVHyXAnavI12L546dcpUzrl6HwIAAADwbgSMAAAASFc6ClVHoupoVHdkCfSXh9uUl8fvrSJZQwLNKgDY52o4pnt5+xpXv2YCRgAAAACKgBEAAADp4lJsvHz963YZNW2TXIyKNav2FCuYTV7rUUuahhU2KwDgPlfDsX///dcc+Q5Xv2YCRgAAAACKgBEAAABp7uCxi/LOuDXy9+rDZsW+5nWKyKuP1JSiBbKaFQBInSpVqpij5C1ZssQc+Q5Xv2ZX70MAAAAA3o2AEQAAAGlqwcpDVrioIaM7soUGyhP3VZEHby9njUcFgLRSv359CQgIMJVzK1askNhY9zqvPZWrAWOjRo3MEQAAAABfxhkbAAAApIkLkbHyxQ+bZMqcHdZ4VHdULJlLBvYOk1oV85kVAEg72bJlk2rVqpnKuYsXL0pERISpvJ9+vWvXrjWVc6GhoVKzZk1TAQAAAPBlBIwAAABItW17z8iQ8NWyZusJs2KPv5+ftG9aSl54uLrkyRFsVgEg7bnagTdt2jRz5P1mzJghcXFxpnKuTp06kiVLFlMBAAAA8GUEjAAAAHBb/OXL8vPfe2T41+vk1Llos2pP3pzB8mLX6tK2SQnx8zOLAJBOXA0Yw8PDJTravec1TzNixAhzlDzGowIAAAC4ioARAAAAbjl5Nlo+nLROZi3aJ5cvm0WbalfOb41ELVc8p1kBgPTlakh27Ngx+e6770zlvVatWsX+iwAAAABsI2AEAACAbas2H7dGou7Yf9as2BOUxV+63FleHrunsmQNCTSrAJD+KlSoIDVq1DBV8kaOHGmOvJerX2POnDmlVatWpgIAAADg6wgYAQAA4LJLsfEyefZ2+XL6ZrkYFWtW7SleMJu81qOW3FKrsFkBgIz11FNPmaPkLV++XJYtW2Yq73PixAmZMmWKqZLXvXt3yZ49u6kAAAAA+DoCRgAAALhk/9ELMnTsGlm45rBZse/WukXklUdqSpH8Wc0KAGS8Ll26SO7cuU2VvI8//tgceZ9Ro0ZJVFSUqZzz8/NzOZQFAAAA4BsIGAEAAJCi+SsOyXvjI+TQ8YtmxZ5soYHy5P03SefW5SRLIC9BAdxYWbNmlZ49e5oqeboP46+//moq77F161YZOnSoqZKno1ErVapkKgAAAAAQ8bv8H3MMAB6hU6dOMnXqVFM5t3fvXilRooSpAADuuBAZKxNmbpWIbSfNin0VS+WSXu0rSe4cQWYFAG68HTt2SMWKFSU+Pt6sOFesWDFZv369y12PmV1cXJzccsstsmTJErOSvJ9//lnatWtnKgC+IDo6Wnr16mWqBK+//rpUrlzZVN6lb9++cvr0aVNd0adPH2nWrJmpAABAYgSMADwOASMAZIyte87ImJ+3yOlzMWbFHn9/P2l3S0lp07iE+PmZRQDIRNq2bSuzZ882VfK6du0qEydONJVne//99+Xll182VfLKlCkj27dv/+85ne5zwJecP39ecuTIYaoECxYssB246d/m27ZtkxYtWpiVzKlw4cJy5MgRU10RHh7uMGgFAACMSAUAAEAS8fGXZcZfe+Sjb9a5HS7myxUsL3apLnfeTLgIIPPSbhVXTZo0SWbMmGEqz7VhwwYZNGiQqVL2xBNPEC4CcEtMTIy88847UqVKFVm4cKFZBQAA3oK/EgAAAPD/TpyJlg8nr5PZi/eJu3Mu6lbJLwN7h0m54jnNCgBkTnfccYfUq1fPVCl77LHH5MCBA6byPBcvXpRu3bpZow9dUahQIWs8IADYNXfuXKlevboMGDDAeu4BAADeh4ARAAAAlhWbjsvbY1bLjv1nzYo9QVn8peud5aVPx8oSGhxoVgEg8/Lz85Px48dLcHCwWUmejs5r3ry5R4aMeoJfR8KuWrXKrKTsq6++8pp9JwFkHO0Ov/3222Xr1q1mBQAAeCMCRgAAAB8XcyleJs7aJqN/3CwXo2LNqj3FC2aTAT3DpEmtwmYFADzDTTfdJEOGDDFVynQ/Qk8LGa+Gi7p3mqu007F9+/amAgDXLVu2zBwBAABvRsAIAADgw/YfvSBDx66WxRFHzIp9t9YtKq/2qCmF84WaFQDwLP369ZPGjRubKmWeFDK6Ey4WL15cPv30U1MB8EUhISFWh3fSt8qVK5v3AAAAvo6AEQAAwEf9ufygvDsuQg6fiDQr9mTPmkWeeuAm6dy6rAQG8LISgOfy9/eXCRMmSNasWc1Kyq6GjHv37jUrmc+5c+dsh4sqPDyc0aiAjwsMDJTu3btf96Z7swIAACjOBAEAAPiY8xcvyWdTN8p383ZKbFy8WbWncuncMrB3mNQon9esAIBnK1++vLz33numco2GjDVr1pRJkyaZlcxj/vz5UqNGDdvh4qOPPmrtnQYAAAAAySFgBAAA8CFb9pyRIeGrZe32k2bFHn9/P+nQvJQ892A1yYgyZjsAAC4FSURBVJ09yKwCgHfo27ev3HbbbaZyzenTp639Cjt06CBHjrg/bjqt6EjUp59+Wlq0aCG7d+82q64pU6aMDB8+3FQAAAAA4BwBIwAAgA+Ij78sPy3YLR9/s05On48xq/bkyxUi/bvWkDaNS4ifn1kEAC/i99+T27Rp06RevXpmxXUzZsyQqlWrynfffWdWMt7ixYutjsqRI0fK5cuXzaprdN/FuXPnSvbs2c0KAAAAADjn998fHfb+6gCAG6xTp04ydepUUzmn++GUKFHCVADgu06ciZLwn7bIzgPnzIp99W4qIA+3KSehwYFmBQC8l3Yltm7dWpYvX25W7NEuSO0ibNeunQQEBJjV9LNw4UIrVPzhhx8kPt7+6GsNF3Wkqo6JBXzd1q1bJSIiwnoeOH/+vHXhQbZs2aRixYrWRQT58+c37wln9CKNFStWmOqKN954Q958801TpZ52jC9atMj6b1RUlAQFBVnfJ30ea9SokbWHpF2FCxe+rhNd96Tt1auXqRJcuHBBVq5cKRs3brQ6x/Xf08dGgwYNpFy5cua9AADwbgSMADwOASMAuG7FxuMy+dftEhkda1bsCc4SIJ1al5WbaxYyKwDgG1IbMqpSpUrJE088Ib1795Z8+fKZ1bShJ7S//vpr+eyzz6wwxF2Ei4DI77//bv08/fLLL3LixAmz6lihQoWkbdu20r17d2natKlZdWzz5s3StWtXUyUYNmyY7XHM7777rkyfPt1UV+gFDLrPakhIiFlxjV4AsXTpUlNdoQHgXXfdZSqRyMhIh1/fV199JWFhYaa64oUXXrAudLjqauiWWNGiRa23xDSwHT9+vKlSpv/G5MmT5a+//pItW7aY1evlzJnTun8ffPBBuf/++62Q2BUpBYx6CnXWrFnywQcfWB3jcXFx1npSRYoUkTZt2kj//v2lcuXKZhUAAO9DwAjA4xAwAkDKoi/Fybdzdso/a93fD6xEoWzSp0NlKZQv1KwAgG9Ji5BR6cn/zp07W6GEdtYUK1bM3GLPyZMnrVBAwxA9KX/q1Clzi3sIF+Hr9uzZI3369JF58+aZFXvq1q1r/SxqUOaIdhRraHXs2DGzcoXu9zpixAhTuaZKlSpWYJnUH3/8YSus1OBQL3jQ/16lAdz+/fuvCQC1ezNHjhymSqCBZrNmzUx1hQaTGrzZpfefK8+v69evl2eeecZ6vrJLx0Z//vnn0rhxY7PiXHIB4/bt261zEatWrTK3pEwD4KeeesoKJLXDEgAAb8MejAAAAF5m35ELMnTsmlSFiy3qFZVXHqlJuAjAp+XOndval9CdPRkT0/F9GkJoJ42GeiVLlrROVL///vvyzTffWCfsNTjYtWuX7N69W7Zt22Z1x+hFdZ988on06NHD6oLR8XsaUn788ceEi0AqaVBUu3Ztt8NFpWNANSQbPXq0WbmWv7+/3HnnnaZKMGfOHHPkGg3/HIWLSgNGO/T9E4eLqn79+td1F2YW//vf/6zvkzvhotIObw1Ev/zyS7Ni38yZM63vs51wUWmHo37+DzzwgFy6dMmsAgDgPQgYAQAAvMgf/x6U98ZHyJET1544clWOrFmk7wM3yQOtykpgAC8VAeBqyJh4dGBq7du3zwoPX375ZXn44Yfl1ltvtbqTypYtK2XKlLH2emvSpIkVQj7//PNWOKnjANNqAFGdOnWsUJNwEb5KOxc1+NOuYGf0Z1+7jfXNUSffVXoBwWOPPSa//fabWblW+/btzVECvYhALyhwVXIhqN2AUcfAJtWxY0dzlLlMmjRJnn322WTDOe0Q18lF2n3obN/F2NhYefzxx60xuHb9+uuv1v1z5swZs2LfjBkz5JFHHjEVAADeg7NGAAAAXuDcxUsycupGmfr7TomNizer9lQunVsG9g6T6uXzmhUAgNKgQU/Kjxs3TnLlymVWPU+WLFlk8ODB1pjVcuXKmVXA9zz33HPXjcJUrVq1kgkTJsiOHTusLmHtHNQ3DZd0lKfuU6idxElp+K+jMHUkalI6Zjk4ONhUCex0MSYXMGoXpZ3wS7vxkkptwPjmm29aH/fqW4UKFcwtCR566KFr3kfftEPbGf2ar+59mJSOeB0wYICsXbtWzp07Z22PcujQITl8+LCMGjXK6nh0RD+e7g9px7Rp06yA8iode6qd5CNHjrS6I7XrfNOmTfLtt99a+y7q7Y5ot/qiRYtMBQCAd2APRgAehz0YAeBam3eflrE/b5Uz52PMij3+/n5yd7NScnvD4uLnZxYBAA5p2NC7d2/bIw5vtBo1aljBSa1atcwK4Jt0P7/q1aubKsHQoUPltddeM5VzGmJpV6KjvQM1FGvZsqWpEmjwlLTDsUOHDvLjjz+ayjk9bVeoUKHr9nFM7KeffpK7777bVM7piE/tYE5Mxy9rQJaUnT0Yk9Kx0hp8JqbhrAaRrtD7WDu5NTxMql27dtZzWZ48eczK9XQ0af/+/a1x0klpmDp9+nRTXcvRHoyJ3XzzzdY4XO04d0ZH2d5xxx1Wl2xSGrK600UJAEBmRQcjAACAh4qPvyzT5++WT6asdztczJ87RF7qVkPuaES4CACu0L0LNSjQ/byyZ89uVjMvHRn4+uuvWyf7CRcBkdmzZ5ujBI0aNXIpXFQaQmmgFxp6/T7VGnw5oqFYUn/++ec1nXHOaJdccuGicnVMqqeMR/3ggw8chovdunWzxo0mFy4q7SL86KOPrEAvKQ11//33X1O5TrtbdR/I5MJFpYGt/o5wFM7q9xwAAG9CwAgAAOCBjp+OkvcnrpU5S/aLu/Mo6lUtIAN7hUmZos73FQIAOPboo4/KunXrrPGHmZV2Lf7zzz8yZMgQazwqALFGBCfVtWtXc+SaokWLWnsDJvX777+bo2s5ChjPnj0rS5YsMZVzScejBgUFSc6cOU11RWoCRu2kzEz0ftELOJLSsafaPehn44q4YcOGOQyCdbypHRoa6qhUV59H9f3vv/9+UyXQzszU7OUIAEBmQ8AIAADgYZZvOCZDxqyWXQevv7LbFcFBAdL9rgrS++5KEhLseJ8YAEDKSpcubY1KXbNmjTU21dGJ7IymnTvakaSBg3Y+6ahCAAkcdcZFRkaaI9fdc889kjVrVmvcqv7Mvfjii9YIUB3PmZRu3eGog9iVUctz5841R1dot2WTJk1MdYXuK6h7ECbn4MGD1ojUxIoVK5bpniN0hOiFCxdMlUDDQg1X7dCO86efftpUCf766y9z5JpBgwY57EhMzp133mmOrqUjVAEA8BYEjAAAAB4i+lKcjP9lq4TP2CJR0defvHJFycLZZUDPWtK4RiGzAgBIrZo1a1qdNQcOHLBG+5UpU8bcknHy588vr7zyiuzcudPaX+y2224ztwBIzNFoY/35tRsy1q1b1wrC1q5da/3M6c/+Y489ZoX8jjjqYkwpYIyKipJFixaZ6grd4/GWW24xVYKUxm/OnDnT2s8xMd230U5HYEbQEahJaTjraG9LV1ztJNTvu3ZBPvjgg9KzZ0+5dOmStZ6SXLlyWWGyXTpS1dFjQZ+jAQDwFgSMAAAAHmDfkfMydMwaWbLuqFmxR08dtaxfTF7uXlMK5b3xHTYA4I10XzDtYtq+fbs1ivD2229P19GkGgzUr19fxo8fL/v375d3331XSpYsaW4F4EjDhg3NUQLtKtNRoXv27DErKbMbzLVv394cJdCOwuPHj5vqegsXLrRCxsRatGjhMGB0Np71Kg0Yk8ps41HV6tWrzVEC/ZrdVadOHev5UTtXV65cKd9884288cYbLj83a7gZHBxsKtfpGFsNJ5Nyp1sWAIDMioARAAAgE9PrzH//94C8Nz5Cjpx074REjmxZpG+nqnJ/yzISGJC5rlIHAG/k7+8vd911l/z222/WflsaErz//vvWGMXChQub97Ivd+7cVmipYxi18+nUqVOybNky6d69u1snwAFfdMcdd5ija+ko0goVKlidhuHh4bJ3715zS9rQoEv3bkwsPj7+uj0WE0t6m4ZWelGBjjUNCQkxq1cktw+jhlpJA0h9PmnevLmpMgcd43r06PUX0zVr1swc2adBsI6CdZfup+guHaGblKudkwAAeAICRgAAgEzq3IVLMvK7DfL977skNu7akVauqlImtwzqHSbVyuUxKwCAjKT7Mup+af3797fGKOo+abt27Uo2VEhq9uzZsmnTJjl58qQVWmr3TevWrR12xwBIno40drY/noY/2unXp08fKVWqlFSsWFGeeuopqyP54sWL5r3co0GXXniQVHJjUpM+T2jQpmM3dS9CDRoT27dvn2zbts1U19LwMWnnXNu2bdO1w9odup9tUnq/OerYzCgaOrtLLzZJSkNlAAC8BQEjAABAJrRp12kZHL5a1u84ZVbsCfD3k3tuKy3PPlhNcmYLMqsAgMygdOnS1n5i2tGUEg0S2rRpY3XR2B3JCMCxUaNGudRNrIHd559/bo03zZs3rxXsf/LJJ06DvJQ42odROycd0U6+iIgIU12ReFSoo31WnXUxakCalHZUZzYbN240RwmyZctmdVveKI727AQAAFcQMAIAAGQicfGXZfqfu+XTKevl7IUYs2pPgTwh8lL3mnJ7w+LW3osAAABIUKJECWu8cPXq1c1KyqKjo62Owueff97qbNQLBDRsdDTS0xm9sCDp2Eztal67dq2pEmhYePnytRMs9P+/ytG+hM4CxlmzZpmjK3S8qrNRsTfS+fPnzVEC7QK/kQIDA80RAABIioARAAAgkzh2KkrenxAhc5but/ZedEeDagXk9V5hUroIV1sDAAA4U7JkSVmyZIm8/fbbUqhQIbPqulWrVllho36cfv36WQFkSjTYSxwSXuVoTGrS8ajacVm1alVT/fear0GD67rr5s+ff10oqZ/ngQMHTHVFq1atrM7AzMbRfXijA0YAAOAcASMAAEAm8O+GY/L2mNWy+9D1V267IjgoQHq0qyg921eSkP+OAQAAkDwN2QYMGGDtX/jdd99Z4Z/dfQk1FPvoo4+sfQL3799vVp3TcatJuRIwJu1Y1M+zadOmprrixIkTsnr1alNd4Wg8aocOHcxR5hcXF2eOAABAZkPACAAAcANFx8TJuF+2ypgZWyTqv2N3lCqcXV7vWUsaVi9oVgAAAOAqDeseeOABK9Q7efKkNVJUuxNr1Kjh8t6ny5cvl7vuuivFTsa2bdte9zEXLVokFy9eNJXI5s2brwsrHY1EddQNmXRMatKAMSAgwGHImRnonrNJRUZGmiMAAJDZEDACAADcIHsOn5e3x66Rpetc37snMT011apBMWu/xYJ5GR8FAACQWjp29M4777S6EiMiIuTw4cPy9ddfS/fu3aVo0aLmvRzT9//www9N5ZiOOq1Xr56prtBQ8q+//jKVyO+//26OEjgKGB2t/fnnn+boyv6OOiI1sZtvvlny589vqszF0f1LwAgAQOZFwAgAAJDBdGececsOWPstHj3p3kmTnNmyyNOdq8p9LcpIYIBrV9YDAADAnoIFC8pDDz0k48ePt/Yy1BGkPXv2dNhtp7755htz5JyjDsLEwWDSLsQKFSpYez0mVb16devzS0y7IWNjY63jmTNnXrcnY2Yej1q+fHlzlEADxp07d5oKAABkJgSMAAAAGejshUsy4tsN8sMfuyQ27toTPq66qUxuGdi7tlQtm8esAAAAICPUqlVLxowZIytWrJDcuXOb1QQbN2609nRMTrt27cxRgquhYnx8/DXdjMpRp6LSUau33Xabqa44f/68Na5VOdp/sWPHjuYo89Eg1ZHFixebI/d06tTJ+th33HGH9O3bVz7++GOr2xQAAKQOASMAAEAG2bjrtAwJXyUbdp4yK/YE+PvJvS3KyDMPVrM6GAEAAGDP0aNHZcGCBfLFF1/IM888I8OGDTO32KPdg6+//rqprpVSx53u7ViqVClTXaGBl+7/qB2Sp05d+1rRWcCoHO3DOH/+fKvzL+mo1Zo1a0rp0qVNlfmUKFHC4fhW7cpMDQ2Dt2/fLnPmzJHPPvtMXnjhBes+AgAAqUPACAAAkM7i4i/LtD92yf+mrLc6GN1RME+IvNy9prRuUMzaexEAAAD2DBgwQAoVKiS33nqrPPnkkzJixAiZMGGCudU+3avRkbi4OHPkXNIuRu1c1NAr8ahU5e/vf12XYmKOwkcNULUjMun+hRnVvaidle7Q/8/RCFcNBl25Tx35999/HQa+zZo1M0cAAMBdBIwAAADp6OipKBk2IULmLjtg7b3ojobVCsrrvcKkVJHsZgUAAAB21a5d2xwl2LRpk9vdbEkDvKvy5ctnjpxztg9j0s9FR7LmzZvXVNfTjsSyZcua6godKTpt2jRTJcio/RcDAgLMUYKYmBhzlLx7773XHCXYs2ePS3tbOvLBBx+YowRlypSRsLAwUwEAAHcRMAIAAKSTpeuPyttjVsueQ+fNij0hQQHSs31F6fHfW/B/xwAAAHBf06ZNJSgoyFQJBg4caI7sGTdunDlKUKRIEWsEakq0gy5HjhymukJHmv7zzz+musLRCNSkkr7PxYsXZfLkyaa6QkM1HZGaEYKDg81RgnPnzpmj5GlHpn6uSek42hMnTpjKNdu2bZPp06ebKsFDDz1kjgAAQGoQMAIAAKSxqJg4GfvzVhn331v0f8fuKF0ku9W12KBaQbMCAACA1ChQoID07t3bVAm048/uXoy6Z+JXX31lqgTaJejKiFANOm+//XZTXbF161Y5c+aMqa5Ibv/Fqxy9T2xsrDm6IqO6F5WOoU1Kx7a6IkuWLA67Dvfu3WuNldV9Kl1x5MgR6/119GxiuXPnln79+pkKAACkBgEjAABAGtJuxaFjVsuy9UfNij16Oqp1w+LyUveaUiBPyJVFAAAApInXXnvNYYfdK6+8YoWPSQM+R3766SdrH8ekYz81HHvmmWdMlTJHY1IT08+zSZMmpnJO92hMKdTMyICxePHi5ijB+vXrpUePHrJ27Vo5ePCg7NixQ9asWWNuvZaOSW3evLmpEixZssQabTp37lyz4piOmq1fv75s2bLFrCTQbtU8efKYCgAApAYBIwAAQBpat/2kHDsdZSr7/Pz9JGtIoPi7cOU7AAAA7ClWrJi8+uqrprrWmDFjJH/+/FZ4OHz4cPnll1/kjz/+kDlz5lh7APbp08fa87Bjx45y6tQp838lGDBggFSuXNlUKbvzzjsd7ld4VaNGjSRr1qymck4/5+TGn2rnpitBZVopVaqUObrW+PHjrc9Tvwfly5e/roMzsa+//tp6v6S0k1H/Pw0adWyqjkDVQFG/V4MHD7Y+rnZ06vsldffdd8vzzz9vKgAAkFoEjAAAAGnorltKyotdaki+XO51H8bHX5afFuyW4ZPXyokz0WYVAAAAaWXQoEFy//33m+paOlpUx3m++OKLVoeh7m94xx13yMMPPyzh4eGyZ88e857X6ty5sxV42ZEvXz5p3Lixqa7nynjUq5Lbq1FHhfr7Z9wpwLZt27r07x09etRhUKuKFi1q7Umpe1o6ot2PQ4cOtbod9X7S79Ubb7xhdUY60qBBA5k4caJL42sBAIBrCBgBAADSWPkSOWVQ7zBpWN39/RO37Tsrg8NXyVI3R60CAADAMQ2ZtCPxqaeeMivu0yDtnXfekSlTpiTbjeiMhn/OJBcaJpVcGJmR41FVuXLl5IUXXjBV8jZv3myOrqfdoKtWrbICy9TQ8Fc7UXPmzGlWAABAWiBgBAAASAchwQHSo11FebRjZckWGmhW7YmKjpNxP2+V0T9tlotRsWYVAAAAqRUYGCgjR460uuRuueUWs+o6DRbvuusuWbx4sdORq65wtg+jhmH16tUzVcqaNm0qQUFBpkqQPXt2adWqlakyzvvvv291gaYUujraJzGxwoULy8yZM2XcuHFy0003mVXXVK1a1Rpvq+FvtmzZzCoAAEgrfpf/Y44BwCN06tRJpk6dairndM+FEiVKmAoAbpzT52Jk/MytsmnXabNiX54cwfJIuwpSuXRuswIA8HR169aVlStXmsoxDQyioxmZDaS3DRs2WKNR//77b1m4cKEcPnxYEp8y00CxUqVKUrt2betNR3M622vQLh29mvTnXEeD3nPPPaZyzbfffisnTpww1RU6alT3jLTr0qVL8tVXX5kqgX4s/Ziu2rp1q/z444+yYsUKa3xpTEyM9byWN29eaz9GHT2r96erFi1aJN9//71ERETIunXr5OTJk+YWkRw5ckiVKlWscagPPvigtYelHbpH5IULF0x1xW233WZ9THfoSNZz586Z6ormzZtbwScAAN6AgBGAxyFgBOCJ9AXXH/8ekB/n75HYuPgrizbpjjEtGhSTjs1LSWAAgygAwNMRMAKZW1RUlERGRlrdjqGhodZ/kbloIKihpX5vNGAEAAAZhzNTAAAAGUDDwZb1i8lrPWpKsYLujWjSkPL3ZQfk3XERcvDYxSuLAAAASBchISGSJ08eK7giXMycdPTp1e8RAADIWASMAAAAGUjDRQ0ZNWzU0NEd+49ekKFj11hhI6MoAAAAAAAAkNEIGAEAADKYjje9v2UZee6hatbeiu7QMavf/7FLPvlmvbXHIwAAAAAAAJBRCBgBAABukMqlc8ugPmFSt0p+s2Lf5t2n5a3Rq2TlpuNmBQAAAAAAAEhfBIwAAAA3UNaQQOnTsbL0aF9RQoIDzKo9F6Ni5asfN8u4n7dKVHScWQUAAAAAAADSBwEjAABAJtCwWkEZ1Lu2VCiR06zYt3T9URkcvlq27ztrVgAAAAAAAIC0R8AIAACQSeTLFSz9utSQDs1LS4C/n1m158SZKBk+eZ38tGCPxMVfNqsAAAAAAABA2iFgBAAAyET8/ETaNC4urzxSUwrnCzWr9sRfviy//rNPhk2IkCMnIs0qAAAAAAAAkDYIGAEAADKhkoWzy+u9wqR5nSJmxb49h87L22NXy1+rDpkVAAAAAAAAIPUIGAEAADKpLIH+8uDt5eTpTlUlZ7YsZtWemEvx8s1vO2Tk1I1y7sIlswoAAAAAAAC4j4ARAAAgk6tWLo8M6lNbalbMZ1bsW7f9pLwVvkrWbjtpVgAAAAAAAAD3EDACAAB4gBxZs8iT91WRLneWl+AsAWbVHu1g/Oz7jTL51+0SfSnOrAIAAAAAAAD2EDACAAB4kFtqFZbXe4dJmaI5zIp9C1cflrfHrJHdB8+ZFQAAAAAAAMB1BIwAAAAepmCeEHmpWw25q0lJ8ffzM6v2HD0ZKcMmrpWZi/ZK/OXLZhUAAAAAAABIGQEjAACAB/L395N2TUtK/241pECeELNqT3z8Zfnl773ywcS1cvx0lFkFAAAAAAAAkkfACAAA4MHKFsshA3uFyc01C5kV+3YeOCdDwlfL4ogjZgUAAAAAAABwjoARAADAwwUHBUi3thXk8XurSLbQQLNqT1RMnEyctU2+nL5ZLkTGmlUAAAAAAADgegSMAAAAXiKsUj55o09tqVo2j1mxb9Xm4zJ49CrZuOu0WQEAAAAAAACuRcAIAADgRXJlD5KnO1eVzq3LSpZA917qnT4fI/+bsl6+m7dTLsXGm1UAAAAAAADgCgJGAAAAL+P339utdYvKgJ61pESh7FcWbbr839ufyw/KO+PWyP6jF64sAgAAAAAAAP8hYAQAAPBSRfJnlVceqSm3Nywufpo6uuHgsYvy7rg1MnfpfrmsqSMAAAAAAAB8HgEjAACAFwsM8JN7bistLzxcXfLmDDar9sTGXZZpf+6Wj79ZJ6fORptVAAAAAAAA+CoCRgAAAB9QsWQuGdQnTOpXLWBW7Nuy54wMDl8tKzcdNysAAAAAAADwRQSMAAAAPiI0OFB63V1Jev/3ljUk0KzaczEqVuYuO2AqAAAAAAAA+CICRgAAAB9Tr2oBGdQ7TCqWymVWAAAAAAAAANcRMAIAAPigPDmD5YWHqsu9t5W29mkEAAAAAAAAXEXACAAA4KP8/ERaNywur/aoJUULZDWrAAAAAAAAQPIIGAEAAHxc8YLZ5LUetaRFvaJmBQAAAAAAAHCOgBEAAACSJdBfHmhV1upqBAAAAAAAAJJDwAgAAAAAAAAAAID/a+/+QrsuFziOP+vPNM84iSh4bCvilBGSUnhREBkU5CAKb9qFFwZdHSqIIBDOgTDoRgSDDLyIQqGLsyQzUAqE8BDZgiVJRhIlmlQyxYlubedYO9vOc7pK/Vi6P9/f6wXi83mmux689/3+ICYwAgAAAAAAADGBEQAAAAAAAIgJjAAAAAAAAEBMYAQAAAAAAABiAiMAAAAAAAAQExgBAAAAAACAmMAIAAAAAAAAxARGAAAAAAAAICYwAgAAAAAAADGBEQAAAAAAAIgJjAAAAAAAAEBMYAQAAAAAAABiAiMAAAAAAAAQExgBAAAAAACAmMAIAAAAAAAAxARGAAAAAAAAICYwAgAAAAAAADGBEQAAAAAAAIgJjAAAAAAAAEBMYAQAAAAAAABiAiMAAAAAAAAQExgBAAAAAACAmMAIAAAAAAAAxARGAAAAAAAAICYwAgAAAAAAADGBEQAAAAAAAIgJjAAAAAAAAEBMYAQAAAAAAABiAiMAAAAAAAAQExgBAAAAAACAmMAIAAAAAAAAxARGAAB+tWTRvPKXhRf/M7+jvf5rAAAAAFqRwAgAwK++HxguP5y8+J/Bc/+u/xoAAACAViQwAgAAAAAAADGBEQAAAAAAAIgJjAAAAAAAAEBMYAQAAAAAAABiAiMAAAAAAAAQExgBAAAAAACAmMAIAAAAAAAAxARGAAAAAAAAICYwAgAAAAAAADGBEQAAAAAAAIgJjAAAAAAAAEBMYAQAAAAAAABiAiMAAAAAAAAQExgBAAAAAACAmMAIAAAAAAAAxARGAAAAAAAAICYwAgAAAAAAADGBEQAAAAAAAIgJjAAAAAAAAEBMYAQAAAAAAABiAiMAAAAAAAAQExgBAAAAAACAmMAIAAAAAAAAxARGAAAAAAAAICYwAgAAAAAAADGBEQAAAAAAAIgJjAAAAAAAAEBMYAQAAAAAAABiAiMAAAAAAAAQExgBAAAAAACAmMAIAAAAAAAAxARGAAAAAAAAICYwAgAAAAAAADGBEQAAAAAAAIgJjAAAAAAAAEBMYAQAAAAAAABiAiMAAAAAAAAQExgBAAAAAACAmMAIAAAAAAAAxARGAAAAAAAAICYwAgAAAAAAADGBEQAAAAAAAIgJjAAAAAAAAEBMYAQAAAAAAABiAiMAAAAAAAAQExgBAAAAAACAmMAIAAAAAAAAxARGAAAAAAAAICYwAgAAAAAAADGBEQAAAAAAAIgJjAAAAAAAAEBMYAQAAAAAAABiAiMAAAAAAAAQExgBAAAAAACAmMAIAAAAAAAAxARGAAAAAAAAICYwAgAAAAAAADGBEQAAAAAAAIgJjAAAAAAAAEBMYAQAAAAAAABiAiMAAAAAAAAQExgBAAAAAACAmMAIAAAAAAAAxARGAAAAAAAAICYwAgAAAAAAADGBEQAAAAAAAIgJjAAAAAAAAEBMYAQAAAAAAABiAiMAAAAAAAAQExgBAAAAAACAmMAIAAAAAAAAxARGAAAAAAAAICYwAgAAAAAAADGBEQAAAAAAAIgJjAAAAAAAAEBMYAQAAAAAAABibWPj6hlgVujp6Sm9vb11XdixY8dKV1dXXQBcypdffln+9o9t5cSxQ2Vw4GgZPnuq/Gd0ePwnxrYyZ25H+dOfF5UFi/9alq1YWTb9fW3p7Oys/xOA32PlypWlv7+/rt/W3t5eRkdH6wIAAJgZPMEIANDCRkZGyhtvvFHuueeesmzZsvKvnRvL4f7d5cSxL8rZ0z+UkeEzZWRosJw5dbx8f+RA+WL/jvLPrevLzTffXFavXl12795dfvnll/rdAAAAAGgFAiMAQAuaiIKbN2+efArxqaeeKgcOHKhfyUy8BOODDz4ojz76aFm6dGl577336lcAAAAAaDqBEQCgxXzzzTdl1apV5fnnny+nTp2qt7/fxPd7/PHHy7p168rg4GC9BQAAAKCpBEYAgBayc+fOsmLFivLRRx/Vmytn+/bt5a677ioHDx6sNwAAAAA0kcAIANAi3nnnnfLEE0+UoaGhenPlHT9+vDz00EMiIwAAAECDCYwAAC1gIi729PSU8+fP15ur5+TJkyIjAAAAQIMJjAAADXf48OGydu3aKYmL/zcRGdesWXNVn5YEAAAAYHoIjAAADfbzzz+XdevWlZGRkXozdb799tvywgsv1AUAAABAUwiMAAANtmnTptLX11fX1Nu6dWvZu3dvXQAAAAA0gcAIANBQZ8+eLS+//HJd02NsbKysX7++LgAAAACaQGAEAGiobdu2TUbG6dbf318++eSTugAAAACY7QRGAICGeu211+pp+m3ZsqWeAAAAAJjtBEYAgAb69NNPy1dffVXX9Hv77bfL8PBwXQAAAADMZm1jEx+MAzCL9PT0lN7e3roubuHChfUE0Fp++umnMjQ0VNfMcOONN5brr7++LgBOnjxZTxfW3t5eRkdH6wIAAJgZBEZg1rmcwAgAALOZwAgAAMxEXpEKAAAAAAAAxARGAAAAAAAAICYwAgAAAAAAADGBEQAAAAAAAIgJjAAAAAAAAEBMYAQAAAAAAABiAiMAAAAAAAAQaxsbV88As0JPT0/p7e2t68Lmzp1burq66gJoLYODg2VgYKCumaGzs7PccMMNdQHw9ddf19OFtbe3l9HR0boAAABmBoERmHUOHjxYfvzxx7oubNWqVWXOnDl1AbSW/v7+snLlyrqm38QvfZw+fXrybwD+p6+vr5w5c6au33bNNdeUhx9+uC4AAICZQWAEAGioFStWTP5Sxkzw5JNPljfffLMuAAAAAGYzn8EIANBQTz/9dD1Nv2effbaeAAAAAJjtPMEIANBQw8PD5aabbpr8PMbpdN9995WPP/64LgAAAABmO08wAgA01Lx588qGDRvqmh4Tnx22cePGugAAAABoAoERAKDBJl5N+uCDD9Y19Z577rly//331wUAAABAE3hFKgBAwx05cqQsX768nDt3rt5MjTvvvLN89tlnZe7cufUGAAAAgCbwBCMAQMPdeuutZceOHWXOnDn15upbsmRJeffdd8VFAAAAgAYSGAEAWsAjjzwyGfymIjJOxMUPP/ywLF26tN4AAAAA0CQCIwBAi1i9enXZtWtXmT9/fr258m677TZxEQAAAKDhBEYAgBYy8STjoUOHSnd3d725Mtra2sozzzxTPv/8c3ERAAAAoOEERgCAFjPxCtM9e/aU119/vXR2dtbb32/58uVl79695dVXXy3z5s2rtwAAAAA0VdvYuHoGAKDFnD9/fvKzGbds2VL27dtXby/tuuuuK2vWrJl8avGBBx6otwAAAAC0AoERAIBJ3333XbnlllvKpX48nHgF6v79+8uCBQvqDQAAAACtxCtSAQCY1NXVNflZipcyf/58cREAAACghQmMAAAAAAAAQExgBAAAAAAAAGICIwAAAAAAABATGAEAAAAAAICYwAgAAAAAAADEBEYAAAAAAAAgJjACAAAAAAAAMYERAAAAAAAAiAmMAAAAAAAAQExgBAAAAAAAAGICIwAAAAAAABATGAEAAAAAAICYwAgAAAAAAADEBEYAAAAAAAAgJjACAAAAAAAAMYERAAAAAAAAiAmMAAAAAAAAQExgBAAAAAAAAGICIwAAAAAAABATGAEAAAAAAICYwAgAAAAAAADEBEYAAAAAAAAgJjACAAAAAAAAMYERAAAAAAAAiAmMAAAAAAAAQExgBAAAAAAAAGICIwAAAAAAABATGAEAAAAAAICYwAgAAAAAAADEBEYAAAAAAAAgJjACAAAAAAAAMYERAAAAAAAAiAmMAAAAAAAAQExgBAAAAAAAAGICIwAAAAAAABATGAEAAAAAAICYwAgAAAAAAADEBEYAAAAAAAAgJjACAAAAAAAAMYERAAAAAAAAiAmMAAAAAAAAQExgBAAAAAAAAGICIwAAAAAAABATGAEAAAAAAICYwAgAAAAAAADEBEYAAAAAAAAgJjACAAAAAAAAMYERAAAAAAAAiAmMAAAAAAAAQExgBAAAAAAAAGICIwAAAAAAABATGAEAAAAAAICYwAgAAAAAAADEBEYAAAAAAAAgJjACAAAAAAAAMYERAAAAAAAAiAmMAAAAAAAAQExgBAAAAAAAAGICIwAAAAAAABATGAEAAAAAAICYwAgAAAAAAADEBEYAAAAAAAAgJjACAAAAAAAAMYERAAAAAAAAiAmMAAAAAAAAQExgBAAAAAAAAGICIwAAAAAAABATGAEAAAAAAICYwAgAAAAAAADEBEYAAAAAAAAgJjACAAAAAAAAsbaxcfUMAPCHDA0NlaNHj9bFbLRs2bJ6urCOjo7S19dXF7PRHXfcUa699tq6AAAAAC6PwAgAXDHvv/9+6e7urguYqQYGBsrChQvrAgAAALg8XpEKAAAAAAAAxARGAAAAAAAAICYwAgAAAAAAADGBEQAAAAAAAIgJjAAAAAAAAEBMYAQAAAAAAABiAiMAAAAAAAAQExgBAAAAAACAWNvYuHoGAPhDDh06VDZv3lwXMFO98sorpaOjoy4AAACAyyMwAgAAAAAAADGvSAUAAAAAAABiAiMAAAAAAAAQExgBAAAAAACAmMAIAAAAAAAAxARGAAAAAAAAICYwAgAAAAAAADGBEQAAAAAAAIgJjAAAAAAAAEBMYAQAAAAAAABiAiMAAAAAAAAQExgBAAAAAACAmMAIAAAAAAAAxARGAAAAAAAAICYwAgAAAAAAADGBEQAAAAAAAIgJjAAAAAAAAEBMYAQAAAAAAABiAiMAAAAAAAAQExgBAAAAAACAWNvYuHoGAGisffv2ldHR0brg6lu0aFG5++676wIAAABoDoERAGgJixcvLidOnKgLrr7u7u6yZ8+eugAAAACawytSAQAAAAAAgJjACAAAAAAAAMQERgAAAAAAACAmMAIAAAAAAAAxgREAAAAAAACICYwAAAAAAABATGAEAAAAAAAAYgIjAAAAAAAAEGsbG1fPAACNtWnTpnLu3Lm64Oq7/fbby9q1a+sCAAAAaA6BEQAAAAAAAIh5RSoAAAAAAAAQExgBAAAAAACAmMAIAAAAAAAAxARGAAAAAAAAICYwAgAAAAAAADGBEQAAAAAAAIgJjAAAAAAAAEBMYAQAAAAAAABiAiMAAAAAAAAQExgBAAAAAACAmMAIAAAAAAAAxARGAAAAAAAAICYwAgAAAAAAADGBEQAAAAAAAIgJjAAAAAAAAEBMYAQAAAAAAABiAiMAAAAAAAAQExgBAAAAAACAWNvYuHoGAGAavPXWW2X79u11cTk2bNhQ7r333roAAAAAmAoCIwDANHvppZfKiy++WBeXY9euXeWxxx6rCwAAAICp4BWpAAAAAAAAQExgBAAAAAAAAGICIwAAAAAAABATGAEAAAAAAICYwAgAAAAAAADEBEYAAAAAAAAgJjACAAAAAAAAMYERAAAAAAAAiLWNjatnAAAAAAAAgIvyBCMAAAAAAAAQExgBAAAAAACAmMAIAAAAAAAAxARGAAAAAAAAICYwAgAAAAAAADGBEQAAAAAAAIgJjAAAAAAAAEBMYAQAAAAAAABiAiMAAAAAAAAQExgBAAAAAACAmMAIAAAAAAAAxARGAAAAAAAAICYwAgAAAAAAADGBEQAAAAAAAIgJjAAAAAAAAEColP8CYnXwPuiUdGQAAAAASUVORK5CYII=;" vertex="1" parent="1">
          <mxGeometry x="320" y="-620" width="1816" height="1083" as="geometry" />
        </mxCell>
      </root>
    </mxGraphModel>
  </diagram>
</mxfile>
